<svg xmlns="http://www.w3.org/2000/svg" width="39" height="39" viewBox="0 0 39 39">
  <g id="Group_410" data-name="Group 410" transform="translate(-1145 -604)">
    <circle id="Ellipse_34" data-name="Ellipse 34" cx="19.5" cy="19.5" r="19.5" transform="translate(1145 604)" fill="#004679"/>
    <g id="Group_406" data-name="Group 406" transform="translate(972.832 -467.278)">
      <path id="Path_283" data-name="Path 283" d="M1512.792,1188.506h-.637a.578.578,0,0,0-.062,0,.11.11,0,0,0-.1.116.228.228,0,0,0,.028.09q.226.426.454.851l3.807,7.126c.045.085.089.17.136.253a.16.16,0,0,0,.212.068.2.2,0,0,0,.085-.095l.687-1.286,3.3-6.173c.135-.254.27-.507.407-.76a.125.125,0,0,0-.108-.193c-.45,0-.9,0-1.349,0a.16.16,0,0,0-.15.089l-.042.079-2.736,5.208a.448.448,0,0,1-.037.065.161.161,0,0,1-.259,0,.45.45,0,0,1-.035-.059l-.443-.842q-1.163-2.213-2.327-4.427a.187.187,0,0,0-.185-.113C1513.221,1188.508,1513.006,1188.506,1512.792,1188.506Z" transform="translate(-1320.144 -100.979)" fill="#f4f4f4" fill-rule="evenodd"/>
      <path id="Path_284" data-name="Path 284" d="M2123.4,1094.812h.63a.615.615,0,0,0,.062,0,.116.116,0,0,0,.1-.159.51.51,0,0,0-.033-.068q-.853-1.6-1.708-3.2l-2.656-4.972a.605.605,0,0,0-.03-.054.16.16,0,0,0-.263,0,.515.515,0,0,0-.034.059l-1.8,3.373-2.563,4.8c-.01.018-.02.036-.028.055a.118.118,0,0,0,.1.169c.02,0,.041,0,.062,0h.774c.166,0,.333,0,.5,0a.188.188,0,0,0,.2-.123.022.022,0,0,1,0-.006l2.224-4.234q.272-.518.544-1.036a.171.171,0,0,1,.153-.108.168.168,0,0,1,.159.109c.024.049.051.1.076.145q1.348,2.565,2.7,5.129a.2.2,0,0,0,.2.122C2122.979,1094.809,2123.191,1094.812,2123.4,1094.812Z" transform="translate(-1915.93)" fill="#f4f4f4" fill-rule="evenodd"/>
      <path id="Path_285" data-name="Path 285" d="M181.616,1192.41l.043.019a1.914,1.914,0,0,1,1.161,1.23,2.573,2.573,0,0,1,.116.986,3,3,0,0,1-.121.713,2.065,2.065,0,0,1-1.139,1.3,3.316,3.316,0,0,1-.86.263,5.533,5.533,0,0,1-.954.074h-3.929c-.027,0-.055,0-.082,0a.153.153,0,0,1-.151-.148c0-.02,0-.041,0-.061q0-4.049,0-8.1s0,0,0-.007c-.011-.138.066-.208.205-.207q2.088,0,4.176,0a2.82,2.82,0,0,1,1.265.277,2.046,2.046,0,0,1,1.111,1.278,2.233,2.233,0,0,1-.03,1.425,1.656,1.656,0,0,1-.766.921C181.646,1192.387,181.635,1192.4,181.616,1192.41Zm-2.962,3.356h1.15a3.484,3.484,0,0,0,.586-.044,1.844,1.844,0,0,0,.558-.177,1.021,1.021,0,0,0,.551-.71,1.741,1.741,0,0,0-.022-.839.923.923,0,0,0-.53-.625,1.82,1.82,0,0,0-.283-.1,3.4,3.4,0,0,0-.875-.1c-.821,0-1.642,0-2.464,0h-.048a.167.167,0,0,0-.174.164c0,.018,0,.037,0,.055q0,1.081,0,2.162a.424.424,0,0,0,.006.082.158.158,0,0,0,.142.128c.023,0,.046,0,.068,0Zm-.02-6.058h0c-.436,0-.871,0-1.307,0-.156,0-.224.071-.222.221,0,.6,0,1.2,0,1.8a.67.67,0,0,0,0,.068.162.162,0,0,0,.146.147.391.391,0,0,0,.048,0q1.218,0,2.436,0a2.022,2.022,0,0,0,.692-.11.983.983,0,0,0,.606-.548,1.458,1.458,0,0,0,.074-.905.715.715,0,0,0-.365-.481,1.231,1.231,0,0,0-.18-.082,2.089,2.089,0,0,0-.7-.108C179.455,1189.705,179.044,1189.708,178.633,1189.708Z" transform="translate(0 -100.951)" fill="#f4f4f4" fill-rule="evenodd"/>
      <path id="Path_286" data-name="Path 286" d="M911.385,1192.545l.037.016a1.924,1.924,0,0,1,1.181,1.272,2.548,2.548,0,0,1,.107.878,3.019,3.019,0,0,1-.124.781,2.062,2.062,0,0,1-1.109,1.289,3.287,3.287,0,0,1-.891.277,5.461,5.461,0,0,1-.94.073H905.7a.861.861,0,0,1-.089,0,.15.15,0,0,1-.135-.133.489.489,0,0,1,0-.068v-8.112a.613.613,0,0,1,0-.062.154.154,0,0,1,.148-.143c.018,0,.036,0,.055,0h4.176a2.856,2.856,0,0,1,1.209.25,2.087,2.087,0,0,1,1.1,1.118,2.223,2.223,0,0,1,.162.916,2.113,2.113,0,0,1-.169.8,1.656,1.656,0,0,1-.724.813C911.416,1192.522,911.4,1192.532,911.385,1192.545Zm-2.961,3.356h1.081a4.061,4.061,0,0,0,.56-.03,2.033,2.033,0,0,0,.6-.167,1.026,1.026,0,0,0,.593-.709,1.7,1.7,0,0,0-.026-.9.9.9,0,0,0-.484-.573,1.879,1.879,0,0,0-.319-.119,3.286,3.286,0,0,0-.861-.1c-.83,0-1.661,0-2.491,0-.114,0-.218.054-.207.209,0,0,0,.009,0,.014q0,1.078,0,2.156a.493.493,0,0,0,0,.082.158.158,0,0,0,.145.133c.023,0,.046,0,.068,0Zm-.022-6.058H907.1c-.02,0-.041,0-.062,0a.16.16,0,0,0-.157.157c0,.021,0,.041,0,.062v1.8c0,.02,0,.041,0,.062a.161.161,0,0,0,.147.154.7.7,0,0,0,.075,0q1.119,0,2.238,0c.132,0,.264,0,.4-.013a1.645,1.645,0,0,0,.473-.1.991.991,0,0,0,.63-.622,1.526,1.526,0,0,0,.057-.769.742.742,0,0,0-.294-.485.984.984,0,0,0-.266-.138,2.14,2.14,0,0,0-.7-.107C909.224,1189.841,908.813,1189.843,908.4,1189.843Z" transform="translate(-720.952 -101.086)" fill="#f4f4f4" fill-rule="evenodd"/>
      <path id="Path_287" data-name="Path 287" d="M1512.792,1188.506c.214,0,.429,0,.643,0a.187.187,0,0,1,.185.113q1.162,2.214,2.327,4.427l.443.842a.45.45,0,0,0,.035.059.161.161,0,0,0,.259,0,.448.448,0,0,0,.037-.065l2.736-5.208.042-.079a.16.16,0,0,1,.15-.089c.45,0,.9,0,1.349,0a.125.125,0,0,1,.108.193c-.137.253-.271.506-.407.76l-3.3,6.173-.687,1.286a.2.2,0,0,1-.085.095.16.16,0,0,1-.212-.068c-.048-.083-.091-.168-.136-.253l-3.807-7.126q-.228-.425-.454-.851a.228.228,0,0,1-.028-.09.11.11,0,0,1,.1-.116.578.578,0,0,1,.062,0Z" transform="translate(-1320.144 -100.979)" fill="#f4f4f4" fill-rule="evenodd"/>
      <path id="Path_288" data-name="Path 288" d="M2123.4,1094.812c-.212,0-.425,0-.637,0a.2.2,0,0,1-.2-.122q-1.347-2.565-2.7-5.129c-.025-.048-.052-.1-.076-.145a.168.168,0,0,0-.159-.109.171.171,0,0,0-.153.108q-.271.519-.544,1.036l-2.224,4.234a.022.022,0,0,0,0,.006.188.188,0,0,1-.2.123c-.167,0-.333,0-.5,0h-.774c-.021,0-.041,0-.062,0a.118.118,0,0,1-.1-.169c.008-.019.019-.037.028-.055l2.563-4.8,1.8-3.373a.515.515,0,0,1,.034-.059.16.16,0,0,1,.263,0,.605.605,0,0,1,.03.054l2.656,4.972q.855,1.6,1.708,3.2a.51.51,0,0,1,.033.068.116.116,0,0,1-.1.159.615.615,0,0,1-.062,0Z" transform="translate(-1915.93)" fill="#f4f4f4" fill-rule="evenodd"/>
    </g>
  </g>
</svg>
