<svg xmlns="http://www.w3.org/2000/svg" width="39" height="39" viewBox="0 0 39 39">
  <g id="Group_412" data-name="Group 412" transform="translate(-977 -604)">
    <g id="Group_407" data-name="Group 407">
      <circle id="Ellipse_28" data-name="Ellipse 28" cx="19.5" cy="19.5" r="19.5" transform="translate(977 604)" fill="#072d9d"/>
    </g>
    <g id="Group_272" data-name="Group 272" transform="translate(542.957 -20.941)">
      <path id="Path_95" data-name="Path 95" d="M96.949.78a4.132,4.132,0,0,1,3.564-.653c.457.117.966.326,1.07.77a4.366,4.366,0,0,1-.235,1.07,2.917,2.917,0,0,0-2.167-.509,2.385,2.385,0,0,0-1.7,1.4,3.06,3.06,0,0,0-.2,2.415,1.569,1.569,0,0,0,1.044.914,2.587,2.587,0,0,0,2.219-.522c-.117.457-.17.927-.326,1.384-.144.379-.627.509-1.031.574a3.692,3.692,0,0,1-3.055-.744,3.275,3.275,0,0,1-.875-2.611A4.727,4.727,0,0,1,96.949.78Z" transform="translate(355.175 640.158)" fill="#fff"/>
      <g id="Group_68" data-name="Group 68" transform="translate(443.727 640.258)">
        <path id="Path_96" data-name="Path 96" d="M45.145,1.072A13.207,13.207,0,0,1,47.534.889a3.425,3.425,0,0,1,2.062.64,1.489,1.489,0,0,1,.144,2.1,2.348,2.348,0,0,1-1.292.744,1.74,1.74,0,0,1,1.005.718,2.017,2.017,0,0,1-.587,2.558,4.185,4.185,0,0,1-2.35.744,5.97,5.97,0,0,1-1.867-.17,1,1,0,0,1-.679-.587,2.113,2.113,0,0,1,0-1.24C44.362,4.609,44.74,2.834,45.145,1.072ZM46.62,2.155c-.1.509-.235,1.018-.326,1.527-.026.144.17.209.3.183a2.2,2.2,0,0,0,1.527-.392A.739.739,0,0,0,48.03,2.26,3.026,3.026,0,0,0,46.62,2.155Zm-.627,2.859c-.144.483-.222.979-.339,1.475-.039.209-.157.444.026.627a3.294,3.294,0,0,0,1.671-.248.976.976,0,0,0,.3-1.553A2.749,2.749,0,0,0,45.993,5.014Z" transform="translate(-43.876 -0.887)" fill="#fff"/>
      </g>
      <g id="Group_69" data-name="Group 69" transform="translate(456.327 640.296)">
        <path id="Path_97" data-name="Path 97" d="M142.006,1.366a6.9,6.9,0,0,1,1.723-.183,4.857,4.857,0,0,1,2.337.379,1.7,1.7,0,0,1,.927,1.305,2.877,2.877,0,0,1-1.684,2.976,5.258,5.258,0,0,1-2.624.365c-.144.574-.248,1.162-.392,1.736a.938.938,0,0,1-.666.692c-.4.039-.822,0-1.227.013C140.961,6.222,141.457,3.781,142.006,1.366Zm1.606,1.1c-.157.7-.313,1.41-.457,2.1-.052.144.065.274.209.339a2.264,2.264,0,0,0,1.279-.183,1.44,1.44,0,0,0,.692-1.88C144.982,2.332,144.186,2.423,143.611,2.463Z" transform="translate(-140.4 -1.181)" fill="#fff"/>
      </g>
      <path id="Path_98" data-name="Path 98" d="M197.2,6.161a2.266,2.266,0,0,1,1.214-1.292.8.8,0,0,1,.835.261,3.3,3.3,0,0,1-.013,2.519A6.464,6.464,0,0,0,197.2,6.161Z" transform="translate(266.541 635.939)" fill="#fff"/>
      <path id="Path_99" data-name="Path 99" d="M193.933,7.1a5.325,5.325,0,0,1,1.7,1.436,1.943,1.943,0,0,1,.561,1.449,2.262,2.262,0,0,1-.613,1.2,9.388,9.388,0,0,1-2.18,1.788,1.5,1.5,0,0,1-1.149.248,1.8,1.8,0,0,1-1.149-1.005,5.577,5.577,0,0,0,2.82-2.611A3.212,3.212,0,0,0,193.933,7.1Z" transform="translate(271.845 633.969)" fill="#f57d31"/>
      <path id="Path_100" data-name="Path 100" d="M6,6.161A2.266,2.266,0,0,1,7.214,4.868a.8.8,0,0,1,.835.261,3.3,3.3,0,0,1-.013,2.519A6.464,6.464,0,0,0,6,6.161Z" transform="translate(432.783 635.939)" fill="#fff"/>
      <path id="Path_101" data-name="Path 101" d="M2.833,7.1a5.325,5.325,0,0,1,1.7,1.436,1.944,1.944,0,0,1,.561,1.449,2.262,2.262,0,0,1-.614,1.2A9.389,9.389,0,0,1,2.3,12.974a1.5,1.5,0,0,1-1.149.248A1.8,1.8,0,0,1,0,12.217,5.577,5.577,0,0,0,2.82,9.606,3.33,3.33,0,0,0,2.833,7.1Z" transform="translate(438 633.969)" fill="#f57d31"/>
    </g>
  </g>
</svg>
