<svg xmlns="http://www.w3.org/2000/svg" width="39" height="39" viewBox="0 0 39 39">
  <g id="Group_411" data-name="Group 411" transform="translate(-1201 -605)">
    <circle id="Ellipse_35" data-name="Ellipse 35" cx="19.5" cy="19.5" r="19.5" transform="translate(1201 605)" fill="#f4f4f4"/>
    <g id="Group_275" data-name="Group 275" transform="translate(1209 614.014)">
      <path id="Path_111" data-name="Path 111" d="M3.685,1.239c4.486-2.5,9.955-1,10.572,2.234C14.991,7.309,10.322,12.845,0,16.263a28.863,28.863,0,0,0,6.053-5.069C9.338,7.409,11.222,1.122,3.685,1.239Z" transform="translate(0 0)" fill="#bf0811" fill-rule="evenodd"/>
      <path id="Path_112" data-name="Path 112" d="M57.885,41.676c4.486-2.485,9.955-1,10.572,2.234.734,3.835-3.935,9.371-14.257,12.79a28.863,28.863,0,0,0,6.053-5.069c3.285-3.8,5.169-10.088-2.368-9.955Z" transform="translate(-45.162 -33.7)" fill="#bf0811" fill-rule="evenodd"/>
    </g>
  </g>
</svg>
