<svg xmlns="http://www.w3.org/2000/svg" width="39" height="39" viewBox="0 0 39 39">
  <g id="Group_408" data-name="Group 408" transform="translate(-1034 -604)">
    <circle id="Ellipse_32" data-name="Ellipse 32" cx="19.5" cy="19.5" r="19.5" transform="translate(1034 604)" fill="#fc2b1e"/>
    <g id="Group_273" data-name="Group 273" transform="translate(1041.738 611.498)">
      <path id="Path_106" data-name="Path 106" d="M59.872,44.75a7.516,7.516,0,0,1-.9-3.9A7.761,7.761,0,0,1,66.486,33.4l11.976.032-4.655,4.607-7.417-.016a6.977,6.977,0,0,0-6.518,6.726m4.575-3.307a6.547,6.547,0,0,1,2.2-2.874,6.4,6.4,0,0,0-5.185,2.858Zm2.408-2.3a7.864,7.864,0,0,0-1.814,2.3l3.6.016A7.826,7.826,0,0,0,66.855,39.147Zm-5.7,2.89a6.334,6.334,0,0,0-.755,2.585l3.355.016a7.682,7.682,0,0,1,.466-2.585Zm3.66.016a9.6,9.6,0,0,0-.53,2.585l5.089.016a9.719,9.719,0,0,0-.514-2.585Zm7.352-.594a6.167,6.167,0,0,0-5.089-2.89,7.54,7.54,0,0,1,2.167,2.874Zm-2.7.594a7.225,7.225,0,0,1,.433,2.585l3.355.016a5.654,5.654,0,0,0-.738-2.585Zm-8.027,6.181a6.156,6.156,0,0,0,5.169,2.89,6.829,6.829,0,0,1-2.183-2.89Zm5.378,2.36a8.371,8.371,0,0,0,1.8-2.36l-3.6-.016A7.689,7.689,0,0,0,66.823,50.593Zm-2.6-2.874a8.549,8.549,0,0,1-.466-2.585L60.4,45.119A6.608,6.608,0,0,0,61.14,47.7Zm4.623.016a10,10,0,0,0,.53-2.585l-5.089-.016A10.852,10.852,0,0,0,64.8,47.72Zm.385.514a7.837,7.837,0,0,1-2.183,2.874,6,6,0,0,0,5.1-2.874Zm3.275-.514a5.845,5.845,0,0,0,.755-2.569L69.9,45.151a8.117,8.117,0,0,1-.449,2.585Zm1.284-2.874A6.941,6.941,0,0,1,67.272,51.7l-7.4-.016L55.2,56.244l11.976.032a7.72,7.72,0,0,0,7.513-7.417,7.363,7.363,0,0,0-.9-3.9Z" transform="translate(-55.2 -33.4)" fill="#fff"/>
    </g>
  </g>
</svg>
