<svg width="98" height="26" viewBox="0 0 98 26" fill="none" xmlns="http://www.w3.org/2000/svg">
<path fill-rule="evenodd" clip-rule="evenodd" d="M18.1356 17.1653C18.2448 16.5306 18.3768 15.873 18.486 15.2383C18.6412 14.5185 18.508 13.7666 18.1149 13.144C17.7219 12.5214 17.1003 12.0778 16.3838 11.9084C15.113 11.6241 13.8234 11.5365 12.5283 11.3384C11.3546 11.2392 10.1903 11.0486 9.0462 10.7684C8.20813 10.5909 7.44843 10.1509 6.8773 9.51244C6.30616 8.87395 5.95332 8.07009 5.86995 7.2175C5.81251 6.76569 5.8532 6.3068 5.98925 5.87215C6.1253 5.4375 6.3535 5.0373 6.65828 4.69887C8.05977 3.23135 9.50572 1.7854 10.9301 0.339447C11.0441 0.228022 11.1793 0.140602 11.3276 0.0823648C11.476 0.0241272 11.6345 -0.0037435 11.7939 0.00040325C11.9532 0.00455 12.1101 0.0406299 12.2552 0.106506C12.4004 0.172382 12.5308 0.266715 12.6388 0.383917C14.0848 1.80831 15.5523 3.23135 16.9754 4.65575C17.9389 5.59905 18.862 6.58279 19.8053 7.54765C20.7028 8.44514 21.6447 9.27795 22.5004 10.1983C22.8724 10.5932 23.3979 10.8991 23.4855 11.5567C23.5947 12.4326 22.9384 12.8046 22.456 13.287C21.4709 14.2505 20.4629 15.1925 19.4549 16.1344C19.0601 16.5064 18.6464 16.8796 18.2502 17.2516C18.2017 17.2314 18.1787 17.1896 18.1356 17.1653Z" fill="#8E8E8E"/>
<path fill-rule="evenodd" clip-rule="evenodd" d="M5.41033 8.66754C5.30764 9.10838 5.22713 9.55409 5.16911 10.003C5.10661 10.5776 5.07737 11.1553 5.08152 11.7333C5.13805 12.3499 5.3961 12.9307 5.81579 13.3859C6.23547 13.8412 6.79342 14.1455 7.4034 14.2519C8.94701 14.6128 10.528 14.7892 12.1132 14.7775C13.4667 14.8022 14.7865 15.204 15.9241 15.9377C16.4629 16.2738 16.9106 16.7375 17.2277 17.2877C17.5448 17.8379 17.7214 18.4577 17.742 19.0924C17.7404 19.9291 17.4098 20.7316 16.8216 21.3267C16.164 22.049 15.4862 22.7498 14.7841 23.4518C14.0389 24.1971 13.2721 24.9409 12.5282 25.6861C12.3091 25.8322 12.0533 25.9138 11.7901 25.9216C11.5268 25.9295 11.2667 25.8633 11.0392 25.7306C10.2064 24.9423 9.42207 24.1135 8.58657 23.305C7.92895 22.6473 7.27268 21.9695 6.61506 21.3119L3.65847 18.3486C2.73808 17.4268 1.79612 16.5091 0.854158 15.5887C0.61827 15.3641 0.39894 15.1227 0.197886 14.8664C0.0587199 14.6762 -0.0106894 14.4439 0.00133672 14.2085C0.0133628 13.9732 0.10609 13.7491 0.263918 13.5741C0.68032 13.1146 1.13985 12.6766 1.57781 12.2602C2.82567 11.0932 4.07488 9.93831 5.41033 8.66754Z" fill="#5C5C5C"/>
<path fill-rule="evenodd" clip-rule="evenodd" d="M56.7734 12.9609V7.90075C56.7734 7.15553 56.9485 6.93723 57.6938 6.80516C58.001 6.73913 58.3069 6.69601 58.6142 6.65154C59.2189 6.59447 59.8277 6.70288 60.3756 6.96518C60.9234 7.22747 61.3896 7.63377 61.7244 8.14061C62.5787 9.19173 63.5423 10.1782 64.4627 11.1848C64.8575 11.6228 65.2294 12.0823 65.6458 12.4987C65.7806 12.6334 66.0838 12.7682 66.2159 12.6954C66.3695 12.6294 66.4854 12.3235 66.4854 12.1254C66.507 10.7455 66.4854 9.34401 66.5069 7.96408C66.5069 7.10972 66.6821 6.95609 67.515 6.78091C68.1433 6.6495 68.792 6.6495 69.4204 6.78091C70.1656 6.93453 70.3839 7.15284 70.3839 7.89805V17.9079C70.3839 18.7838 70.1144 19.1557 69.2452 19.2002C68.5262 19.2254 67.8066 19.1739 67.0985 19.0466C66.8364 18.9806 66.601 18.8351 66.4247 18.6302C64.8252 16.8783 63.2485 15.1036 61.6503 13.3301C61.6058 13.2857 61.5842 13.2426 61.5411 13.221C61.3444 13.1334 61.0587 12.9137 60.9711 12.9798C60.8867 13.0545 60.8181 13.1454 60.7693 13.2469C60.7205 13.3485 60.6924 13.4588 60.6867 13.5714C60.6652 15.0173 60.6652 16.4848 60.6652 17.9308C60.6652 18.7852 60.5776 19.0089 59.7448 19.114C58.9856 19.1792 58.2215 19.1571 57.4674 19.0479C56.8758 19.0035 56.8098 18.5439 56.8098 18.0629V13.8584C56.7882 13.5741 56.7882 13.2668 56.7882 12.9609H56.7734Z" fill="#8E8E8E"/>
<path fill-rule="evenodd" clip-rule="evenodd" d="M33.1018 19.4872C30.882 19.5054 28.6822 19.0655 26.6402 18.1949C26.4405 18.1476 26.2596 18.0416 26.1207 17.8906C25.9818 17.7396 25.8912 17.5505 25.8606 17.3477C25.83 17.1448 25.8608 16.9374 25.9491 16.7522C26.0373 16.5669 26.179 16.4124 26.3558 16.3083C26.4196 16.2555 26.4782 16.1969 26.531 16.1331C26.6376 15.9568 26.78 15.8048 26.9489 15.6868C27.1179 15.5689 27.3097 15.4877 27.5119 15.4485C27.7142 15.4092 27.9225 15.4128 28.1232 15.459C28.324 15.5052 28.5129 15.593 28.6777 15.7167C30.01 16.3969 31.4953 16.7218 32.99 16.66C33.3968 16.6382 33.797 16.5471 34.1731 16.3905C34.2887 16.3292 34.3884 16.242 34.4644 16.1355C34.5404 16.0291 34.5906 15.9065 34.6111 15.7773C34.6007 15.6399 34.5574 15.507 34.485 15.3897C34.4125 15.2725 34.313 15.1743 34.1947 15.1036C33.2393 14.7916 32.2665 14.5355 31.2812 14.3368C29.9965 14.148 28.7482 13.764 27.5794 13.1981C27.1156 12.9471 26.7246 12.5804 26.4442 12.1337C26.1639 11.687 26.0039 11.1754 25.9796 10.6486C25.9553 10.1217 26.0677 9.59758 26.3057 9.12698C26.5438 8.65638 26.8994 8.25532 27.3382 7.96273C28.814 6.936 30.611 6.47705 32.3984 6.6704C33.6275 6.74349 34.8497 6.90472 36.0557 7.15284C36.6065 7.27466 37.1374 7.47383 37.6324 7.74442C37.8519 7.90804 37.9981 8.15161 38.0392 8.42229C38.0803 8.69297 38.013 8.96895 37.852 9.19038C37.5781 9.56213 37.2615 9.90044 36.9087 10.1984C36.6955 10.341 36.4455 10.419 36.1889 10.4228C35.9324 10.4267 35.6802 10.3562 35.4628 10.2199C34.1499 9.58617 32.6826 9.34294 31.2354 9.51919C31.0256 9.53976 30.8289 9.63094 30.6776 9.77782C30.5263 9.9247 30.4294 10.1186 30.4026 10.3277C30.4089 10.5181 30.4829 10.6999 30.6114 10.8405C30.7399 10.9811 30.9143 11.0712 31.1033 11.0945C32.3081 11.3788 33.5128 11.6201 34.7176 11.9031C35.9143 12.127 37.054 12.5889 38.069 13.2614C38.4593 13.6455 38.7462 14.122 38.9031 14.6467C39.06 15.1714 39.0818 15.7271 38.9665 16.2625C38.7604 16.9354 38.3773 17.5407 37.8571 18.0148C37.337 18.4889 36.699 18.8146 36.0099 18.9576C35.0546 19.2041 34.0827 19.3811 33.1018 19.4872Z" fill="#8E8E8E"/>
<path fill-rule="evenodd" clip-rule="evenodd" d="M50.3562 10.9045V7.83607C50.3562 7.17845 50.5759 6.98171 51.189 6.82808C51.9596 6.638 52.7656 6.64541 53.5325 6.84964C54.0796 6.9844 54.3208 7.20002 54.3208 7.77004C54.2993 10.158 54.4084 12.5445 54.2117 14.8893C54.1436 15.8474 53.7744 16.7594 53.1567 17.495C52.539 18.2305 51.7046 18.7519 50.7727 18.9846C49.5363 19.4173 48.222 19.5817 46.9172 19.467C45.4581 19.4278 44.0393 18.9801 42.8219 18.1747C42.2505 17.75 41.7851 17.1988 41.462 16.5644C41.1389 15.9299 40.967 15.2293 40.9596 14.5174C40.872 12.2615 40.9151 9.98277 40.9151 7.72692C40.9027 7.51671 40.9703 7.30958 41.1042 7.14711C41.2382 6.98465 41.4287 6.87886 41.6374 6.85099C42.4413 6.64678 43.2826 6.63939 44.09 6.82943C44.7247 6.98306 44.8985 7.15824 44.8985 7.81451C44.8985 9.71999 44.877 11.6039 44.9201 13.5094C44.9208 14.099 45.0476 14.6816 45.292 15.2181C45.6987 15.7933 46.3003 16.2013 46.9851 16.3664C47.6699 16.5314 48.3914 16.4423 49.0154 16.1156C49.4458 15.902 49.8027 15.565 50.0406 15.1476C50.2784 14.7301 50.3865 14.2513 50.3509 13.7722V10.9045H50.3562Z" fill="#8E8E8E"/>
<path fill-rule="evenodd" clip-rule="evenodd" d="M85.1603 19.2905C84.9851 19.2905 84.7883 19.269 84.6131 19.269C84.2388 19.3108 83.8622 19.2133 83.5552 18.995C83.2482 18.7768 83.0324 18.4531 82.9489 18.0858C82.8926 17.9288 82.8269 17.7754 82.7521 17.6263C82.6708 17.3818 82.5045 17.1745 82.2835 17.042C82.0625 16.9095 81.8014 16.8605 81.5474 16.904C80.1459 16.9484 78.7431 16.9255 77.3416 16.904C77.1552 16.888 76.9692 16.9386 76.8166 17.047C76.6641 17.1553 76.555 17.3143 76.5088 17.4956C76.3636 17.9169 76.1724 18.3209 75.9387 18.7003C75.7577 18.9128 75.5112 19.0593 75.238 19.1167C74.4276 19.3543 73.5639 19.3388 72.7625 19.0722C72.6337 19.0386 72.5146 18.9752 72.4149 18.887C72.3152 18.7987 72.2376 18.6883 72.1885 18.5645C72.1394 18.4408 72.1202 18.3072 72.1324 18.1746C72.1445 18.0421 72.1878 17.9142 72.2585 17.8015C73.0253 16.2248 73.7921 14.6252 74.5804 13.0486C75.4563 11.2738 76.3552 9.52193 77.2311 7.77008C77.8011 6.63137 78.4803 6.41172 79.9909 6.49931C80.5377 6.50638 81.0671 6.69227 81.4983 7.02856C81.9295 7.36486 82.2388 7.83307 82.3789 8.36166C82.992 9.87365 83.8248 11.3183 84.5471 12.7858C85.3354 14.3854 86.1238 15.962 86.9121 17.5602C87.3501 18.4577 87.0213 19.0722 86.0362 19.2029C85.7485 19.2657 85.4546 19.295 85.1603 19.2905ZM79.619 14.3624C79.947 14.3843 80.2761 14.3843 80.6041 14.3624C80.9113 14.318 81.1512 14.1428 80.9989 13.7924C80.6701 13.0256 80.3413 12.2804 79.9694 11.5581C79.9448 11.483 79.8977 11.4173 79.8344 11.37C79.7711 11.3226 79.6948 11.296 79.6158 11.2936C79.5368 11.2913 79.459 11.3133 79.393 11.3568C79.327 11.4003 79.2761 11.4631 79.2471 11.5366C78.8751 12.2818 78.5248 13.0256 78.2175 13.7709C78.0828 14.0997 78.2175 14.3409 78.5894 14.3624C78.9358 14.384 79.2686 14.3624 79.619 14.3624Z" fill="#8E8E8E"/>
<path fill-rule="evenodd" clip-rule="evenodd" d="M91.6664 6.80511H96.7292C97.7372 6.80511 97.9771 7.04633 98 8.07588C98 8.3171 98 8.53541 97.9785 8.77663C97.9803 8.90171 97.9552 9.02572 97.9048 9.14022C97.8544 9.25472 97.78 9.35702 97.6865 9.44015C97.593 9.52327 97.4827 9.58527 97.3631 9.62193C97.2435 9.65858 97.1174 9.66902 96.9933 9.65255C96.139 9.65255 95.2846 9.67412 94.4087 9.67412C93.7349 9.67412 93.5543 9.8493 93.5543 10.5069C93.5543 12.9164 93.5099 15.3259 93.5543 17.7353C93.5759 19.1153 93.2471 19.0937 92.196 19.2473C91.5555 19.298 90.911 19.2387 90.2905 19.0721C89.8081 18.963 89.6167 18.5681 89.6167 18.0426C89.6383 15.5455 89.6167 13.0485 89.6167 10.5514C89.6167 9.71858 89.5507 9.6539 88.7192 9.6539H86.3973C85.675 9.6539 85.3893 9.43424 85.3017 8.7335C85.2613 8.30982 85.2758 7.8827 85.3449 7.46274C85.4325 6.95874 85.8489 6.80512 86.3084 6.82802H90.0318C90.6018 6.80646 91.1273 6.80646 91.6745 6.80646L91.6664 6.80511Z" fill="#8E8E8E"/>
</svg>
