<svg width="68" height="24" viewBox="0 0 68 24" fill="none" xmlns="http://www.w3.org/2000/svg">
<path d="M24.9456 7.2257C24.4207 5.9136 23.411 4.26389 20.9931 3.19542C18.5981 2.05405 15.3353 1.81427 12.4537 2.57198C9.5511 3.28174 7.0259 4.98708 5.57362 6.64062C4.05237 8.27499 3.60404 9.85947 3.24768 9.85564C3.33007 10.1434 3.12889 8.46298 4.46813 6.38933C5.70008 4.32336 8.47435 1.86606 12.0169 0.753467C15.5135 -0.420511 19.7822 -0.253622 22.9914 1.47282C26.2216 3.0669 28.3675 5.90401 28.3502 7.85105C28.3617 9.24563 27.354 9.71369 26.3481 9.22069C26.0128 9.03462 25.4361 8.38433 24.9456 7.2257Z" fill="url(#paint0_linear)"/>
<path d="M3.40472 16.7748C3.92968 18.0869 4.93938 19.7366 7.35729 20.8051C9.7522 21.9465 13.015 22.1863 15.8966 21.4285C18.8012 20.7188 21.3264 19.0134 22.7767 17.358C24.298 15.7236 24.7463 14.1391 25.1027 14.143C25.0203 13.8552 25.2215 15.5356 23.8822 17.6093C22.6503 19.6753 19.876 22.1325 16.3334 23.2451C12.8349 24.421 8.56816 24.2541 5.35897 22.5258C2.13062 20.9336 -0.0171403 18.0946 0.000103071 16.1476C-0.0113925 14.753 0.996388 14.2849 2.00225 14.7779C2.33754 14.964 2.91424 15.6162 3.40472 16.7748Z" fill="url(#paint1_linear)"/>
<path d="M22.5927 4.15265H21.5198C21.2458 4.15265 20.9834 4.26007 20.7899 4.45382L17.2856 7.94122C16.5595 8.66441 15.339 8.00644 15.5421 7.00127L15.8659 5.39377C15.9962 4.75115 15.5057 4.15265 14.8524 4.15265H14.1856H12.81H4.79947C4.3224 4.15265 3.90664 4.47875 3.7936 4.94297L3.55986 5.90403C3.40084 6.55624 3.89515 7.18543 4.56573 7.18543H5.4164C6.08506 7.18543 6.57746 7.80886 6.42418 8.46107L4.1538 18.0428C4.00052 18.6931 4.49292 19.3185 5.16158 19.3185H6.47783C6.96064 19.3185 7.38023 18.9847 7.48752 18.5128L9.87669 7.99302C9.98398 7.52112 10.4036 7.18735 10.8864 7.18735C11.5455 7.18735 12.0359 7.79543 11.898 8.43997L9.84795 18.0677C9.71001 18.7123 10.2024 19.3204 10.8596 19.3204H12.1892C12.6797 19.3204 13.105 18.9751 13.2028 18.4917L13.8523 15.3265C14.0381 14.423 15.2202 14.1948 15.728 14.9621L18.3068 18.8562C18.4984 19.1458 18.8222 19.3204 19.169 19.3204H21.3991C22.2325 19.3204 22.7249 18.3843 22.2517 17.6956L18.3681 12.054C18.0846 11.6416 18.1363 11.0853 18.4907 10.7304L23.3208 5.92321C23.978 5.27292 23.5162 4.15265 22.5927 4.15265Z" fill="#33B6FF"/>
<path d="M26.417 17.381C26.4381 17.1604 26.1928 17.0204 26.0108 17.147C25.2406 17.6841 24.5547 17.9718 23.5929 17.9718C21.9529 17.9718 21.2881 16.9264 21.8034 15.4014C22.5392 13.226 24.0125 12.5393 25.4035 12.1461C26.7734 11.7528 28.0532 11.632 28.3885 10.6038C28.5609 10.0724 28.3904 9.61012 27.8176 9.61012C27.2983 9.61012 26.9822 9.78084 26.7561 10.0532C26.1871 10.7381 25.3173 11.1006 24.4264 11.1006H23.7347C23.5584 11.1006 23.4301 10.9241 23.4914 10.7572C23.8592 9.74248 24.4666 9.02504 25.254 8.5474C26.1258 8.01604 27.1796 7.79352 28.3195 7.79352C31.1168 7.79352 31.8698 8.61645 31.1973 10.7246L29.3139 16.6022C29.2258 16.8727 29.2009 17.1451 29.2009 17.4079C29.2009 17.5498 29.084 17.6649 28.9441 17.6649H26.6699C26.5224 17.663 26.4036 17.5326 26.417 17.381ZM27.4344 13.5311C27.5014 13.3239 27.2983 13.1321 27.0972 13.2107C26.6488 13.3833 26.2618 13.5176 25.9342 13.7056C25.4935 13.9454 25.0739 14.2888 24.8574 14.9391C24.6582 15.5395 24.8977 15.9672 25.5855 15.9672C26.4381 15.9672 26.8941 15.127 27.1144 14.5113L27.4344 13.5311Z" fill="#33B6FF"/>
<path d="M34.9122 8.06781C35.4908 8.06781 35.9028 8.62794 35.7323 9.18232H35.7687C36.5025 8.30759 37.5371 7.84529 38.3188 7.7935C39.2422 7.74171 39.9607 8.2558 40.0393 9.06147H40.0757C40.8497 8.20401 41.7215 7.7935 42.5223 7.7935C43.8577 7.7935 44.8483 8.49558 44.4708 9.79809L42.3556 17.0453C42.2484 17.4117 41.9131 17.663 41.5318 17.663H40.432C39.8573 17.663 39.4453 17.1086 39.6101 16.5581L41.3134 10.8474C41.321 10.8205 41.3287 10.7956 41.3325 10.7687C41.4168 10.341 41.3364 9.98799 40.8056 10.0206C40.2998 10.0379 39.9492 10.3122 39.7998 10.809L37.9164 17.053C37.8072 17.4155 37.4738 17.663 37.0945 17.663H36.0005C35.4238 17.663 35.0099 17.1028 35.1805 16.5504L36.9201 10.8992C36.9393 10.8359 36.9527 10.7706 36.9565 10.7035C36.9814 10.3352 36.9508 10.0206 36.5101 10.0206C35.9373 10.0206 35.6192 10.2949 35.4238 10.809L33.4772 17.0606C33.3661 17.4194 33.0327 17.6649 32.6572 17.6649H31.567C30.9865 17.6649 30.5726 17.099 30.7489 16.5465L33.2473 8.66823C33.3603 8.31143 33.6918 8.06973 34.0654 8.06973H34.9122V8.06781Z" fill="#33B6FF"/>
<path d="M49.1016 8.8543H49.138C49.8144 8.03137 50.7359 7.79158 51.5559 7.79158C53.4259 7.79158 53.4968 9.57365 53.0868 11.0814L52.1825 14.4058C51.7437 16.0152 50.8317 17.8567 48.7529 17.9661C48.7031 17.968 48.6514 17.968 48.6016 17.9661C47.7145 17.9085 46.9769 17.4309 46.7623 16.5638H46.7259L46.6818 16.7192C46.5247 17.2755 46.017 17.6591 45.4384 17.6591C44.5781 17.6591 43.9573 16.8343 44.1968 16.0056L47.1512 5.74288C47.3102 5.1885 47.818 4.80676 48.3927 4.80676H48.5288C49.3852 4.80676 50.004 5.62586 49.7741 6.45072L49.1016 8.8543ZM50.0922 11.5974C50.2493 11.0315 50.5252 10.0379 49.7013 10.0379C48.9311 10.0379 48.5575 10.7918 48.2969 11.7164L47.6589 13.978C47.4271 14.8009 47.3371 15.7601 48.0479 15.7428C48.9733 15.7428 49.2281 14.6973 49.4005 14.0797L50.0922 11.5974Z" fill="#33B6FF"/>
<path d="M56.2557 5.66999C56.3898 5.16357 56.8477 4.81061 57.3727 4.81061H57.8057C58.5625 4.81061 59.1143 5.52612 58.9246 6.2589C58.7924 6.76916 58.3326 7.12404 57.8057 7.12404H57.3727C56.614 7.12404 56.0603 6.40469 56.2557 5.66999ZM53.4355 16.207L55.3878 8.92337C55.5238 8.41887 55.9817 8.0659 56.5029 8.0659H56.955C57.7118 8.0659 58.2636 8.78334 58.072 9.51611L56.1638 16.7998C56.0296 17.3081 55.5717 17.663 55.0468 17.663H54.5505C53.7899 17.663 53.2381 16.9417 53.4355 16.207Z" fill="#33B6FF"/>
<path d="M59.4782 11.0833C60.1123 8.61645 61.8386 7.79352 64.0304 7.79352C66.525 7.79352 67.4638 8.92529 66.9446 11.0833L66.0038 14.9813C66.0019 14.987 66 14.9947 65.9981 15.0004C65.3237 17.17 63.6894 17.9718 61.488 17.9718C59.4111 17.9718 57.9033 17.1834 58.4704 14.9909L59.4782 11.0833ZM61.3079 15.1462C61.306 15.1558 61.3041 15.1654 61.3021 15.175C61.2236 15.714 61.3884 15.9999 61.9804 15.9999C62.5743 15.9999 62.8828 15.714 63.0725 15.175C63.0763 15.1654 63.0782 15.1558 63.0801 15.1462L64.1377 10.8762C64.291 10.2585 64.199 9.76166 63.5361 9.76166C62.8732 9.76166 62.5341 10.2585 62.3789 10.8762L61.3079 15.1462Z" fill="#33B6FF"/>
<path d="M22.5927 4.15265H21.5198C21.2458 4.15265 20.9834 4.26007 20.7899 4.45382L17.2856 7.94122C16.5595 8.66441 15.339 8.00644 15.5421 7.00127L15.8659 5.39377C15.9962 4.75115 15.5057 4.15265 14.8524 4.15265H14.1856H12.81H4.79947C4.3224 4.15265 3.90664 4.47875 3.7936 4.94297L3.55986 5.90403C3.40084 6.55624 3.89515 7.18543 4.56573 7.18543H5.4164C6.08506 7.18543 6.57746 7.80886 6.42418 8.46107L4.1538 18.0428C4.00052 18.6931 4.49292 19.3185 5.16158 19.3185H6.47783C6.96064 19.3185 7.38023 18.9847 7.48752 18.5128L9.87669 7.99302C9.98398 7.52112 10.4036 7.18735 10.8864 7.18735C11.5455 7.18735 12.0359 7.79543 11.898 8.43997L9.84795 18.0677C9.71001 18.7123 10.2024 19.3204 10.8596 19.3204H12.1892C12.6797 19.3204 13.105 18.9751 13.2028 18.4917L13.8523 15.3265C14.0381 14.423 15.2202 14.1948 15.728 14.9621L18.3068 18.8562C18.4984 19.1458 18.8222 19.3204 19.169 19.3204H21.3991C22.2325 19.3204 22.7249 18.3843 22.2517 17.6956L18.3681 12.054C18.0846 11.6416 18.1363 11.0853 18.4907 10.7304L23.3208 5.92321C23.978 5.27292 23.5162 4.15265 22.5927 4.15265Z" fill="url(#paint2_linear)"/>
<path d="M26.417 17.381C26.4381 17.1604 26.1928 17.0204 26.0108 17.147C25.2406 17.6841 24.5547 17.9718 23.5929 17.9718C21.9529 17.9718 21.2881 16.9264 21.8034 15.4014C22.5392 13.226 24.0125 12.5393 25.4035 12.1461C26.7734 11.7528 28.0532 11.632 28.3885 10.6038C28.5609 10.0724 28.3904 9.61012 27.8176 9.61012C27.2983 9.61012 26.9822 9.78084 26.7561 10.0532C26.1871 10.7381 25.3173 11.1006 24.4264 11.1006H23.7347C23.5584 11.1006 23.4301 10.9241 23.4914 10.7572C23.8592 9.74248 24.4666 9.02504 25.254 8.5474C26.1258 8.01604 27.1796 7.79352 28.3195 7.79352C31.1168 7.79352 31.8698 8.61645 31.1973 10.7246L29.3139 16.6022C29.2258 16.8727 29.2009 17.1451 29.2009 17.4079C29.2009 17.5498 29.084 17.6649 28.9441 17.6649H26.6699C26.5224 17.663 26.4036 17.5326 26.417 17.381ZM27.4344 13.5311C27.5014 13.3239 27.2983 13.1321 27.0972 13.2107C26.6488 13.3833 26.2618 13.5176 25.9342 13.7056C25.4935 13.9454 25.0739 14.2888 24.8574 14.9391C24.6582 15.5395 24.8977 15.9672 25.5855 15.9672C26.4381 15.9672 26.8941 15.127 27.1144 14.5113L27.4344 13.5311Z" fill="url(#paint3_linear)"/>
<path d="M34.9122 8.06781C35.4908 8.06781 35.9028 8.62794 35.7323 9.18232H35.7687C36.5025 8.30759 37.5371 7.84529 38.3188 7.7935C39.2422 7.74171 39.9607 8.2558 40.0393 9.06147H40.0757C40.8497 8.20401 41.7215 7.7935 42.5223 7.7935C43.8577 7.7935 44.8483 8.49558 44.4708 9.79809L42.3556 17.0453C42.2484 17.4117 41.9131 17.663 41.5318 17.663H40.432C39.8573 17.663 39.4453 17.1086 39.6101 16.5581L41.3134 10.8474C41.321 10.8205 41.3287 10.7956 41.3325 10.7687C41.4168 10.341 41.3364 9.98799 40.8056 10.0206C40.2998 10.0379 39.9492 10.3122 39.7998 10.809L37.9164 17.053C37.8072 17.4155 37.4738 17.663 37.0945 17.663H36.0005C35.4238 17.663 35.0099 17.1028 35.1805 16.5504L36.9201 10.8992C36.9393 10.8359 36.9527 10.7706 36.9565 10.7035C36.9814 10.3352 36.9508 10.0206 36.5101 10.0206C35.9373 10.0206 35.6192 10.2949 35.4238 10.809L33.4772 17.0606C33.3661 17.4194 33.0327 17.6649 32.6572 17.6649H31.567C30.9865 17.6649 30.5726 17.099 30.7489 16.5465L33.2473 8.66823C33.3603 8.31143 33.6918 8.06973 34.0654 8.06973H34.9122V8.06781Z" fill="url(#paint4_linear)"/>
<path d="M49.1016 8.8543H49.138C49.8144 8.03137 50.7359 7.79158 51.5559 7.79158C53.4259 7.79158 53.4968 9.57365 53.0868 11.0814L52.1825 14.4058C51.7437 16.0152 50.8317 17.8567 48.7529 17.9661C48.7031 17.968 48.6514 17.968 48.6016 17.9661C47.7145 17.9085 46.9769 17.4309 46.7623 16.5638H46.7259L46.6818 16.7192C46.5247 17.2755 46.017 17.6591 45.4384 17.6591C44.5781 17.6591 43.9573 16.8343 44.1968 16.0056L47.1512 5.74288C47.3102 5.1885 47.818 4.80676 48.3927 4.80676H48.5288C49.3852 4.80676 50.004 5.62586 49.7741 6.45072L49.1016 8.8543ZM50.0922 11.5974C50.2493 11.0315 50.5252 10.0379 49.7013 10.0379C48.9311 10.0379 48.5575 10.7918 48.2969 11.7164L47.6589 13.978C47.4271 14.8009 47.3371 15.7601 48.0479 15.7428C48.9733 15.7428 49.2281 14.6973 49.4005 14.0797L50.0922 11.5974Z" fill="url(#paint5_linear)"/>
<path d="M56.2557 5.66999C56.3898 5.16357 56.8477 4.81061 57.3727 4.81061H57.8057C58.5625 4.81061 59.1143 5.52612 58.9246 6.2589C58.7924 6.76916 58.3326 7.12404 57.8057 7.12404H57.3727C56.614 7.12404 56.0603 6.40469 56.2557 5.66999ZM53.4355 16.207L55.3878 8.92337C55.5238 8.41887 55.9817 8.0659 56.5029 8.0659H56.955C57.7118 8.0659 58.2636 8.78334 58.072 9.51611L56.1638 16.7998C56.0296 17.3081 55.5717 17.663 55.0468 17.663H54.5505C53.7899 17.663 53.2381 16.9417 53.4355 16.207Z" fill="url(#paint6_linear)"/>
<path d="M59.4782 11.0833C60.1123 8.61645 61.8386 7.79352 64.0304 7.79352C66.525 7.79352 67.4638 8.92529 66.9446 11.0833L66.0038 14.9813C66.0019 14.987 66 14.9947 65.9981 15.0004C65.3237 17.17 63.6894 17.9718 61.488 17.9718C59.4111 17.9718 57.9033 17.1834 58.4704 14.9909L59.4782 11.0833ZM61.3079 15.1462C61.306 15.1558 61.3041 15.1654 61.3021 15.175C61.2236 15.714 61.3884 15.9999 61.9804 15.9999C62.5743 15.9999 62.8828 15.714 63.0725 15.175C63.0763 15.1654 63.0782 15.1558 63.0801 15.1462L64.1377 10.8762C64.291 10.2585 64.199 9.76166 63.5361 9.76166C62.8732 9.76166 62.5341 10.2585 62.3789 10.8762L61.3079 15.1462Z" fill="url(#paint7_linear)"/>
<defs>
<linearGradient id="paint0_linear" x1="3.24797" y1="4.94419" x2="28.35" y2="4.94419" gradientUnits="userSpaceOnUse">
<stop stop-color="#33B6FF" stop-opacity="0"/>
<stop offset="0.9933" stop-color="#33B6FF"/>
</linearGradient>
<linearGradient id="paint1_linear" x1="25.1022" y1="19.0556" x2="0.000101742" y2="19.0556" gradientUnits="userSpaceOnUse">
<stop stop-color="#33B6FF" stop-opacity="0"/>
<stop offset="0.9933" stop-color="#33B6FF"/>
</linearGradient>
<linearGradient id="paint2_linear" x1="13.5797" y1="15.7465" x2="13.5797" y2="-20.5752" gradientUnits="userSpaceOnUse">
<stop stop-color="white" stop-opacity="0"/>
<stop offset="1" stop-color="white"/>
</linearGradient>
<linearGradient id="paint3_linear" x1="26.5324" y1="15.7465" x2="26.5324" y2="-20.5752" gradientUnits="userSpaceOnUse">
<stop stop-color="white" stop-opacity="0"/>
<stop offset="1" stop-color="white"/>
</linearGradient>
<linearGradient id="paint4_linear" x1="37.6314" y1="15.7465" x2="37.6314" y2="-20.5752" gradientUnits="userSpaceOnUse">
<stop stop-color="white" stop-opacity="0"/>
<stop offset="1" stop-color="white"/>
</linearGradient>
<linearGradient id="paint5_linear" x1="48.7191" y1="15.7465" x2="48.7191" y2="-20.5752" gradientUnits="userSpaceOnUse">
<stop stop-color="white" stop-opacity="0"/>
<stop offset="1" stop-color="white"/>
</linearGradient>
<linearGradient id="paint6_linear" x1="56.1772" y1="15.7465" x2="56.1772" y2="-20.5752" gradientUnits="userSpaceOnUse">
<stop stop-color="white" stop-opacity="0"/>
<stop offset="1" stop-color="white"/>
</linearGradient>
<linearGradient id="paint7_linear" x1="62.7149" y1="15.7465" x2="62.7149" y2="-20.5752" gradientUnits="userSpaceOnUse">
<stop stop-color="white" stop-opacity="0"/>
<stop offset="1" stop-color="white"/>
</linearGradient>
</defs>
</svg>
