<svg width="27" height="27" viewBox="0 0 27 27" fill="none" xmlns="http://www.w3.org/2000/svg">
<path d="M13.5 1C15.9723 1 18.389 1.73311 20.4446 3.10663C22.5002 4.48015 24.1024 6.43238 25.0485 8.71646C25.9946 11.0005 26.2421 13.5139 25.7598 15.9386C25.2775 18.3634 24.087 20.5907 22.3388 22.3388C20.5907 24.087 18.3634 25.2775 15.9386 25.7598C13.5139 26.2421 11.0005 25.9946 8.71646 25.0485C6.43238 24.1024 4.48015 22.5002 3.10663 20.4446C1.73311 18.389 1 15.9723 1 13.5C1 10.1848 2.31696 7.00537 4.66116 4.66116C7.00537 2.31696 10.1848 1 13.5 1V1Z" stroke="#262103"/>
<path d="M14.9453 9.0488H17V6H14.5751V6.0136C11.6435 6.1232 11.0411 7.7736 10.9844 9.5024V11.0272H9V14.0072H10.9996V22H13.9998V14.0072H16.4654L16.9441 11.0272H14.0134V10.1072C14.0011 9.9756 14.0158 9.84288 14.0567 9.71722C14.0975 9.59155 14.1636 9.4756 14.2509 9.37652C14.3381 9.27743 14.4447 9.1973 14.564 9.14108C14.6833 9.08486 14.8128 9.05372 14.9445 9.0496L14.9453 9.0488Z" fill="#262103"/>
</svg>
