<svg width="96" height="17" viewBox="0 0 96 17" fill="none" xmlns="http://www.w3.org/2000/svg">
<path fill-rule="evenodd" clip-rule="evenodd" d="M61.9869 7.06745C62.3666 7.09454 62.7369 7.19877 63.075 7.37378C63.4131 7.54878 63.712 7.79088 63.9535 8.08528C64.1949 8.37969 64.3737 8.72022 64.4791 9.08607C64.5845 9.45193 64.6142 9.83543 64.5663 10.2131C64.6151 10.5914 64.5862 10.9756 64.4812 11.3422C64.3763 11.7088 64.1976 12.0502 63.9561 12.3453C63.7146 12.6404 63.4154 12.8831 63.0768 13.0585C62.7381 13.2339 62.3673 13.3384 61.9869 13.3654C61.6266 13.3887 61.2669 13.3124 60.9471 13.1447C60.6274 12.9771 60.3599 12.7247 60.1742 12.4151C59.7435 11.8392 59.5396 11.125 59.6014 10.4084C59.5448 9.61484 59.71 8.82113 60.0785 8.11601C60.287 7.7983 60.5703 7.53658 60.9034 7.35377C61.2366 7.17096 61.6095 7.07265 61.9895 7.06745H61.9869ZM59.5988 2.57566V6.68341C60.1064 6.12673 60.7658 5.7308 61.4957 5.54447C62.2257 5.35814 62.9942 5.38956 63.7065 5.63485C65.5219 6.11194 66.5717 7.83159 66.6674 10.2223C66.7139 10.8546 66.63 11.4897 66.4209 12.0883C66.2118 12.6868 65.882 13.236 65.4518 13.7018C65.0217 14.1675 64.5005 14.54 63.9204 14.796C63.3404 15.052 62.7139 15.186 62.0799 15.1899C61.4617 15.2194 60.8442 15.1178 60.268 14.8918C59.6918 14.6657 59.1699 14.3203 58.7367 13.8783C58.3034 13.4362 57.9686 12.9076 57.7542 12.3269C57.5397 11.7463 57.4505 11.1269 57.4925 10.5094V2.57566H59.5988ZM55.5867 5.15513H56.2552V7.35187H55.5867C55.1308 7.36562 54.6932 7.53385 54.3455 7.82897C54.0352 8.16748 53.8647 8.61101 53.8684 9.07021V15.089H51.6703V9.07152C51.7036 8.03933 52.1113 7.05449 52.8172 6.30069C53.178 5.93278 53.6094 5.64155 54.0856 5.44447C54.5617 5.24739 55.0727 5.14853 55.588 5.15382L55.5867 5.15513ZM47.0855 11.2683H43.9319C43.9319 11.3639 44.0276 11.4596 44.0276 11.5553C44.2075 12.0029 44.5081 12.3917 44.8959 12.6784C45.2838 12.9652 45.7437 13.1386 46.2243 13.1793C46.3592 13.1649 46.4948 13.1988 46.6071 13.2749H46.9898C47.7915 13.295 48.5837 13.0975 49.2822 12.7035C49.3301 13.1798 49.3301 13.6597 49.2822 14.1361C49.0909 15.0916 47.4669 15.0916 46.8941 15.0916H46.3213C46.1255 15.1066 45.9289 15.0738 45.7485 14.9959C44.6028 14.765 43.5814 14.1223 42.8774 13.1893C42.1734 12.2563 41.8356 11.0978 41.9278 9.93265C41.9298 8.96299 42.2347 8.01817 42.7999 7.23023C43.365 6.44229 44.1622 5.85061 45.0801 5.53786C45.7665 5.32554 46.4959 5.2931 47.1984 5.44366C47.901 5.59422 48.5531 5.92272 49.0922 6.39768C49.2786 6.56402 49.4394 6.75704 49.5693 6.97046C49.7514 7.15726 49.8831 7.38728 49.952 7.63892C50.1274 8.03007 50.2249 8.45168 50.239 8.88015C50.2426 9.33933 50.0721 9.78281 49.7619 10.1214C49.4875 10.4268 49.1647 10.685 48.8064 10.8855C48.283 11.1787 47.6851 11.3118 47.0868 11.2683H47.0855ZM43.9332 9.6443H47.1812C47.9453 9.6443 48.7094 9.26157 48.328 8.30738C48.328 8.2117 48.2323 8.11601 48.1367 8.02033L47.8496 7.73329C47.5791 7.43415 47.2271 7.22058 46.8368 7.11882C46.4465 7.01706 46.035 7.03155 45.6529 7.16051C45.4615 7.25619 45.3658 7.25619 45.2701 7.35187C45.1745 7.44755 44.9831 7.54323 44.8874 7.63892C44.5933 7.88509 44.3557 8.19176 44.1908 8.53805C44.0259 8.88434 43.9376 9.26211 43.9319 9.64561L43.9332 9.6443ZM38.2972 2.67134V5.25081H41.8361L41.7352 6.01888C41.6395 6.78303 41.2581 6.97439 40.3983 6.97439H38.2015V11.5619V12.1346C38.2972 12.8988 38.7743 13.0901 39.4427 13.0901C40.2189 13.19 41.0076 13.0913 41.7352 12.8031C41.8309 13.5672 41.7352 14.6184 41.2581 14.8098C40.6442 15.0195 39.9903 15.085 39.3471 15.0011C39.0571 15.0167 38.7667 14.9843 38.4872 14.9055C37.8842 14.7548 37.3268 14.4597 36.8633 14.0456C36.3262 13.296 36.0571 12.3874 36.0991 11.4662V2.67134H38.2972ZM29.7003 5.15513H30.4644C30.9788 5.15478 31.4882 5.25585 31.9636 5.45254C32.4389 5.64924 32.8708 5.93771 33.2345 6.30144C33.5982 6.66518 33.8867 7.09706 34.0834 7.57237C34.2801 8.04769 34.3811 8.55711 34.3808 9.07152V15.089H32.2837V9.07152C32.2953 8.84261 32.2588 8.6138 32.1766 8.39988C32.0943 8.18596 31.968 7.99169 31.8059 7.82962C31.6439 7.66755 31.4496 7.54129 31.2357 7.45899C31.0217 7.3767 30.7929 7.34021 30.564 7.35187H29.7999C29.344 7.36562 28.9064 7.53385 28.5587 7.82897C28.2485 8.16755 28.078 8.61103 28.0816 9.07021V15.089H25.8783V9.07152C25.9116 8.03933 26.3192 7.05449 27.0251 6.30069C27.3614 5.92718 27.7747 5.63118 28.2366 5.43316C28.6985 5.23514 29.1979 5.13983 29.7003 5.15382V5.15513ZM21.7705 2.47998H23.9673V14.9933H21.7705V2.47998ZM80.7103 5.15513H81.4744C82.5066 5.18846 83.4915 5.59609 84.2453 6.302C84.9669 7.04559 85.3771 8.03677 85.3921 9.07283V15.089H83.1941V9.07152C83.2058 8.84261 83.1693 8.6138 83.087 8.39988C83.0047 8.18596 82.8784 7.99169 82.7163 7.82962C82.5543 7.66755 82.36 7.54129 82.1461 7.45899C81.9322 7.3767 81.7034 7.34021 81.4744 7.35187H80.7103C80.4814 7.34021 80.2526 7.3767 80.0387 7.45899C79.8248 7.54129 79.6305 7.66755 79.4684 7.82962C79.3063 7.99169 79.1801 8.18596 79.0978 8.39988C79.0155 8.6138 78.979 8.84261 78.9907 9.07152V15.089H76.7939V9.07152C76.8273 8.03933 77.2349 7.05449 77.9408 6.30069C78.2959 5.92522 78.7262 5.62896 79.2037 5.43133C79.6812 5.23369 80.1951 5.13913 80.7116 5.15382L80.7103 5.15513ZM87.1105 2.47998H89.3072V14.9933H87.1105V2.47998ZM95.4217 5.53655H93.2236L89.3072 10.0257L93.702 14.9933H95.8988L91.5 10.027L95.4164 5.53786L95.4217 5.53655ZM73.4503 10.6955H72.0177C71.3993 10.6649 70.7812 10.7627 70.2024 10.9825C70.0048 11.0645 69.8311 11.195 69.6975 11.3621C69.5639 11.5291 69.4747 11.7273 69.4382 11.938V12.0337C69.4094 12.197 69.4139 12.3645 69.4514 12.5261C69.489 12.6876 69.5589 12.8399 69.6568 12.9737C69.7548 13.1076 69.8788 13.2202 70.0215 13.3049C70.1641 13.3895 70.3224 13.4444 70.4868 13.4663C71.1691 13.5903 71.8733 13.4896 72.4935 13.1793C72.7065 13.0437 72.886 12.8616 73.0184 12.6466C73.1508 12.4316 73.2326 12.1893 73.2576 11.938C73.4288 11.5481 73.4948 11.1202 73.449 10.6968L73.4503 10.6955ZM70.7752 5.25081C71.9028 5.08117 73.0541 5.3181 74.0231 5.91927C74.4071 6.17607 74.7063 6.54098 74.8829 6.96784C75.116 7.47566 75.2149 8.03483 75.1699 8.5918V11.457C75.2342 12.1432 75.0852 12.8326 74.7432 13.431C74.4012 14.0294 73.8828 14.5077 73.2589 14.8006C72.7355 14.9946 72.19 15.1232 71.635 15.1833C69.1512 15.279 67.3359 14.0365 67.5272 11.744C67.6229 10.1201 69.0555 9.45162 70.6795 9.26026C71.4436 9.16458 72.7766 9.35594 73.2589 9.26026C73.2483 8.74557 73.1842 8.23339 73.0676 7.73198C73.0079 7.55424 72.9078 7.39275 72.7752 7.26017C72.6427 7.12759 72.4812 7.02753 72.3034 6.96784C71.6525 6.7772 70.9695 6.7212 70.2961 6.80322C69.6228 6.88525 68.9732 7.10359 68.3871 7.44493V6.58511C68.3672 6.45141 68.3739 6.31511 68.4067 6.184C68.4395 6.05289 68.4979 5.92953 68.5784 5.82097C69.239 5.41958 70.0027 5.22046 70.7752 5.24819V5.25081Z" fill="#818283"/>
<path fill-rule="evenodd" clip-rule="evenodd" d="M0.468994 16.9999H15.28C15.8343 16.9938 16.3641 16.7709 16.7561 16.3789C17.148 15.987 17.371 15.4571 17.3771 14.9028V0.283203H2.56612C2.01183 0.289336 1.48198 0.512252 1.09001 0.904218C0.698043 1.29618 0.475127 1.82604 0.468994 2.38033V16.9999ZM4.48106 14.3248L13.2693 12.7965V3.62157L4.48106 5.1551V14.33V14.3248Z" fill="#818283"/>
</svg>
