<svg xmlns="http://www.w3.org/2000/svg" width="40.318" height="41.19" viewBox="0 0 40.318 41.19">
  <g id="Group_404" data-name="Group 404" transform="translate(-17239.848 -7291.178)">
    <g id="Group_88" data-name="Group 88" transform="translate(17239.848 7291.178)">
      <circle id="Ellipse_18" data-name="Ellipse 18" cx="13.465" cy="13.465" r="13.465" transform="translate(1.122 20.618) rotate(-45)" fill="#e8cf20"/>
      <path id="Path_161" data-name="Path 161" d="M39.516,22.557a2.862,2.862,0,0,1,0-3.931v-.016a3.115,3.115,0,0,0,.6-.947,2.858,2.858,0,0,0-1.642-3.694h-.016a2.857,2.857,0,0,1-1.7-3.536V10.4a2.993,2.993,0,0,0,.126-1.121,2.867,2.867,0,0,0-3.11-2.6,1.358,1.358,0,0,1-.253.016,2.857,2.857,0,0,1-2.826-2.478,2.723,2.723,0,0,0-.379-1.089A2.855,2.855,0,0,0,26.4,2.131a2.822,2.822,0,0,1-1.468.41,2.887,2.887,0,0,1-2.384-1.279,3,3,0,0,0-.805-.805,2.854,2.854,0,0,0-3.962.805h-.016a2.843,2.843,0,0,1-3.836.868,2.723,2.723,0,0,0-1.089-.379A2.849,2.849,0,0,0,9.635,4.2,2.857,2.857,0,0,1,6.809,6.677a1.358,1.358,0,0,1-.253-.016A1.358,1.358,0,0,0,6.3,6.646a2.7,2.7,0,0,0-.868.142A2.879,2.879,0,0,0,3.557,10.4v.016a2.864,2.864,0,0,1-1.7,3.536H1.837A2.877,2.877,0,0,0,.779,18.611a2.862,2.862,0,0,1,0,3.931v.016a3.115,3.115,0,0,0-.6.947A2.858,2.858,0,0,0,1.821,27.2h.016a2.863,2.863,0,0,1,1.7,3.536v.016a2.993,2.993,0,0,0-.126,1.121,2.867,2.867,0,0,0,3.11,2.6,1.358,1.358,0,0,1,.253-.016A2.857,2.857,0,0,1,9.6,36.937a2.723,2.723,0,0,0,.379,1.089,2.855,2.855,0,0,0,3.915.994,2.822,2.822,0,0,1,1.468-.41,2.887,2.887,0,0,1,2.384,1.279,2.772,2.772,0,0,0,.994.916,2.812,2.812,0,0,0,2.778,0,2.908,2.908,0,0,0,.994-.916h.016a2.843,2.843,0,0,1,3.836-.868,2.723,2.723,0,0,0,1.089.379,2.849,2.849,0,0,0,3.2-2.447,2.857,2.857,0,0,1,2.826-2.478,1.358,1.358,0,0,1,.253.016,1.358,1.358,0,0,0,.253.016,2.7,2.7,0,0,0,.868-.142,2.883,2.883,0,0,0,1.863-3.615v.016a2.864,2.864,0,0,1,1.7-3.536h.016a2.841,2.841,0,0,0,.947-.6A2.874,2.874,0,0,0,39.516,22.557ZM20.148,34.065A13.465,13.465,0,1,1,33.612,20.6,13.467,13.467,0,0,1,20.148,34.065Z" transform="translate(0.012 0.019)" fill="#e8cf20"/>
    </g>
    <path id="Path_282" data-name="Path 282" d="M23.869,11.246,17,10.6a1.188,1.188,0,0,1-.985-.729L13.551,3.9a1.178,1.178,0,0,0-2.186,0L8.923,9.868a1.163,1.163,0,0,1-.985.729l-6.872.65A1.188,1.188,0,0,0,.4,13.314l5.179,4.549a1.178,1.178,0,0,1,.374,1.162L4.394,25.4a1.188,1.188,0,0,0,1.753,1.3l5.73-3.367a1.191,1.191,0,0,1,1.2,0l5.73,3.367a1.184,1.184,0,0,0,1.752-1.3l-1.536-6.38a1.178,1.178,0,0,1,.374-1.162l5.179-4.549A1.2,1.2,0,0,0,23.869,11.246Z" transform="translate(17247.773 7296.532)" fill="#d7b354"/>
  </g>
</svg>
