<svg width="27" height="27" viewBox="0 0 27 27" fill="none" xmlns="http://www.w3.org/2000/svg">
<path d="M13.5 1C15.9723 1 18.389 1.73311 20.4446 3.10663C22.5002 4.48015 24.1024 6.43238 25.0485 8.71646C25.9946 11.0005 26.2421 13.5139 25.7598 15.9386C25.2775 18.3634 24.087 20.5907 22.3388 22.3388C20.5907 24.087 18.3634 25.2775 15.9386 25.7598C13.5139 26.2421 11.0005 25.9946 8.71646 25.0485C6.43238 24.1024 4.48015 22.5002 3.10663 20.4446C1.73311 18.389 1 15.9723 1 13.5C1 10.1848 2.31696 7.00537 4.66116 4.66116C7.00537 2.31696 10.1848 1 13.5 1V1Z" stroke="#262103"/>
<path d="M16.625 7.25H10.375C8.64911 7.25 7.25 8.64911 7.25 10.375V16.625C7.25 18.3509 8.64911 19.75 10.375 19.75H16.625C18.3509 19.75 19.75 18.3509 19.75 16.625V10.375C19.75 8.64911 18.3509 7.25 16.625 7.25Z" fill="#262103"/>
<path d="M16.625 7.5625H10.375C8.8217 7.5625 7.5625 8.8217 7.5625 10.375V16.625C7.5625 18.1783 8.8217 19.4375 10.375 19.4375H16.625C18.1783 19.4375 19.4375 18.1783 19.4375 16.625V10.375C19.4375 8.8217 18.1783 7.5625 16.625 7.5625Z" stroke="#262103"/>
<path d="M13.273 10.2225C12.5348 10.2225 11.8132 10.4414 11.1994 10.8516C10.5856 11.2617 10.1072 11.8446 9.82465 12.5267C9.54214 13.2087 9.46823 13.9592 9.61225 14.6832C9.75627 15.4072 10.1118 16.0723 10.6338 16.5943C11.1558 17.1163 11.8208 17.4718 12.5449 17.6158C13.2689 17.7598 14.0194 17.6859 14.7014 17.4034C15.3834 17.1209 15.9664 16.6425 16.3765 16.0287C16.7866 15.4149 17.0055 14.6933 17.0055 13.955C17.0055 12.9651 16.6123 12.0157 15.9123 11.3158C15.2123 10.6158 14.2629 10.2225 13.273 10.2225ZM13.273 16.285C12.8113 16.2857 12.3598 16.1493 11.9756 15.8931C11.5915 15.637 11.292 15.2727 11.115 14.8462C10.938 14.4198 10.8915 13.9504 10.9815 13.4975C11.0714 13.0446 11.2937 12.6286 11.6201 12.3021C11.9466 11.9757 12.3626 11.7534 12.8155 11.6635C13.2684 11.5735 13.7377 11.62 14.1642 11.797C14.5906 11.974 14.955 12.2735 15.2111 12.6576C15.4673 13.0418 15.6036 13.4933 15.603 13.955C15.6014 14.5725 15.3554 15.1642 14.9188 15.6008C14.4822 16.0374 13.8905 16.2834 13.273 16.285Z" fill="white"/>
<path d="M17.2862 10.4412C17.5617 10.4412 17.785 10.2179 17.785 9.94248C17.785 9.66702 17.5617 9.44373 17.2862 9.44373C17.0108 9.44373 16.7875 9.66702 16.7875 9.94248C16.7875 10.2179 17.0108 10.4412 17.2862 10.4412Z" fill="white"/>
</svg>
