<svg width="49" height="16" viewBox="0 0 49 16" fill="none" xmlns="http://www.w3.org/2000/svg">
<path fill-rule="evenodd" clip-rule="evenodd" d="M42.6831 0.922119C43.8643 0.922119 44.0745 1.20503 44.4811 2.43717L49 15.816H44.9681L43.9926 12.6066H38.5817L37.6062 15.816H35.2625L39.8339 0.922119H42.6831ZM43.3247 10.4237H39.2155L41.2438 3.62139L43.3232 10.4237H43.3247Z" fill="#818283"/>
<path fill-rule="evenodd" clip-rule="evenodd" d="M19.8554 15.8408H13.5896V0.922157H20.0827C20.6701 0.832176 21.2709 0.92627 21.8026 1.19151C22.3343 1.45676 22.7709 1.88014 23.0523 2.40349C23.3337 2.92685 23.4462 3.5245 23.3743 4.11435C23.3023 4.70419 23.0495 5.25729 22.6506 5.69767L21.9317 6.77985C27.0195 9.42501 25.3761 15.8408 19.8554 15.8408ZM19.1103 7.49255L20.3471 5.63738C20.5915 5.32912 20.7268 4.94856 20.732 4.5552C20.7132 4.10897 20.5224 3.68734 20.1997 3.37867C19.8769 3.07 19.4471 2.89826 19.0005 2.89946H17.1082V13.8635H18.161C18.587 13.9024 19.0163 13.8455 19.4174 13.6969C19.8185 13.5483 20.1813 13.3119 20.4791 13.0049C20.7769 12.6978 21.0023 12.3281 21.1386 11.9226C21.2749 11.5172 21.3187 11.0864 21.2669 10.6618C21.368 9.95983 21.2015 9.24552 20.8007 8.6605C20.3998 8.07549 19.7937 7.66248 19.1025 7.50337L19.1103 7.49255Z" fill="#818283"/>
<path fill-rule="evenodd" clip-rule="evenodd" d="M7.24789 15.8408H0.982056V0.922161H7.47514C8.06277 0.83138 8.66408 0.924891 9.19638 1.18983C9.72868 1.45477 10.1658 1.87813 10.4477 2.40167C10.7295 2.92521 10.8423 3.52322 10.7703 4.11345C10.6984 4.70368 10.4454 5.25712 10.0461 5.69767L9.32722 6.77985C14.4119 9.42502 12.7423 15.8408 7.24789 15.8408ZM6.50273 7.49255L7.73951 5.63738C7.98392 5.32912 8.11929 4.94856 8.12445 4.5552C8.10568 4.10897 7.9149 3.68734 7.59211 3.37867C7.26932 3.07 6.83958 2.89827 6.39296 2.89946H4.50069V13.8635H5.5535C5.97947 13.9024 6.40874 13.8455 6.80985 13.6969C7.21095 13.5483 7.57372 13.3119 7.87155 13.0049C8.16937 12.6978 8.39471 12.3281 8.53103 11.9226C8.66735 11.5172 8.7112 11.0864 8.65936 10.6618C8.75533 9.96055 8.58687 9.24869 8.18678 8.66484C7.78669 8.081 7.18361 7.66696 6.495 7.50337L6.50273 7.49255Z" fill="#818283"/>
<path fill-rule="evenodd" clip-rule="evenodd" d="M34.6719 0.922119H37.0279L32.4828 15.8408H28.9208L24.0417 0.948401L26.6606 0.922119C27.6872 0.922119 27.9438 1.17875 28.4833 2.87314L31.3078 12.2464L34.6719 0.922119Z" fill="#818283"/>
</svg>
