<svg width="113" height="24" viewBox="0 0 113 24" fill="none" xmlns="http://www.w3.org/2000/svg">
<path d="M36.8779 13.877V20H34.8154V4.35938H40.584C42.2956 4.35938 43.6348 4.79622 44.6016 5.66992C45.5755 6.54362 46.0625 7.7002 46.0625 9.13965C46.0625 10.6579 45.5863 11.8288 44.6338 12.6523C43.6885 13.4688 42.3314 13.877 40.5625 13.877H36.8779ZM36.8779 12.1904H40.584C41.6868 12.1904 42.5319 11.9326 43.1191 11.417C43.7064 10.8942 44 10.1423 44 9.16113C44 8.23014 43.7064 7.48535 43.1191 6.92676C42.5319 6.36816 41.7262 6.07812 40.7021 6.05664H36.8779V12.1904ZM55.4297 20C55.3151 19.7708 55.222 19.3626 55.1504 18.7754C54.2266 19.735 53.1237 20.2148 51.8418 20.2148C50.696 20.2148 49.7542 19.8926 49.0166 19.248C48.2861 18.5964 47.9209 17.7728 47.9209 16.7773C47.9209 15.5671 48.3792 14.6289 49.2959 13.9629C50.2197 13.2897 51.516 12.9531 53.1846 12.9531H55.1182V12.04C55.1182 11.3454 54.9105 10.7939 54.4951 10.3857C54.0798 9.97038 53.4674 9.7627 52.6582 9.7627C51.9492 9.7627 51.3548 9.94173 50.875 10.2998C50.3952 10.6579 50.1553 11.0911 50.1553 11.5996H48.1572C48.1572 11.0195 48.3613 10.4609 48.7695 9.92383C49.1849 9.37956 49.7435 8.94987 50.4453 8.63477C51.1543 8.31966 51.9313 8.16211 52.7764 8.16211C54.1156 8.16211 55.1647 8.4987 55.9238 9.17188C56.6829 9.83789 57.0768 10.7581 57.1055 11.9326V17.2822C57.1055 18.3493 57.2415 19.1979 57.5137 19.8281V20H55.4297ZM52.1318 18.4854C52.7549 18.4854 53.3457 18.3242 53.9043 18.002C54.4629 17.6797 54.8675 17.2607 55.1182 16.7451V14.3604H53.5605C51.1257 14.3604 49.9082 15.0729 49.9082 16.498C49.9082 17.1211 50.1159 17.6081 50.5312 17.959C50.9466 18.3099 51.4801 18.4854 52.1318 18.4854ZM65.8389 10.1602C65.5381 10.11 65.2122 10.085 64.8613 10.085C63.5579 10.085 62.6735 10.64 62.208 11.75V20H60.2207V8.37695H62.1543L62.1865 9.71973C62.8382 8.68132 63.762 8.16211 64.958 8.16211C65.3447 8.16211 65.6383 8.21224 65.8389 8.3125V10.1602ZM74.4219 20C74.3073 19.7708 74.2142 19.3626 74.1426 18.7754C73.2188 19.735 72.1159 20.2148 70.834 20.2148C69.6882 20.2148 68.7464 19.8926 68.0088 19.248C67.2783 18.5964 66.9131 17.7728 66.9131 16.7773C66.9131 15.5671 67.3714 14.6289 68.2881 13.9629C69.2119 13.2897 70.5081 12.9531 72.1768 12.9531H74.1104V12.04C74.1104 11.3454 73.9027 10.7939 73.4873 10.3857C73.0719 9.97038 72.4596 9.7627 71.6504 9.7627C70.9414 9.7627 70.347 9.94173 69.8672 10.2998C69.3874 10.6579 69.1475 11.0911 69.1475 11.5996H67.1494C67.1494 11.0195 67.3535 10.4609 67.7617 9.92383C68.1771 9.37956 68.7357 8.94987 69.4375 8.63477C70.1465 8.31966 70.9235 8.16211 71.7686 8.16211C73.1077 8.16211 74.1569 8.4987 74.916 9.17188C75.6751 9.83789 76.069 10.7581 76.0977 11.9326V17.2822C76.0977 18.3493 76.2337 19.1979 76.5059 19.8281V20H74.4219ZM71.124 18.4854C71.7471 18.4854 72.3379 18.3242 72.8965 18.002C73.4551 17.6797 73.8597 17.2607 74.1104 16.7451V14.3604H72.5527C70.1178 14.3604 68.9004 15.0729 68.9004 16.498C68.9004 17.1211 69.1081 17.6081 69.5234 17.959C69.9388 18.3099 70.4723 18.4854 71.124 18.4854ZM81.3721 20H79.3848V3.5H81.3721V20ZM89.3857 20.2148C87.8102 20.2148 86.5283 19.6992 85.54 18.668C84.5518 17.6296 84.0576 16.2438 84.0576 14.5107V14.1455C84.0576 12.9925 84.276 11.9648 84.7129 11.0625C85.1569 10.153 85.7728 9.44401 86.5605 8.93555C87.3555 8.41992 88.2148 8.16211 89.1387 8.16211C90.6497 8.16211 91.8242 8.65983 92.6621 9.65527C93.5 10.6507 93.9189 12.0758 93.9189 13.9307V14.7578H86.0449C86.0736 15.9036 86.4066 16.8311 87.0439 17.54C87.6885 18.2419 88.5049 18.5928 89.4932 18.5928C90.195 18.5928 90.7894 18.4495 91.2764 18.1631C91.7633 17.8766 92.1895 17.4971 92.5547 17.0244L93.7686 17.9697C92.7946 19.4665 91.3337 20.2148 89.3857 20.2148ZM89.1387 9.79492C88.3366 9.79492 87.6634 10.0885 87.1191 10.6758C86.5749 11.2559 86.2383 12.0723 86.1094 13.125H91.9316V12.9746C91.8743 11.9648 91.6022 11.1842 91.1152 10.6328C90.6283 10.0742 89.9694 9.79492 89.1387 9.79492ZM98.3877 20H96.4004V3.5H98.3877V20ZM101.052 14.0811C101.052 12.9424 101.274 11.9183 101.718 11.0088C102.169 10.0993 102.792 9.39746 103.587 8.90332C104.389 8.40918 105.302 8.16211 106.326 8.16211C107.909 8.16211 109.187 8.70996 110.161 9.80566C111.142 10.9014 111.633 12.3587 111.633 14.1777V14.3174C111.633 15.4489 111.414 16.4658 110.978 17.3682C110.548 18.2633 109.928 18.9616 109.119 19.4629C108.317 19.9642 107.393 20.2148 106.348 20.2148C104.772 20.2148 103.494 19.667 102.513 18.5713C101.539 17.4756 101.052 16.0254 101.052 14.2207V14.0811ZM103.05 14.3174C103.05 15.6064 103.347 16.6413 103.941 17.4219C104.543 18.2025 105.345 18.5928 106.348 18.5928C107.357 18.5928 108.16 18.1989 108.754 17.4111C109.348 16.6162 109.646 15.5062 109.646 14.0811C109.646 12.8063 109.341 11.7751 108.732 10.9873C108.131 10.1924 107.329 9.79492 106.326 9.79492C105.345 9.79492 104.554 10.1852 103.952 10.9658C103.351 11.7464 103.05 12.8636 103.05 14.3174Z" fill="#414547"/>
<path d="M9.6886 15.4502H0V17.4867H9.6886V15.4502Z" fill="#8E8E8E"/>
<path d="M20.9047 15.4502H11.2161V17.4867H20.9047V15.4502Z" fill="#8E8E8E"/>
<path d="M18.2921 7.03997V1.02014L14.7526 0.17749C14.3582 0.776189 13.8377 1.28138 13.2274 1.65764C12.6172 2.0339 11.932 2.27212 11.22 2.35561V13.9269H20.9086V9.65644C20.2154 9.65644 19.5506 9.38106 19.0604 8.89088C18.5702 8.40071 18.2948 7.7359 18.2948 7.04269L18.2921 7.03997Z" fill="#8E8E8E"/>
<path d="M20.9047 19.0142H11.2161V23.3418H20.9047V19.0142Z" fill="#8E8E8E"/>
<path d="M6.15736 0.176025L2.61791 1.01869V7.0385C2.61791 7.73171 2.34252 8.39654 1.85234 8.88672C1.36217 9.37689 0.697362 9.65226 0.00415039 9.65226V13.9255H9.69274V2.35417C8.98069 2.27067 8.29553 2.03244 7.68528 1.65618C7.07503 1.27991 6.55446 0.774724 6.16008 0.176025H6.15736Z" fill="#8E8E8E"/>
<path d="M9.6886 19.0142H0V23.3418H9.6886V19.0142Z" fill="#8E8E8E"/>
</svg>
