<svg width="117" height="31" viewBox="0 0 117 31" fill="none" xmlns="http://www.w3.org/2000/svg">
<path fill-rule="evenodd" clip-rule="evenodd" d="M21.6517 20.4933C21.782 19.7356 21.9397 18.9504 22.07 18.1927C22.2553 17.3334 22.0963 16.4357 21.627 15.6924C21.1577 14.9491 20.4157 14.4194 19.5602 14.2172C18.0431 13.8777 16.5034 13.7732 14.9573 13.5367C13.5559 13.4183 12.166 13.1907 10.8 12.8561C9.79947 12.6442 8.89248 12.119 8.21062 11.3567C7.52876 10.5944 7.1075 9.6347 7.00797 8.61681C6.9394 8.07741 6.98798 7.52955 7.1504 7.01063C7.31282 6.49171 7.58527 6.01393 7.94915 5.60988C9.62235 3.85784 11.3486 2.13155 13.0492 0.405258C13.1853 0.272231 13.3466 0.167862 13.5238 0.0983335C13.7009 0.028805 13.8902 -0.00446929 14.0804 0.000481431C14.2707 0.00543215 14.458 0.0485072 14.6312 0.127155C14.8045 0.205803 14.9602 0.318425 15.0892 0.45835C16.8155 2.1589 18.5675 3.85784 20.2665 5.55839C21.4168 6.68459 22.5189 7.85905 23.6451 9.01098C24.7165 10.0825 25.8411 11.0767 26.8627 12.1756C27.3068 12.647 27.9342 13.0122 28.0388 13.7973C28.1691 14.8431 27.3856 15.2871 26.8097 15.8631C25.6336 17.0134 24.4302 18.138 23.2268 19.2626C22.7554 19.7066 22.2614 20.1522 21.7884 20.5963C21.7305 20.5722 21.7032 20.5223 21.6517 20.4933Z" fill="#8E8E8E"/>
<path fill-rule="evenodd" clip-rule="evenodd" d="M6.45927 10.348C6.33667 10.8743 6.24056 11.4064 6.17129 11.9423C6.09667 12.6283 6.06176 13.3181 6.06671 14.0081C6.1342 14.7442 6.44228 15.4376 6.94334 15.9812C7.44439 16.5247 8.11052 16.888 8.83875 17.015C10.6816 17.4459 12.5691 17.6565 14.4617 17.6425C16.0776 17.672 17.6533 18.1517 19.0115 19.0277C19.6547 19.429 20.1892 19.9825 20.5678 20.6394C20.9463 21.2962 21.1572 22.0363 21.1818 22.794C21.1799 23.7929 20.7852 24.751 20.083 25.4615C19.2979 26.3238 18.4886 27.1604 17.6504 27.9986C16.7607 28.8883 15.8453 29.7764 14.9572 30.6661C14.6955 30.8405 14.3902 30.9379 14.0759 30.9472C13.7616 30.9566 13.451 30.8776 13.1794 30.7192C12.1852 29.778 11.2488 28.7886 10.2513 27.8233C9.46621 27.0381 8.6827 26.2289 7.89758 25.4438L4.36777 21.9059C3.26893 20.8055 2.14434 19.7098 1.01976 18.611C0.738138 18.3428 0.476286 18.0546 0.236252 17.7487C0.0701044 17.5216 -0.0127618 17.2442 0.00159588 16.9632C0.0159536 16.6822 0.126659 16.4147 0.315086 16.2058C0.812219 15.6572 1.36084 15.1343 1.88371 14.6371C3.3735 13.2439 4.8649 11.8651 6.45927 10.348Z" fill="#8E8E8E"/>
<path fill-rule="evenodd" clip-rule="evenodd" d="M67.7805 15.4737V9.4325C67.7805 8.5428 67.9896 8.28217 68.8793 8.1245C69.2462 8.04567 69.6114 7.99419 69.9782 7.94109C70.7001 7.87296 71.4271 8.0024 72.0811 8.31554C72.7352 8.62869 73.2918 9.11376 73.6914 9.71887C74.7114 10.9738 75.8617 12.1514 76.9606 13.3533C77.432 13.8761 77.876 14.4247 78.3731 14.9219C78.534 15.0828 78.896 15.2437 79.0537 15.1568C79.2371 15.0779 79.3755 14.7127 79.3755 14.4762C79.4012 12.8288 79.3755 11.1556 79.4012 9.50811C79.4012 8.4881 79.6104 8.30469 80.6047 8.09554C81.3548 7.93867 82.1293 7.93867 82.8795 8.09554C83.7692 8.27895 84.0299 8.53959 84.0299 9.42928V21.3798C84.0299 22.4255 83.7081 22.8696 82.6704 22.9227C81.812 22.9528 80.9528 22.8913 80.1075 22.7393C79.7945 22.6604 79.5135 22.4868 79.3031 22.2421C77.3934 20.1506 75.511 18.0318 73.6029 15.9145C73.5498 15.8614 73.5241 15.81 73.4726 15.7842C73.2377 15.6796 72.8966 15.4174 72.7921 15.4962C72.6914 15.5855 72.6095 15.6939 72.5512 15.8152C72.4929 15.9365 72.4594 16.0681 72.4526 16.2025C72.4269 17.9288 72.4269 19.6808 72.4269 21.4071C72.4269 22.4271 72.3223 22.6942 71.328 22.8197C70.4217 22.8976 69.5094 22.8712 68.609 22.7409C67.9028 22.6878 67.824 22.1392 67.824 21.5648V16.5452C67.7982 16.2057 67.7982 15.8389 67.7982 15.4737H67.7805Z" fill="#8E8E8E"/>
<path fill-rule="evenodd" clip-rule="evenodd" d="M39.5196 23.2654C36.8693 23.2871 34.2431 22.7618 31.8051 21.7225C31.5668 21.666 31.3508 21.5395 31.1849 21.3592C31.0191 21.179 30.9109 20.9532 30.8744 20.711C30.8379 20.4688 30.8747 20.2212 30.9801 20C31.0854 19.7789 31.2545 19.5943 31.4657 19.4701C31.5418 19.4071 31.6118 19.3371 31.6748 19.261C31.8021 19.0504 31.972 18.8689 32.1737 18.7282C32.3755 18.5874 32.6044 18.4904 32.8459 18.4436C33.0874 18.3968 33.336 18.401 33.5757 18.4562C33.8155 18.5114 34.041 18.6162 34.2377 18.7638C35.8283 19.5759 37.6016 19.9638 39.386 19.89C39.8718 19.864 40.3495 19.7552 40.7986 19.5683C40.9365 19.4951 41.0555 19.3909 41.1463 19.2639C41.237 19.1368 41.297 18.9904 41.3214 18.8362C41.309 18.6721 41.2574 18.5134 41.1709 18.3735C41.0844 18.2335 40.9655 18.1163 40.8243 18.0318C39.6836 17.6593 38.5222 17.3537 37.346 17.1164C35.8122 16.891 34.3218 16.4325 32.9265 15.7569C32.3728 15.4572 31.9059 15.0195 31.5712 14.4861C31.2366 13.9528 31.0455 13.342 31.0165 12.7131C30.9875 12.0841 31.1216 11.4583 31.4058 10.8965C31.69 10.3347 32.1147 9.85585 32.6385 9.50652C34.4004 8.28073 36.5458 7.7328 38.6797 7.96364C40.1471 8.0509 41.6063 8.24339 43.0461 8.53961C43.7038 8.68506 44.3375 8.92284 44.9285 9.24589C45.1906 9.44124 45.3651 9.73202 45.4142 10.0552C45.4632 10.3783 45.383 10.7078 45.1907 10.9722C44.8637 11.416 44.4857 11.8199 44.0645 12.1756C43.8099 12.3459 43.5115 12.439 43.2052 12.4436C42.8989 12.4481 42.5978 12.364 42.3382 12.2013C40.7708 11.4447 39.019 11.1543 37.2913 11.3647C37.0408 11.3893 36.806 11.4982 36.6254 11.6735C36.4447 11.8489 36.329 12.0803 36.297 12.33C36.3045 12.5573 36.3929 12.7744 36.5463 12.9422C36.6997 13.1101 36.908 13.2176 37.1336 13.2455C38.5719 13.5849 40.0102 13.8729 41.4486 14.2108C42.8774 14.4782 44.238 15.0296 45.4498 15.8325C45.9157 16.2911 46.2583 16.86 46.4456 17.4864C46.6329 18.1127 46.6589 18.7763 46.5212 19.4154C46.2752 20.2189 45.8178 20.9414 45.1968 21.5075C44.5758 22.0735 43.8142 22.4623 42.9914 22.6331C41.8509 22.9273 40.6906 23.1386 39.5196 23.2654Z" fill="#8E8E8E"/>
<path fill-rule="evenodd" clip-rule="evenodd" d="M60.1192 13.0186V9.3553C60.1192 8.57018 60.3815 8.33529 61.1135 8.15188C62.0334 7.92494 62.9957 7.9338 63.9113 8.17762C64.5645 8.33851 64.8524 8.59592 64.8524 9.27646C64.8267 12.1273 64.957 14.9766 64.7221 17.776C64.6409 18.9198 64.2 20.0087 63.4626 20.8869C62.7252 21.765 61.7289 22.3875 60.6164 22.6653C59.1403 23.1819 57.5712 23.3782 56.0134 23.2413C54.2714 23.1944 52.5775 22.6599 51.1241 21.6984C50.442 21.1913 49.8863 20.5333 49.5006 19.7758C49.1149 19.0183 48.9095 18.1819 48.9007 17.332C48.7961 14.6387 48.8476 11.9182 48.8476 9.22498C48.8328 8.97401 48.9135 8.72673 49.0734 8.53276C49.2334 8.3388 49.4608 8.2125 49.71 8.17923C50.6698 7.93543 51.6742 7.9266 52.6381 8.15349C53.3959 8.3369 53.6034 8.54605 53.6034 9.32956C53.6034 11.6045 53.5777 13.8536 53.6291 16.1285C53.6299 16.8324 53.7814 17.528 54.0732 18.1686C54.5587 18.8552 55.2769 19.3424 56.0945 19.5394C56.9121 19.7365 57.7734 19.6301 58.5184 19.2401C59.0322 18.9851 59.4583 18.5827 59.7423 18.0843C60.0263 17.586 60.1553 17.0143 60.1128 16.4423V13.0186H60.1192Z" fill="#8E8E8E"/>
<path fill-rule="evenodd" clip-rule="evenodd" d="M101.671 23.0305C101.462 23.0305 101.227 23.0048 101.018 23.0048C100.571 23.0547 100.121 22.9383 99.7547 22.6777C99.3882 22.4172 99.1305 22.0307 99.0309 21.5922C98.9636 21.4048 98.8852 21.2216 98.7959 21.0436C98.6988 20.7517 98.5003 20.5042 98.2365 20.346C97.9726 20.1878 97.6609 20.1294 97.3576 20.1813C95.6844 20.2344 94.0096 20.207 92.3364 20.1813C92.1139 20.1621 91.8918 20.2226 91.7097 20.352C91.5276 20.4813 91.3973 20.6711 91.3421 20.8876C91.1688 21.3905 90.9406 21.8729 90.6616 22.3259C90.4454 22.5796 90.1512 22.7544 89.825 22.823C88.8574 23.1067 87.8263 23.0882 86.8696 22.7699C86.7158 22.7298 86.5736 22.654 86.4545 22.5487C86.3355 22.4434 86.2429 22.3115 86.1843 22.1638C86.1257 22.016 86.1028 21.8566 86.1173 21.6983C86.1318 21.54 86.1834 21.3874 86.2679 21.2528C87.1833 19.3704 88.0987 17.4607 89.0399 15.5784C90.0856 13.4595 91.1587 11.368 92.2045 9.27651C92.885 7.91703 93.6959 7.65479 95.4994 7.75937C96.1522 7.76781 96.7843 7.98973 97.2991 8.39123C97.8139 8.79273 98.1831 9.35172 98.3503 9.98279C99.0823 11.7879 100.077 13.5126 100.939 15.2646C101.88 17.1743 102.821 19.0567 103.762 20.9648C104.285 22.0363 103.893 22.7699 102.717 22.926C102.373 23.0008 102.022 23.0359 101.671 23.0305ZM95.0554 17.147C95.447 17.1731 95.8398 17.1731 96.2314 17.147C96.5982 17.0939 96.8846 16.8847 96.7028 16.4664C96.3103 15.551 95.9177 14.6613 95.4736 13.799C95.4443 13.7093 95.3881 13.6309 95.3125 13.5743C95.237 13.5178 95.1459 13.486 95.0516 13.4832C94.9572 13.4804 94.8644 13.5067 94.7856 13.5586C94.7068 13.6105 94.646 13.6855 94.6113 13.7732C94.1673 14.6629 93.749 15.551 93.3822 16.4407C93.2213 16.8333 93.3822 17.1212 93.8262 17.147C94.2397 17.1727 94.6371 17.147 95.0554 17.147Z" fill="#8E8E8E"/>
<path fill-rule="evenodd" clip-rule="evenodd" d="M109.438 8.12451H115.483C116.686 8.12451 116.973 8.4125 117 9.64166C117 9.92964 117 10.1903 116.974 10.4783C116.977 10.6276 116.947 10.7756 116.886 10.9123C116.826 11.049 116.737 11.1712 116.626 11.2704C116.514 11.3697 116.382 11.4437 116.24 11.4874C116.097 11.5312 115.946 11.5437 115.798 11.524C114.778 11.524 113.758 11.5497 112.712 11.5497C111.908 11.5497 111.692 11.7589 111.692 12.544C111.692 15.4206 111.639 18.2972 111.692 21.1739C111.718 22.8213 111.326 22.7956 110.071 22.979C109.306 23.0394 108.537 22.9687 107.796 22.7698C107.22 22.6395 106.991 22.1681 106.991 21.5407C107.017 18.5595 106.991 15.5783 106.991 12.5971C106.991 11.6028 106.913 11.5256 105.92 11.5256H103.148C102.286 11.5256 101.944 11.2634 101.84 10.4268C101.792 9.92095 101.809 9.41102 101.891 8.90963C101.996 8.30792 102.493 8.12451 103.042 8.15186H107.487C108.168 8.12612 108.795 8.12612 109.448 8.12612L109.438 8.12451Z" fill="#8E8E8E"/>
</svg>
