<svg width="102" height="96" viewBox="0 0 102 96" fill="none" xmlns="http://www.w3.org/2000/svg">
<path d="M62.0983 67.4001C63.7595 69.4814 63.8386 72.123 63.364 74.6044C63.2849 75.0047 64.6297 74.6044 64.7879 74.1242C65.2625 71.5626 65.1043 68.841 63.4431 66.6797C63.1267 66.2795 61.861 67.0799 62.0983 67.4001Z" fill="black"/>
<path d="M75.0718 14.1686C79.0271 17.2104 81.2421 22.0933 82.666 26.7361C83.378 29.0575 84.0108 31.539 84.4064 33.9404C84.8019 36.3419 84.881 38.6633 85.2765 41.0647C85.8303 44.0265 86.7004 46.8281 87.9661 49.4697C89.2318 52.3514 90.9722 54.993 92.0005 57.9548C93.108 61.3968 92.317 64.1185 90.4184 67.0802C89.0736 69.1615 88.9154 71.2427 89.5483 73.5641C90.4184 76.5259 91.8423 79.2475 91.2886 82.5295C90.7348 85.8114 88.4408 88.5331 85.1974 89.3335C84.7228 89.4136 83.8526 90.4542 84.8019 90.2141C89.6274 89.0133 93.3454 84.6107 92.7916 79.4076C92.4752 76.6059 90.9722 74.2045 90.5766 71.4829C90.102 67.9608 92.9498 65.8795 93.6618 62.6776C94.2946 59.7158 93.2662 56.8341 91.9214 54.1925C90.4184 51.1507 88.8363 48.269 87.7288 45.1471C85.9094 39.7839 86.0676 34.0205 84.6437 28.5772C83.2198 22.9739 80.8466 16.9703 76.1793 13.3681C75.942 13.0479 74.6763 13.8484 75.0718 14.1686Z" fill="black"/>
<path d="M81.4793 53.4719C83.0615 56.9139 85.5138 59.0752 88.8362 60.7562C89.2317 60.5161 89.6273 60.1959 90.1019 59.9557C90.0228 59.8757 89.8646 59.8757 89.7855 59.7956C89.39 59.5555 88.1243 60.436 88.5198 60.5961C88.5989 60.6762 88.7571 60.6762 88.8362 60.7562C89.2317 60.9964 90.4974 60.1158 90.1019 59.9557C86.8586 58.3548 84.4063 56.1935 82.9032 52.8315C82.5868 52.3512 81.242 52.9916 81.4793 53.4719Z" fill="black"/>
<path d="M87.0166 59.9561C86.3837 62.0373 85.3554 66.52 82.6657 66.52C82.2702 66.52 81.0836 67.4806 81.9538 67.4806C85.9882 67.4005 87.5703 62.6777 88.4405 59.4758C88.5196 58.9955 87.1748 59.4758 87.0166 59.9561Z" fill="black"/>
<path d="M67.3194 49.3092C66.9239 43.7058 63.1268 47.0679 63.8387 50.4299L64.1552 51.3104C64.0761 51.1503 63.997 50.9102 63.9179 50.7501C64.6298 53.6318 67.6358 53.7919 67.3194 49.3092ZM63.997 49.6294L64.1552 50.5099C64.0761 50.3498 64.0761 49.7895 63.997 49.6294C63.6014 47.7883 65.6582 46.0272 65.8955 48.989C66.0537 51.5505 64.6298 51.3104 63.997 49.6294Z" fill="black"/>
<path d="M67.6358 49.1491C67.5567 48.1885 67.4776 46.7477 66.5283 46.1873C65.8955 45.8671 65.1835 46.1873 64.7089 46.5876C64.076 47.1479 63.6014 47.9484 63.4432 48.8289C63.285 49.7895 63.4432 50.59 63.7596 51.5505C63.9969 51.4705 64.2342 51.3104 64.4716 51.2303C64.3925 51.0703 64.3133 50.8301 64.2342 50.67C64.1551 50.4299 63.5223 50.7501 63.5223 50.9902C63.8387 52.0308 64.7089 53.3916 65.9746 52.9914C67.5567 52.5111 67.7149 50.5099 67.6358 49.1491C67.6358 48.909 66.9238 49.1491 66.9238 49.3892C67.0029 50.1097 67.0821 52.5111 65.9746 52.5111C65.0253 52.5111 64.4716 51.3104 64.2342 50.5099C63.9969 50.59 63.7596 50.7501 63.5223 50.8301C63.6014 50.9902 63.6805 51.2303 63.7596 51.3904C63.8387 51.6306 64.5507 51.3104 64.4716 51.0703C63.9969 49.7094 63.9178 48.1885 64.8671 46.9078C65.1835 46.5075 65.579 46.1873 66.1328 46.5876C66.8447 47.1479 66.9238 48.4287 67.003 49.3092C66.9238 49.7094 67.6358 49.3892 67.6358 49.1491Z" fill="black"/>
<path d="M63.6805 49.8697C63.6805 50.0298 63.6805 50.1899 63.7596 50.2699C63.7596 50.43 63.8387 50.5901 63.8387 50.7502C64.076 50.6701 64.3133 50.51 64.5507 50.43C64.4716 50.1098 64.5507 49.7896 64.3925 49.5495C64.3133 49.3093 63.6014 49.6295 63.6805 49.8697C63.7596 50.1098 64.3925 49.7896 64.3925 49.5495C64.3133 48.9891 64.3925 48.2687 64.788 47.7884C65.1044 47.4682 65.4208 48.1887 65.4999 48.5088C65.6582 48.9891 65.6582 49.4694 65.579 49.9497C65.579 50.1098 65.4999 50.3499 65.4999 50.51C65.4999 50.5901 65.4208 50.5901 65.4208 50.6701C65.3417 50.6701 65.3417 50.8302 65.4208 50.6701C65.4999 50.6701 65.2626 50.5901 65.2626 50.5901C65.1835 50.51 65.0253 50.43 64.9462 50.3499C64.7089 50.1098 64.5507 49.7096 64.3925 49.3894C64.3133 49.3093 63.6014 49.6295 63.6805 49.8697C63.9178 50.43 64.3134 51.2305 65.0253 51.2305C65.7373 51.2305 66.1328 50.5901 66.2119 49.9497C66.291 49.3894 66.291 48.829 66.1328 48.3488C66.0537 48.0286 65.9746 47.6283 65.6582 47.3882C65.1835 46.9879 64.5507 47.3882 64.2342 47.7084C63.7596 48.2687 63.5223 49.0692 63.6805 49.8697C63.9178 49.7896 64.1551 49.6295 64.3925 49.5495C64.1551 49.6295 63.9178 49.7096 63.6805 49.8697C63.7596 50.1098 63.6805 50.51 63.8387 50.7502C63.9178 50.9903 64.5507 50.6701 64.5507 50.43C64.5507 50.1098 64.5507 49.7896 64.3925 49.4694C64.3133 49.3093 63.6014 49.6295 63.6805 49.8697Z" fill="black"/>
<path d="M62.7312 54.3524C63.8387 56.0334 65.4208 57.3141 67.3985 57.7144C67.6358 57.7944 68.1895 57.3141 67.8731 57.2341C65.9745 56.8339 64.4715 55.5531 63.364 53.9521C63.2849 53.792 62.6521 54.1923 62.7312 54.3524Z" fill="black"/>
<path d="M38.5248 67.4004C36.6262 69.7218 36.2307 73.404 37.5755 76.1256C37.8128 76.5259 39.1576 75.8855 38.9203 75.4052C37.7337 72.9237 37.971 69.4817 39.7114 67.3204C40.186 66.68 38.7621 67.0802 38.5248 67.4004Z" fill="black"/>
<path d="M41.135 91.5745C44.2202 94.2962 48.0173 95.4969 52.1308 95.2567C55.5323 95.0166 59.3294 93.5757 61.4653 90.694C61.9399 90.0536 60.516 90.3738 60.2787 90.7741C58.2219 93.6558 54.3457 94.4563 51.0233 94.2962C47.7008 94.1361 44.853 92.9354 42.4007 90.694C42.0843 90.4539 40.7395 91.2544 41.135 91.5745Z" fill="black"/>
<path d="M29.4276 42.5054C29.2694 39.7037 32.1963 37.0621 34.5695 36.1015C35.9934 35.5412 38.5248 35.221 38.5248 35.221C38.5248 35.221 40.3443 37.1422 40.8189 38.1027C37.6547 38.8232 31.168 39.2234 29.4276 42.5054Z" fill="black"/>
<path d="M30.0604 42.2651C29.9813 38.743 33.3828 36.5017 36.468 35.9413C36.9426 35.8613 37.4964 35.7012 37.971 35.7012C38.2083 35.7012 37.8919 35.6212 37.8128 35.6212C37.8919 35.6212 38.0501 35.8613 38.0501 35.9413C38.6829 36.8219 39.474 37.5423 40.0277 38.5029C40.3442 38.2627 40.5815 37.9425 40.8979 37.7024C36.8635 38.663 31.0097 38.663 28.6365 42.7454C28.32 43.2257 29.744 42.8255 29.9813 42.4252C31.8798 39.2233 37.3381 39.3034 40.5024 38.5829C40.7397 38.5029 41.6099 38.1827 41.3726 37.7824C40.977 37.062 40.4233 36.3416 39.8695 35.7012C39.7113 35.4611 39.3158 34.9007 39.0785 34.8207C38.2874 34.4204 36.1516 35.2209 35.3605 35.4611C32.1962 36.3416 28.5574 39.2233 28.6365 42.8255C28.7156 43.2257 30.0604 42.6654 30.0604 42.2651Z" fill="black"/>
<path d="M70.3253 42.8257C70.7208 40.024 67.9521 37.1423 65.658 36.0216C64.2341 35.3012 61.7818 34.901 61.7818 34.901C61.7818 34.901 59.8042 36.662 59.3295 37.6226C62.2565 38.6632 68.7432 39.4637 70.3253 42.8257Z" fill="black"/>
<path d="M70.9583 42.5856C71.2747 38.5031 67.2403 35.7014 63.7596 34.8209C62.8103 34.5808 62.0193 34.2606 61.1491 34.901C60.1998 35.6214 59.1715 36.7421 58.5386 37.7827C58.4595 37.9428 58.5386 38.0228 58.6968 38.1029C62.2566 39.2236 67.794 39.5437 69.6135 43.2259C69.8508 43.7062 71.1956 42.9858 70.9583 42.5856C69.6926 40.024 66.6865 39.1435 64.1551 38.4231C63.4432 38.263 62.7312 38.0228 62.0193 37.8627C61.6237 37.7827 60.4371 37.7026 60.1998 37.3825C59.8834 37.0623 60.0416 37.3825 60.2789 36.9822C60.4371 36.662 60.8327 36.3418 61.07 36.1017C61.3864 35.7815 61.782 35.3813 62.0984 35.0611C61.782 35.2212 61.4655 35.3012 61.1491 35.4613C64.8671 36.1017 69.9299 38.5031 69.5344 43.1459C69.5344 43.5461 70.9583 43.0659 70.9583 42.5856Z" fill="black"/>
<path d="M66.2118 91.6547C67.7148 91.0144 69.2178 89.9737 70.5626 89.0132C73.0149 87.2521 75.3881 85.1709 77.4449 82.8495C79.739 80.2079 81.3211 77.1661 81.9539 73.724C82.745 69.3214 82.5077 64.5986 82.4286 60.1159C82.2704 50.3501 82.1121 40.4241 80.6882 30.7383C79.5016 22.5735 77.524 13.1278 71.1955 7.36437C68.1895 4.64274 64.867 2.80164 60.9908 1.76102C57.431 0.880494 53.713 0.560303 50.0742 0.560303C46.5144 0.560303 43.0337 1.04059 39.6322 2.32136C33.3037 4.80284 28.0827 9.7658 24.9975 15.8494C20.9631 23.8542 20.8049 33.54 20.2512 42.2652C19.6974 51.5508 18.5899 61.2366 20.2512 70.5221C20.9631 74.7646 22.2288 79.1673 24.4438 82.8495C26.3423 85.8913 29.111 88.2127 32.1171 90.1338C33.6992 91.0944 35.3604 91.9749 37.0217 92.9355C37.4172 93.1756 38.6829 92.2951 38.2874 92.135C35.2813 90.5341 32.1962 88.9331 29.5857 86.6918C26.5797 84.1302 24.7602 80.9283 23.4945 77.2461C20.4094 68.7611 20.6467 59.9558 21.1213 51.0705C21.5169 42.4253 21.7542 33.54 23.3363 25.0549C24.6811 17.4504 28.32 10.2461 34.7276 5.76341C41.0561 1.36078 48.6503 0.960542 56.0862 2.00116C60.5162 2.5615 64.7879 3.92231 68.3477 6.80403C73.7269 11.2067 76.3374 17.3703 77.9195 24.0143C80.1345 33.0597 80.4509 42.2652 80.7673 51.5508C80.9255 56.5938 81.0838 61.5567 81.0838 66.5998C81.0838 71.0024 80.9256 75.6452 78.7106 79.5675C76.8911 82.7694 74.2015 85.331 71.3537 87.5723C69.8507 88.693 67.7939 90.374 66.2909 90.9343C65.6581 91.0944 65.2625 91.9749 66.2118 91.6547Z" fill="black"/>
<path d="M42.5591 1.20082C35.1231 2.40154 28.0036 6.16379 22.4662 11.2869C19.6974 13.8484 17.3243 16.8902 15.8212 20.3323C14.3182 23.9344 13.7645 27.7767 13.2898 31.619C12.8152 35.7014 12.5779 39.7839 11.2331 43.7062C10.6002 45.7074 9.65097 47.6286 8.38527 49.3096C7.11957 51.0706 5.61655 52.6716 4.35086 54.4326C2.05678 57.5545 -0.0790844 61.3968 0.395552 65.3992C0.632871 67.2403 1.50304 68.7612 2.45231 70.2821C3.5598 72.1232 4.11354 73.7242 3.6389 75.8855C3.08516 78.367 1.97767 80.6083 1.89857 83.1698C1.81946 84.9309 2.13589 86.6919 2.92695 88.2929C4.50907 91.2547 7.83153 92.5354 10.9958 93.1758C11.3913 93.2558 12.5779 92.3753 12.0241 92.2953C9.17633 91.7349 6.1703 90.6143 4.58818 88.0527C2.45231 84.6907 3.40158 80.7684 4.50907 77.2463C4.98371 75.6453 5.45834 74.0444 5.06281 72.3634C4.66728 70.6824 3.5598 69.4016 2.76874 67.9607C0.711977 64.1184 1.97767 59.8759 4.11354 56.3538C6.2494 52.9117 9.33454 50.1901 11.2331 46.668C12.8152 43.6262 13.5272 40.2642 14.0018 36.9022C15.0302 29.2176 15.1884 21.533 20.093 15.1291C25.314 8.32508 33.6992 3.44216 42.0845 2.08135C42.6382 2.0013 43.5875 1.04073 42.5591 1.20082Z" fill="black"/>
<path d="M32.9083 4.40277C27.6873 7.76478 23.7319 12.5677 20.6468 17.9309C16.9288 24.4948 16.6124 31.619 15.8213 38.9834C15.4258 42.5856 14.3974 46.0276 12.8944 49.3096C11.5496 52.3514 9.65106 55.1531 8.70179 58.355C7.67341 61.8771 8.62268 64.5187 10.5212 67.4805C12.3407 70.4422 11.3914 73.0838 10.363 76.1256C9.33464 79.0874 8.86 82.0492 10.1257 85.0109C11.3123 87.7326 13.7646 89.5737 16.6124 90.2941C17.0079 90.3742 18.1945 89.4936 17.6408 89.4136C14.9512 88.7732 12.6571 86.9321 11.5496 84.3706C10.2839 81.5689 10.7585 78.6872 11.7078 75.8855C12.4989 73.6442 13.5273 71.3228 12.8153 68.9213C12.4198 67.4805 11.3914 66.3598 10.6794 65.079C9.88838 63.4781 9.49285 61.7971 9.73017 59.956C10.1257 56.674 11.9451 53.7923 13.369 50.9106C14.7139 48.1889 15.9004 45.3072 16.6124 42.2654C17.4035 38.9834 17.4826 35.6214 17.799 32.2594C18.1945 28.6573 18.8274 24.9751 20.1722 21.6131C22.7827 14.9691 27.6081 8.8054 33.5411 4.88306C34.4113 4.24268 33.462 4.08258 32.9083 4.40277Z" fill="black"/>
<path d="M19.3812 53.3118C17.9573 56.5137 15.6632 58.5149 12.5781 60.0358C11.787 60.4361 12.1035 61.0765 12.8945 60.6762C12.9736 60.5962 13.1318 60.5962 13.2109 60.5161C14.002 60.1159 13.6856 59.4755 12.8945 59.8757C12.8154 59.9558 12.6572 59.9558 12.5781 60.0358C12.6572 60.276 12.8154 60.4361 12.8945 60.6762C16.3752 58.9152 19.0648 56.5938 20.6469 52.9916C20.9633 52.4313 19.5394 52.8315 19.3812 53.3118Z" fill="black"/>
<path d="M13.7643 60.0357C14.6345 62.9174 15.9002 67.4001 19.5391 67.4802C19.9346 67.4802 21.1212 66.5996 20.251 66.5196C17.0868 66.5196 15.8211 61.7968 15.1091 59.3153C15.03 58.9151 13.6852 59.5554 13.7643 60.0357Z" fill="black"/>
<path d="M60.0415 2.40143C67.3984 3.60215 74.0433 7.76464 78.8688 13.448C81.4793 16.4098 83.4569 19.8519 84.8808 23.5341C86.2256 27.1362 87.0167 30.8985 87.8869 34.5807C88.8361 38.503 89.9436 42.3453 91.8422 45.8674C93.6616 49.1494 96.193 51.951 98.0124 55.3131C99.7528 58.595 101.177 62.5174 100.307 66.2796C99.5946 69.3214 96.7467 71.4827 96.9841 74.7647C97.1423 76.8459 98.0915 78.7671 98.5662 80.7683C98.9617 82.6094 99.0408 84.6906 98.5662 86.6118C97.5378 90.2139 94.2945 91.7348 90.8929 92.4553C90.4183 92.5353 89.469 93.4959 90.4974 93.3358C93.1079 92.8555 95.7975 91.8949 97.696 89.9738C99.7528 87.8925 100.465 85.0909 100.227 82.2091C100.069 80.2079 99.3572 78.3668 98.8035 76.4457C98.1707 74.2043 98.2498 72.4433 99.4363 70.4421C100.227 69.0813 101.177 67.8005 101.572 66.2796C102.047 64.5186 102.047 62.6775 101.651 60.9164C100.86 56.9941 98.8035 53.472 96.5885 50.27C95.3228 48.509 93.978 46.7479 92.9497 44.8268C92.0004 42.9857 91.2093 40.9845 90.5765 38.9833C89.3108 34.9809 88.5988 30.8184 87.4913 26.816C86.3047 22.6535 84.6435 18.7312 82.1121 15.2091C77.1284 8.24492 69.5342 2.96177 61.0699 1.60095C60.5953 1.44086 59.4087 2.32138 60.0415 2.40143Z" fill="black"/>
<path d="M37.8128 50.5101C38.5247 47.1481 34.7276 43.706 34.3321 49.3894C34.0157 53.8721 36.9426 53.632 37.7337 50.8303C37.6546 50.9904 37.5755 51.2305 37.4963 51.3906L37.8128 50.5101ZM35.6769 49.0692C35.9142 46.0274 37.971 47.8685 37.5755 49.7096C37.5755 49.8697 37.4963 50.0298 37.4172 50.1899L37.5755 49.7096C36.9426 51.3106 35.5187 51.5507 35.6769 49.0692Z" fill="black"/>
<path d="M38.129 50.3501C38.3663 49.1494 38.129 47.7886 37.338 46.828C36.7842 46.1076 35.9141 45.8674 35.123 46.4277C33.9364 47.3083 33.8573 49.3095 33.9364 50.5902C34.0155 51.6309 34.411 53.0717 35.6767 53.0717C36.9424 52.9917 37.7335 51.791 38.0499 50.6703C38.129 50.5102 37.4171 50.6703 37.338 50.9104C37.2589 51.0705 37.1798 51.3107 37.1006 51.4708C37.338 51.3907 37.5753 51.3907 37.7335 51.3107C37.8917 50.9905 37.9708 50.6703 38.129 50.3501C38.2081 50.11 37.4962 50.3501 37.4171 50.5902C37.338 50.9104 37.2589 51.1506 37.1006 51.4708C37.0215 51.791 37.6544 51.4708 37.7335 51.3107C37.8126 51.1506 37.8917 50.9104 37.9708 50.7503C37.7335 50.8304 37.4962 50.9104 37.2589 50.9905C37.0215 51.871 36.1514 53.3119 35.123 52.2712C34.1737 51.2306 34.411 48.9893 34.7275 47.7085C34.8066 47.3083 35.0439 46.5878 35.5976 46.5878C35.9932 46.5878 36.3887 46.9881 36.626 47.3083C37.338 48.2689 37.5753 49.5496 37.338 50.6703C37.4171 50.8304 38.0499 50.5902 38.129 50.3501Z" fill="black"/>
<path d="M35.9931 48.9093C35.9931 48.6692 36.0722 48.349 36.0722 48.1089C36.1513 47.9488 36.2305 47.7887 36.3096 47.6286C36.3096 47.5485 36.3887 47.7086 36.2305 47.6286H36.3096C36.3887 47.7086 36.5469 47.7086 36.626 47.7887C37.1006 48.269 37.2588 49.0694 37.1006 49.7098C37.0215 49.95 37.7335 49.7098 37.8126 49.4697C37.8917 49.1495 37.2588 49.3896 37.1797 49.6298C37.1006 49.7899 37.1006 49.95 37.0215 50.1101C37.2588 50.03 37.4961 50.03 37.6544 49.95C37.7335 49.7899 37.7335 49.6298 37.8126 49.4697C37.5753 49.5497 37.3379 49.5497 37.1797 49.6298C37.1006 49.8699 36.7842 50.6704 36.4678 50.5904C35.914 50.5103 35.9931 49.3096 35.9931 48.9093C35.9931 48.6692 35.2812 48.9093 35.2812 49.1495C35.2812 49.7899 35.2021 51.1507 36.1513 51.1507C37.0215 51.1507 37.5753 50.2702 37.8126 49.5497C37.8917 49.2295 37.2588 49.4697 37.1797 49.7098C37.1006 49.8699 37.1006 50.03 37.0215 50.1901C36.9424 50.5103 37.5753 50.1901 37.6544 50.03C37.7335 49.8699 37.7335 49.7098 37.8126 49.5497C37.5753 49.6298 37.3379 49.6298 37.1797 49.7098C37.417 49.6298 37.6544 49.5497 37.8917 49.4697C38.0499 48.6692 37.8126 47.4685 36.9424 47.1483C36.5469 46.9882 36.1513 47.2283 35.8349 47.4685C35.4394 47.8687 35.3603 48.5091 35.2812 49.0694C35.2812 49.3896 35.9931 49.1495 35.9931 48.9093Z" fill="black"/>
<path d="M38.1293 54.0323C37.7338 55.8734 36.3099 57.2342 34.9651 58.2748C34.174 58.9152 35.0442 59.0753 35.5979 58.675C37.3382 57.3943 39.0786 55.7133 39.5532 53.552C39.6323 53.0717 38.2084 53.552 38.1293 54.0323Z" fill="black"/>
<path d="M45.9608 66.2796C47.7012 68.681 50.4699 70.6822 53.555 70.1219C56.4028 69.5615 58.6178 67.0801 59.4089 64.2784C60.4373 60.8363 58.2223 57.8745 56.5611 55.0729C55.5327 53.3118 54.6625 51.4707 54.4252 49.3895C54.1088 46.8279 54.5834 44.2664 55.2954 41.7849C55.3745 41.3847 54.0297 41.7849 53.8715 42.2652C52.9222 45.7073 52.3684 49.5496 53.7132 52.9116C54.7416 55.5532 56.7193 57.7945 57.7477 60.5161C58.8551 63.3978 57.8268 67.7204 54.6625 69.0012C51.8147 70.1219 48.8878 67.7204 47.3056 65.5591C46.9892 65.1589 45.7235 65.9594 45.9608 66.2796Z" fill="black"/>
<path d="M59.7251 72.7633C57.2728 76.2053 53.3966 77.2459 49.3622 76.2854C46.8308 75.725 44.8531 74.2041 43.1128 72.283C42.7963 71.8828 41.5307 72.6832 41.768 73.0034C44.1412 75.725 46.989 77.326 50.6279 77.4861C54.7414 77.7262 58.4594 76.0452 60.9116 72.6832C61.3863 72.0428 60.0415 72.4431 59.7251 72.7633Z" fill="black"/>
</svg>
