<svg width="61" height="59" viewBox="0 0 61 59" fill="none" xmlns="http://www.w3.org/2000/svg">
<path d="M30.1888 0C13.7124 0 0.362061 11.4843 0.362061 25.646C0.362061 33.4816 4.45184 40.4771 10.873 45.189C10.6126 49.2052 8.91933 53.7989 2.44602 58.5632C13.0091 59.0226 20.1988 53.5889 23.3378 50.6095C25.5389 51.0558 27.8183 51.292 30.1758 51.292C46.6521 51.292 60.0025 39.8078 60.0025 25.646C60.0025 11.4843 46.6651 0 30.1888 0Z" fill="#2B3021"/>
<path d="M12.8005 13.2955H13.8555V15.5661H12.8005C12.501 14.7523 11.98 14.3455 11.2506 14.3455C10.6384 14.3455 10.1826 14.5555 9.86997 14.9886C9.55738 15.4217 9.40108 15.9336 9.40108 16.5373C9.40108 17.1673 9.5704 17.6661 9.89602 18.0598C10.2216 18.4536 10.6515 18.6373 11.1594 18.6373C11.5762 18.6373 11.9409 18.4929 12.2535 18.1911C12.5661 17.9023 12.7745 17.4954 12.8917 16.9705L14.116 17.5742C13.6471 19.0704 12.6312 19.8186 11.0422 19.8186C9.92207 19.8186 9.07546 19.5036 8.5154 18.8867C7.94231 18.2567 7.65576 17.4692 7.65576 16.5242C7.65576 15.8417 7.79903 15.2511 8.0986 14.7392C8.39817 14.2274 8.78892 13.8467 9.29688 13.5842C9.79182 13.3217 10.3389 13.2036 10.938 13.2036C11.6804 13.2036 12.3056 13.4005 12.8005 13.8074V13.2955V13.2955Z" fill="white"/>
<path d="M14.2985 14.3848V13.2955H17.2681V14.3848H16.6559V17.2986C16.6559 17.6923 16.669 17.9679 16.708 18.1386C16.7341 18.3092 16.8253 18.4535 16.9555 18.5585C17.0858 18.6635 17.2551 18.7292 17.4635 18.7292C17.6719 18.7292 17.8542 18.6767 17.9975 18.5717C18.1408 18.4667 18.2319 18.3354 18.271 18.1779C18.3101 18.0204 18.3361 17.7054 18.3361 17.2198V14.3848H17.737V13.2955H20.2117V14.3848H19.4563V17.6136C19.4563 18.0467 19.4302 18.3748 19.3911 18.5717C19.3521 18.7685 19.2479 18.9654 19.0785 19.1623C18.9222 19.3592 18.6878 19.5167 18.3752 19.6348C18.0756 19.7529 17.724 19.8185 17.3202 19.8185C16.8643 19.8185 16.4736 19.7529 16.148 19.6217C15.8224 19.4904 15.5879 19.3067 15.4316 19.0835C15.2753 18.8604 15.1711 18.6373 15.132 18.4142C15.093 18.1911 15.0669 17.8236 15.0669 17.2986V14.3848H14.2985Z" fill="white"/>
<path d="M26.2813 18.6635V19.7529H23.2205V18.6635H24.015L23.7154 17.5611H22.1134L21.7878 18.6635H22.6214V19.7529H19.8601V18.6635H20.6286L21.8399 14.398H21.0063V13.3086H25.07V14.398H24.2364L25.5389 18.6635H26.2813ZM23.468 16.6029L22.947 14.6605L22.3869 16.6029H23.468Z" fill="white"/>
<path d="M26.2943 19.7529V18.6635H27.1279V14.398H26.2943V13.3086H28.9123L31.2047 17.3248V14.398H30.3971V13.3086H33.1844V14.398H32.3118V19.8054H30.9311L28.248 15.028V18.6767H29.0295V19.766H26.2943V19.7529Z" fill="white"/>
<path d="M34.4347 19.7529V18.6635H35.3725V14.398H34.4347V15.8942H33.3667V13.3086H39.0064V15.8942H37.9514V14.398H36.9876V18.6635H37.9254V19.7529H34.4347Z" fill="white"/>
<path d="M42.7316 13.2036C43.7996 13.2036 44.6462 13.5186 45.2714 14.1617C45.8835 14.8048 46.1961 15.5923 46.1961 16.5111C46.1961 17.4429 45.8835 18.2173 45.2714 18.8604C44.6592 19.5036 43.8126 19.8186 42.7316 19.8186C41.6245 19.8186 40.7648 19.4904 40.1657 18.8342C39.5665 18.1779 39.267 17.4036 39.267 16.5111C39.267 15.5923 39.5796 14.8048 40.1917 14.1617C40.8039 13.5186 41.6505 13.2036 42.7316 13.2036ZM42.7316 14.3717C42.2496 14.3717 41.8459 14.5555 41.5203 14.923C41.1946 15.2905 41.0253 15.8417 41.0253 16.5505C41.0253 17.1805 41.1946 17.6923 41.5203 18.0729C41.8459 18.4536 42.2496 18.6373 42.7446 18.6373C43.2265 18.6373 43.6303 18.4536 43.9559 18.0729C44.2945 17.7054 44.4508 17.1673 44.4508 16.4586C44.4508 15.8286 44.2945 15.3167 43.9689 14.9361C43.6563 14.5686 43.2395 14.3717 42.7316 14.3717Z" fill="white"/>
<path d="M7.51257 28.061V26.9716H8.25498V22.706H7.51257V21.6166H12.996V23.6641H11.8107V22.706H9.88308V24.1891H11.446V25.2785H9.88308V26.9716H11.8107V26.0135H12.996V28.061H7.51257V28.061Z" fill="white"/>
<path d="M13.53 28.061V25.856H14.585C14.598 26.2629 14.7022 26.5516 14.8845 26.7485C15.0799 26.9322 15.2883 27.0372 15.5358 27.0372C15.7312 27.0372 15.8875 26.9716 16.0177 26.8272C16.148 26.696 16.2131 26.5254 16.2131 26.3416C16.2131 26.1447 16.148 25.9741 16.0177 25.8429C15.8875 25.7116 15.653 25.5541 15.3144 25.3835C14.598 25.0291 14.1031 24.701 13.8556 24.4254C13.5951 24.1498 13.4648 23.7823 13.4648 23.3098C13.4648 22.7454 13.6342 22.3123 13.9728 21.9973C14.3115 21.6823 14.7022 21.5379 15.132 21.5379C15.627 21.5379 16.0177 21.7348 16.2782 22.1416V21.6035H17.3332V23.5591H16.2782C16.2391 23.2573 16.1479 23.021 15.9786 22.8504C15.8093 22.6798 15.6139 22.601 15.3925 22.601C15.2232 22.601 15.0669 22.6535 14.9497 22.7454C14.8324 22.8373 14.7673 22.9685 14.7673 23.126C14.7673 23.2573 14.8194 23.3885 14.9106 23.5066C15.0148 23.6248 15.3013 23.7954 15.7702 24.0185C16.2261 24.2285 16.5778 24.4254 16.8252 24.596C17.0727 24.7666 17.2681 24.9897 17.4114 25.2654C17.5546 25.541 17.6198 25.856 17.6198 26.2104C17.6198 26.8535 17.4374 27.326 17.0857 27.6541C16.7341 27.9691 16.3042 28.1397 15.8093 28.1397C15.2623 28.1397 14.8455 27.9297 14.5459 27.5097V28.061H13.53V28.061Z" fill="white"/>
<path d="M19.0785 28.061V26.9716H20.0163V22.706H19.0785V24.2022H18.0105V21.6166H23.6502V24.2022H22.5952V22.706H21.6314V26.9716H22.5692V28.061H19.0785Z" fill="white"/>
<path d="M29.8371 26.9716V28.061H26.7762V26.9716H27.5708L27.2712 25.8691H25.6561L25.3305 26.9716H26.1641V28.061H23.4028V26.9716H24.1713L25.3826 22.706H24.549V21.6166H28.6127V22.706H27.7792L29.0816 26.9716H29.8371ZM27.0237 24.911L26.5027 22.9685L25.9427 24.911H27.0237Z" fill="white"/>
<path d="M31.9601 28.061V26.9716H32.7025V22.706H31.9601V21.6166H37.4435V23.6641H36.2583V22.706H34.3306V24.1891H35.8936V25.2785H34.3306V26.9716H36.2583V26.0135H37.4435V28.061H31.9601V28.061Z" fill="white"/>
<path d="M37.7952 28.061V26.9716H38.6809V22.706H37.7952V21.6166H41.2207V22.706H40.3089V26.9716H42.1454V24.9766H43.3567V28.061H37.7952V28.061Z" fill="white"/>
<path d="M7.42139 36.369V35.2796H8.35917V31.014H7.42139V29.9247H10.365C10.9902 29.9247 11.4851 29.9641 11.8628 30.0428C12.2405 30.1216 12.6052 30.2922 12.9569 30.5678C13.3086 30.8434 13.5821 31.1978 13.7905 31.6572C13.9989 32.1165 14.1031 32.6153 14.1031 33.1665C14.1031 33.6128 14.0249 34.0459 13.8817 34.4528C13.7384 34.8596 13.5561 35.1878 13.3346 35.4371C13.1262 35.6865 12.8657 35.8834 12.5531 36.0278C12.2536 36.1721 11.9801 36.264 11.7196 36.3165C11.4721 36.3559 11.0813 36.3821 10.5473 36.3821H7.42139V36.369ZM9.98727 35.2796H10.378C10.8469 35.2796 11.2246 35.214 11.4981 35.0828C11.7717 34.9515 11.9931 34.7284 12.1624 34.4134C12.3317 34.0984 12.4099 33.6784 12.4099 33.1534C12.4099 32.6678 12.3317 32.2478 12.1624 31.9065C11.9931 31.5653 11.7717 31.329 11.4721 31.1978C11.1855 31.0665 10.8209 31.0009 10.378 31.0009H9.98727V35.2796V35.2796Z" fill="white"/>
<path d="M18.2318 29.8197C19.2999 29.8197 20.1465 30.1347 20.7717 30.7778C21.3838 31.4209 21.6964 32.2084 21.6964 33.1272C21.6964 34.059 21.3838 34.8334 20.7717 35.4765C20.1595 36.1197 19.3129 36.4346 18.2449 36.4346C17.1378 36.4346 16.2781 36.1065 15.679 35.4503C15.0798 34.794 14.7803 34.0197 14.7803 33.1272C14.7803 32.2084 15.0798 31.4209 15.705 30.7778C16.3042 30.1347 17.1508 29.8197 18.2318 29.8197ZM18.2318 30.9878C17.7499 30.9878 17.3462 31.1716 17.0205 31.5391C16.6819 31.9066 16.5256 32.4578 16.5256 33.1666C16.5256 33.7965 16.6949 34.3084 17.0205 34.689C17.3462 35.0697 17.7499 35.2534 18.2449 35.2534C18.7268 35.2534 19.1305 35.0697 19.4562 34.689C19.7948 34.3215 19.9641 33.7834 19.9641 33.0747C19.9641 32.4447 19.8078 31.9459 19.4822 31.5522C19.1566 31.1847 18.7398 30.9878 18.2318 30.9878Z" fill="white"/>
<path d="M22.1785 36.369V35.2796H23.0642V31.014H22.1785V29.9247H25.591V31.014H24.6792V35.2796H26.5157V33.2847H27.727V36.369H22.1785V36.369Z" fill="white"/>
<path d="M34.018 35.2796V36.369H30.9572V35.2796H31.7517L31.4521 34.1771H29.837L29.5114 35.2796H30.345V36.369H27.5837V35.2796H28.3522L29.5635 31.014H28.7299V29.9247H32.7936V31.014H31.9601L33.2625 35.2796H34.018ZM31.2046 33.219L30.6836 31.2765L30.1236 33.219H31.2046Z" fill="white"/>
<path d="M40.4912 35.2796V36.369H38.5896L37.1829 33.5471H36.4665V35.2796H37.248V36.369H33.9918V35.2796H34.8515V31.014H33.9918V29.9247H37.743C38.4463 29.9247 38.9543 30.1084 39.2669 30.4759C39.5795 30.8434 39.7357 31.2634 39.7357 31.7359C39.7357 32.4709 39.3711 33.009 38.6547 33.3372L39.6706 35.2796H40.4912V35.2796ZM36.4665 32.5103H37.0266C37.7169 32.5103 38.0556 32.2609 38.0556 31.749C38.0556 31.4997 37.9774 31.3159 37.8211 31.1847C37.6648 31.0665 37.4434 31.0009 37.1699 31.0009H36.4665V32.5103Z" fill="white"/>
<path d="M41.1165 36.369V34.8203H42.6143V36.369H41.1165Z" fill="white"/>
<path d="M46.3785 37.3534V38.3903H43.3959V37.3534H44.1253V32.9041H43.5131V31.8672H45.5059V32.4316C45.8836 32.0116 46.3134 31.8016 46.7953 31.8016C47.3684 31.8016 47.8243 32.0378 48.1499 32.5103C48.4755 32.9828 48.6448 33.5341 48.6448 34.1641C48.6448 34.8334 48.4755 35.3847 48.1369 35.8178C47.7982 36.2509 47.3424 36.474 46.7823 36.474C46.3134 36.474 45.8966 36.2903 45.5189 35.9097V37.3665H46.3785V37.3534ZM47.2382 34.1378C47.2382 33.7441 47.16 33.4553 47.0037 33.2584C46.8474 33.0616 46.639 32.9697 46.3785 32.9697C46.118 32.9697 45.9097 33.0747 45.7534 33.2716C45.5971 33.4684 45.5059 33.7703 45.5059 34.1641C45.5059 34.5184 45.584 34.8072 45.7534 35.0172C45.9097 35.2403 46.1311 35.3453 46.3916 35.3453C46.639 35.3453 46.8474 35.2534 47.0037 35.0565C47.147 34.8465 47.2382 34.5447 47.2382 34.1378Z" fill="white"/>
<path d="M52.5652 35.0172L53.6332 35.3715C53.1773 36.1065 52.474 36.474 51.5232 36.474C50.7547 36.474 50.1686 36.264 49.7388 35.844C49.309 35.424 49.1006 34.8728 49.1006 34.2034C49.1006 33.5078 49.322 32.9303 49.7648 32.4709C50.2077 32.0116 50.7678 31.7753 51.4581 31.7753C51.953 31.7753 52.3828 31.9066 52.7475 32.1691C53.1122 32.4316 53.3597 32.7466 53.503 33.1403C53.6462 33.5209 53.7114 33.9541 53.7114 34.4266H50.4812C50.5073 34.8334 50.6245 35.1222 50.8589 35.2928C51.0934 35.4634 51.3278 35.5422 51.5883 35.5422C51.9009 35.5422 52.2265 35.3584 52.5652 35.0172ZM52.3047 33.6259C52.2786 33.3766 52.1744 33.1666 52.0181 32.9828C51.8618 32.8122 51.6534 32.7203 51.3799 32.7203C50.872 32.7203 50.5724 33.0222 50.4942 33.6259H52.3047V33.6259Z" fill="white"/>
</svg>
