<svg width="57" height="58" viewBox="0 0 57 58" fill="none" xmlns="http://www.w3.org/2000/svg">
<path d="M43.8177 53.5875C45.8886 52.9444 47.5688 54.9132 49.6007 54.8344C51.5414 54.7557 53.0783 53.0626 53.5993 51.2776C53.964 50.057 53.6514 48.7313 53.7426 47.4714C53.8468 45.8964 54.3027 45.7782 55.2274 44.7151C57.2593 42.392 56.9206 39.6752 55.8396 36.9058C54.4589 33.3752 51.88 29.7659 51.4372 26.7865C51.4372 26.7865 51.0855 23.1772 50.9944 21.4447C50.9032 19.7122 50.4343 17.2841 49.4835 15.5254C49.4835 15.5254 49.2621 13.3992 48.6629 12.4279C48.0638 11.4698 47.647 10.4723 46.8395 9.3567C46.0319 8.22796 45.3025 7.62422 44.7034 7.04673C44.1303 6.48236 43.4921 5.87861 43.453 5.83924C37.5658 0.221788 29.0216 -0.867576 21.9621 3.16176C20.282 4.11988 18.6018 4.9205 17.0258 6.08861C15.1241 7.49297 13.8868 9.43545 12.4931 11.3123C11.5163 12.6248 10.9041 14.0554 10.6566 15.6698C10.3962 17.2973 10.7218 19.1347 10.0184 20.6703C8.58571 23.7941 5.55094 25.2903 4.45685 28.7553C3.33672 32.3646 3.46697 36.3021 1.65653 39.7014C-0.375335 43.5076 -0.805152 47.7207 1.89097 51.3038C3.36277 53.2594 9.02855 58.9687 11.894 56.0813C14.7334 53.2201 18.1589 53.2069 19.2921 51.6319C20.4252 50.057 20.4122 46.6707 20.4122 46.6707" fill="#2B3021"/>
<path d="M41.4602 4.8286C39.8582 4.04111 38.0347 4.02798 36.3285 3.52923C32.4341 2.37425 28.7871 2.76799 25.1793 4.55298C22.913 5.66859 21.2197 7.55857 20.9071 10.1442C20.4904 13.7141 21.5975 17.271 21.4542 20.841C21.363 22.9672 20.1126 23.9909 18.9665 25.6184C17.9505 27.0621 17.4816 30.094 18.198 31.7215C18.4064 32.194 19.0186 32.7846 18.4455 33.2702C17.6379 33.9396 17.4165 32.404 16.4657 33.1521C15.7493 33.7165 15.6191 34.7139 15.8535 35.5408C16.0229 36.1183 16.3615 36.6696 16.7522 37.1158C16.8434 37.2208 17.8854 38.0345 17.8854 38.0345L17.7161 42.1295C17.7161 42.1295 17.8854 45.7782 24.1764 51.3169C30.4673 56.8556 28.4355 55.7006 35.0781 56.685C35.0781 56.685 38.3343 56.79 38.725 56.265C39.1288 55.7531 40.8871 54.69 41.1216 54.165C41.356 53.64 41.6947 54.1256 41.9812 53.7188C42.2678 53.3119 42.4371 52.4982 42.4371 52.4982L43.2967 50.2538C43.2967 50.2538 44.4429 48.6394 45.2374 47.5501C45.2374 47.5501 47.647 44.1507 48.155 43.2189C48.6629 42.3001 49.8742 35.8952 49.8742 35.0289C49.8742 34.1627 49.9263 31.3409 49.9915 30.5271C50.0436 29.7134 49.757 29.149 49.6528 28.0465C49.5356 26.944 49.0797 26.7734 49.1318 26.1434C49.1839 25.5134 49.3011 20.7753 49.3011 19.2791C49.3011 17.7829 48.4936 14.9479 48.2722 13.7404C48.0377 12.5329 46.2664 9.69793 45.6412 8.94981C44.5211 7.6242 43.5051 6.10171 42.0333 5.1436C41.851 5.0386 41.6556 4.9336 41.4602 4.8286Z" fill="white"/>
<path d="M43.4791 39.4127C42.9191 39.2289 42.4241 38.8352 41.838 38.7302C41.3431 38.6383 40.8481 38.7827 40.3532 38.7958C39.6759 38.8089 38.9856 38.7958 38.3083 38.7171C37.8915 38.6646 37.4747 38.5858 37.0579 38.5858C36.6411 38.5858 36.2374 38.7302 35.8336 38.7433C34.9609 38.7696 34.2315 38.4021 33.3459 38.5858C32.6425 38.7302 32.0434 38.5202 31.7308 37.8377C31.6396 37.6408 33.0333 37.6933 33.1244 37.7196C33.6975 37.8377 34.2315 38.0739 34.8177 38.1133C35.4559 38.1658 36.042 38.4546 36.6932 38.2839C37.123 38.1658 37.5008 37.9164 37.9306 37.8114C38.3995 37.6933 38.8684 37.8114 39.3373 37.9296C39.6759 38.0083 39.9885 38.2314 40.3402 38.2183C40.6788 38.2052 40.9653 37.9952 41.2649 37.8639C41.7729 37.6408 42.1636 38.0477 42.6325 38.1658C42.359 37.5883 42.1506 37.1421 42.2678 36.4858C42.359 35.9346 42.6586 35.1865 42.1897 34.714C41.812 34.3202 41.1607 34.4252 40.7049 34.1759C40.7439 35.0158 41.0174 36.5777 40.4313 37.2865C40.1318 37.6539 39.5977 37.3389 39.4024 37.0371C39.1158 36.5908 39.4675 36.0396 39.6368 35.6065C40.0015 34.6221 40.0276 33.7821 39.0637 33.1915C38.5427 32.8765 37.9827 33.0602 37.4226 33.0865C36.8625 33.1127 36.4327 32.9027 35.9899 32.5615C35.4559 32.1546 35.2214 31.6428 35.2344 30.9603C35.2344 30.9603 37.0319 32.3252 38.2953 32.2727C39.5587 32.2202 40.6397 32.3515 41.3561 31.9184C41.3561 31.9184 42.4111 31.459 42.6976 30.829C42.9842 30.199 42.1767 28.6372 42.1767 28.6372C42.1767 28.6372 41.6557 27.4297 41.6557 26.7865C41.6557 26.1566 41.7729 24.0303 41.2519 22.8228C41.2519 22.8228 42.0594 19.371 41.7729 19.7779C41.7729 19.7779 43.5443 19.4104 44.1694 19.0035C44.7946 18.5966 45.537 18.3079 45.9408 18.426C45.9017 18.4129 45.9538 16.3391 45.9538 16.1029C45.9799 14.3179 46.2143 12.5723 45.7975 10.8136C45.4198 9.19921 44.5993 7.72922 43.5312 6.48236C44.3909 7.51923 45.016 8.21485 45.6543 8.96296C46.2795 9.71108 48.0638 12.5329 48.2853 13.7535C48.5197 14.961 49.3142 17.796 49.3142 19.2922C49.3142 20.7885 49.197 25.5266 49.1449 26.1566C49.0928 26.7865 49.5487 26.9703 49.6659 28.0597C49.7831 29.149 50.0697 29.7265 50.0045 30.5403C49.9524 31.3409 49.8873 34.1759 49.8873 35.0421C49.8873 35.9083 48.689 42.3133 48.168 43.232C47.2303 44.9251 46.0711 46.4739 45.1202 48.167C44.1955 49.8076 43.3098 51.4876 42.1767 52.9838C41.5384 53.8238 40.8351 54.6113 40.0145 55.2807C37.0579 57.7088 33.1375 57.2625 29.764 55.8188C28.8784 55.4382 28.5006 55.1625 28.175 54.8213C28.175 54.5982 27.9276 53.8894 29.1649 51.4613C29.9985 49.8207 30.259 48.2851 29.8682 46.8939C29.6468 46.1064 29.217 45.3714 28.5527 44.6889C27.3414 43.4289 28.6048 43.442 30.1808 45.0301C31.5224 46.3951 32.7988 47.9176 34.8177 48.1276C36.4458 48.2982 38.0348 47.7207 39.6498 47.7076C40.8481 47.6945 42.1376 47.6945 43.2577 47.2089C43.8568 46.9464 44.3518 46.4739 44.5732 45.8439C44.8858 44.9776 45.3938 42.9564 45.2896 42.0508C45.2244 41.447 44.9119 40.9614 44.7165 40.397C44.6123 40.0952 44.6123 39.4914 44.1825 39.4914" fill="#A0A0A0"/>
<path d="M26.2734 23.9122C27.0028 23.9909 27.5889 23.8334 28.136 23.3216C28.7872 22.7178 29.0998 21.7597 29.8422 21.2741C30.8712 20.6047 32.4342 20.6572 33.5543 21.0903C34.44 21.4316 34.974 22.7572 35.1042 23.6366C35.1563 24.0303 35.1954 24.2928 35.5601 24.5028C35.7034 23.9384 35.9769 23.3741 35.9899 22.7834C36.042 21.5103 35 20.5128 33.8018 20.3291C33.1114 20.2241 32.4211 20.211 31.7438 20.3028C31.0796 20.3947 30.3762 20.526 29.8031 20.8935C28.8002 21.5234 28.2662 22.5734 27.4847 23.4266C27.1852 23.7416 26.7033 23.8072 26.2734 23.9122Z" fill="#2B3021"/>
<path d="M28.9174 23.9516C28.9174 23.9516 29.4123 24.1484 29.9073 23.7547C29.9073 23.7547 30.0635 24.6341 31.353 24.6341C32.6425 24.6341 32.7076 23.1509 32.3299 22.7703C32.3299 22.7703 33.2416 22.6916 33.6193 23.3084C33.997 23.9253 34.1403 24.7653 35.1562 24.8572C35.1562 24.8572 35.3125 24.7522 35.1172 24.6341C34.7134 24.3847 34.5571 23.8597 34.4008 23.4266C33.997 22.2716 32.5643 22.0747 31.5093 22.0747C30.0766 22.0747 29.3863 23.5184 29.2169 23.6366C29.0606 23.7547 28.8783 23.8991 28.8783 23.8991" fill="#2B3021"/>
<path d="M41.9291 31.5902C41.9291 31.5902 42.7497 31.1571 42.7106 30.3433C42.6716 29.5296 41.7598 28.0202 41.7207 27.4034C41.6165 25.5134 40.8741 23.6759 40.9523 21.799C40.9783 21.1822 41.0956 20.4472 41.4993 19.9616C42.0464 19.3053 43.2056 19.3184 43.948 19.0297C45.2374 18.5441 46.9958 17.7828 48.0378 19.1478C48.4676 19.7253 48.7671 20.6047 48.7151 21.3265C48.0768 20.3028 47.1 19.4234 45.8496 19.9091C44.7034 20.3553 43.1014 21.2872 42.7237 22.5865C42.2548 24.214 42.7237 25.8415 43.0753 27.4427C43.3488 28.6765 44.3257 30.7502 42.8669 31.3671L41.9291 31.5902Z" fill="#2B3021"/>
<path d="M46.9958 24.4241C46.6571 23.2953 44.2866 22.2716 42.9711 23.4266C42.9711 23.4266 42.9321 25.5134 44.7816 25.2903C46.045 25.1459 45.537 23.4791 45.537 23.4791C45.5891 23.6628 46.1492 23.9253 46.2794 24.1222C46.5139 24.4503 46.605 25.6053 46.2143 25.8284C46.2143 25.8415 47.3344 25.5528 46.9958 24.4241Z" fill="#2B3021"/>
<path d="M28.4354 20.2766C28.8392 20.2109 29.1648 19.6072 29.3732 19.3053C29.8291 18.6491 30.4022 17.9666 31.2227 17.796C32.5643 17.5335 33.6063 18.6884 34.8697 18.8591C35.2344 18.9116 35.6511 18.8722 35.9768 19.0691C35.5469 19.4759 35.052 19.6991 34.4659 19.7122C33.8928 19.7253 33.3197 19.5809 32.7466 19.5547C32.2517 19.5284 31.7567 19.5678 31.2878 19.6991C30.7408 19.8434 30.298 20.2503 29.7249 20.2766C29.2951 20.2897 28.8652 20.2109 28.4354 20.2766Z" fill="#2B3021"/>
</svg>
