<svg width="86" height="56" viewBox="0 0 86 56" fill="none" xmlns="http://www.w3.org/2000/svg">
<path d="M33.645 52.3802C35.2351 51.8863 36.5253 53.398 38.0854 53.3376C39.5756 53.2771 40.7557 51.9771 41.1557 50.6065C41.4357 49.6692 41.1957 48.6514 41.2657 47.6839C41.3457 46.4746 41.6958 46.3839 42.4058 45.5676C43.966 43.7838 43.7059 41.6977 42.8759 39.5713C41.8158 36.8603 39.8356 34.0889 39.4956 31.8013C39.4956 31.8013 39.2255 29.0299 39.1555 27.6996C39.0855 26.3693 38.7255 24.5049 37.9954 23.1545C37.9954 23.1545 37.8254 21.5219 37.3653 20.7762C36.9053 20.0405 36.5853 19.2746 35.9652 18.4179C35.3452 17.5513 34.7851 17.0877 34.3251 16.6443C33.885 16.2109 33.395 15.7473 33.365 15.7171C28.8445 11.4038 22.2839 10.5673 16.8634 13.6612C15.5733 14.3969 14.2832 15.0116 13.0731 15.9086C11.6129 16.9869 10.6628 18.4784 9.59273 19.9195C8.84266 20.9273 8.37262 22.0258 8.1826 23.2654C7.98258 24.515 8.2326 25.9259 7.69255 27.105C6.59245 29.5035 4.26223 30.6524 3.42215 33.3129C2.56207 36.0843 2.66208 39.1077 1.27195 41.7178C-0.288197 44.6404 -0.618228 47.8754 1.45197 50.6266C2.58207 52.1282 6.93248 56.5121 9.13269 54.2949C11.3129 52.098 13.9431 52.0879 14.8132 50.8786C15.6833 49.6692 15.6733 47.0692 15.6733 47.0692" fill="#2B3021"/>
<path d="M31.8349 14.9411C30.6048 14.3365 29.2046 14.3264 27.8945 13.9434C24.9042 13.0566 22.104 13.3589 19.3337 14.7295C17.5935 15.5861 16.2934 17.0373 16.0534 19.0226C15.7334 21.7638 16.5834 24.4949 16.4734 27.2361C16.4034 28.8687 15.4433 29.6547 14.5633 30.9044C13.7832 32.0129 13.4231 34.3409 13.9732 35.5906C14.1332 35.9534 14.6033 36.4069 14.1632 36.7797C13.5432 37.2937 13.3731 36.1146 12.6431 36.689C12.093 37.1224 11.993 37.8883 12.173 38.5232C12.303 38.9666 12.5631 39.3899 12.8631 39.7325C12.9331 39.8132 13.7332 40.438 13.7332 40.438L13.6032 43.5823C13.6032 43.5823 13.7332 46.3839 18.5636 50.6367C23.3941 54.8896 21.8339 54.0027 26.9344 54.7585C26.9344 54.7585 29.4347 54.8392 29.7347 54.4361C30.0447 54.043 31.3948 53.2267 31.5749 52.8236C31.7549 52.4205 32.0149 52.7934 32.2349 52.481C32.4549 52.1686 32.585 51.5437 32.585 51.5437L33.245 49.8204C33.245 49.8204 34.1251 48.5809 34.7352 47.7444C34.7352 47.7444 36.5853 45.1342 36.9754 44.4187C37.3654 43.7133 38.2955 38.7953 38.2955 38.1302C38.2955 37.465 38.3355 35.2983 38.3855 34.6735C38.4255 34.0487 38.2055 33.6153 38.1255 32.7688C38.0355 31.9222 37.6854 31.7912 37.7254 31.3075C37.7654 30.8238 37.8554 27.1857 37.8554 26.0368C37.8554 24.8879 37.2354 22.7111 37.0654 21.784C36.8854 20.8568 35.5252 18.68 35.0452 18.1056C34.1851 17.0877 33.405 15.9187 32.2749 15.183C32.1349 15.1024 31.9849 15.0217 31.8349 14.9411Z" fill="white"/>
<path d="M33.385 41.4961C32.9549 41.3551 32.5749 41.0527 32.1249 40.9721C31.7448 40.9016 31.3648 41.0124 30.9848 41.0225C30.4647 41.0326 29.9347 41.0225 29.4146 40.962C29.0946 40.9217 28.7745 40.8612 28.4545 40.8612C28.1345 40.8612 27.8245 40.9721 27.5144 40.9822C26.8444 41.0023 26.2843 40.7201 25.6043 40.8612C25.0642 40.9721 24.6042 40.8109 24.3641 40.2868C24.2941 40.1356 25.3642 40.1759 25.4342 40.1961C25.8743 40.2868 26.2843 40.4682 26.7344 40.4984C27.2244 40.5387 27.6744 40.7605 28.1745 40.6294C28.5045 40.5387 28.7946 40.3473 29.1246 40.2666C29.4846 40.1759 29.8447 40.2666 30.2047 40.3573C30.4647 40.4178 30.7047 40.5891 30.9748 40.5791C31.2348 40.569 31.4548 40.4077 31.6848 40.307C32.0749 40.1356 32.3749 40.448 32.7349 40.5387C32.5249 40.0953 32.3649 39.7527 32.4549 39.2488C32.5249 38.8255 32.7549 38.2511 32.3949 37.8883C32.1049 37.586 31.6048 37.6666 31.2548 37.4751C31.2848 38.1201 31.4948 39.3193 31.0448 39.8635C30.8147 40.1457 30.4047 39.9038 30.2547 39.6721C30.0347 39.3294 30.3047 38.9061 30.4347 38.5736C30.7147 37.8177 30.7347 37.1728 29.9947 36.7193C29.5946 36.4774 29.1646 36.6185 28.7345 36.6386C28.3045 36.6588 27.9745 36.4975 27.6344 36.2355C27.2244 35.9231 27.0444 35.5301 27.0544 35.006C27.0544 35.006 28.4345 36.0541 29.4046 36.0138C30.3747 35.9735 31.2048 36.0743 31.7548 35.7417C31.7548 35.7417 32.5649 35.389 32.7849 34.9053C33.0049 34.4215 32.3849 33.2223 32.3849 33.2223C32.3849 33.2223 31.9849 32.2951 31.9849 31.8013C31.9849 31.3176 32.0749 29.685 31.6748 28.7578C31.6748 28.7578 32.2949 26.1073 32.0749 26.4197C32.0749 26.4197 33.435 26.1376 33.915 25.8252C34.3951 25.5127 34.9651 25.291 35.2752 25.3817C35.2452 25.3716 35.2852 23.7794 35.2852 23.598C35.3052 22.2274 35.4852 20.887 35.1652 19.5366C34.8751 18.297 34.2451 17.1683 33.425 16.2109C34.085 17.0071 34.5651 17.5412 35.0551 18.1156C35.5352 18.6901 36.9053 20.8568 37.0753 21.794C37.2553 22.7212 37.8654 24.898 37.8654 26.0469C37.8654 27.1957 37.7754 30.8338 37.7354 31.3176C37.6954 31.8013 38.0454 31.9424 38.1354 32.7788C38.2254 33.6153 38.4455 34.0587 38.3955 34.6835C38.3554 35.2983 38.3054 37.4751 38.3054 38.1402C38.3054 38.8054 37.3854 43.7233 36.9853 44.4288C36.2653 45.7288 35.3752 46.918 34.6451 48.218C33.935 49.4778 33.255 50.7677 32.3849 51.9166C31.8948 52.5616 31.3548 53.1662 30.7247 53.6802C28.4545 55.5446 25.4442 55.202 22.854 54.0934C22.1739 53.8011 21.8839 53.5895 21.6339 53.3275C21.6339 53.1562 21.4439 52.612 22.3939 50.7476C23.034 49.4878 23.234 48.3087 22.934 47.2405C22.764 46.6358 22.434 46.0715 21.9239 45.5474C20.9938 44.58 21.9639 44.59 23.174 45.8094C24.2041 46.8575 25.1842 48.0266 26.7344 48.1878C27.9845 48.3188 29.2046 47.8754 30.4447 47.8653C31.3648 47.8552 32.3549 47.8552 33.215 47.4824C33.675 47.2808 34.055 46.918 34.2251 46.4343C34.4651 45.7691 34.8551 44.2171 34.7751 43.5218C34.7251 43.0582 34.4851 42.6853 34.3351 42.252C34.2551 42.0202 34.2551 41.5566 33.925 41.5566" fill="#A0A0A0"/>
<path d="M20.1738 29.5943C20.7339 29.6547 21.1839 29.5338 21.604 29.1408C22.104 28.6772 22.344 27.9415 22.9141 27.5686C23.7042 27.0546 24.9043 27.095 25.7644 27.4275C26.4444 27.6895 26.8545 28.7074 26.9545 29.3826C26.9945 29.685 27.0245 29.8865 27.3045 30.0478C27.4145 29.6144 27.6245 29.1811 27.6345 28.7276C27.6745 27.75 26.8745 26.9841 25.9544 26.843C25.4243 26.7624 24.8943 26.7523 24.3742 26.8229C23.8642 26.8934 23.3241 26.9942 22.8841 27.2764C22.114 27.7601 21.704 28.5663 21.1039 29.2214C20.8739 29.4632 20.5039 29.5136 20.1738 29.5943Z" fill="#2B3021"/>
<path d="M22.2041 29.6245C22.2041 29.6245 22.5841 29.7757 22.9641 29.4733C22.9641 29.4733 23.0842 30.1485 24.0743 30.1485C25.0643 30.1485 25.1143 29.0097 24.8243 28.7175C24.8243 28.7175 25.5244 28.657 25.8144 29.1307C26.1044 29.6043 26.2145 30.2493 26.9945 30.3199C26.9945 30.3199 27.1145 30.2392 26.9645 30.1485C26.6545 29.9571 26.5345 29.5539 26.4145 29.2214C26.1044 28.3345 25.0043 28.1834 24.1943 28.1834C23.0942 28.1834 22.5641 29.2919 22.4341 29.3826C22.3141 29.4733 22.1741 29.5842 22.1741 29.5842" fill="#2B3021"/>
<path d="M32.1949 35.4898C32.1949 35.4898 32.825 35.1572 32.795 34.5324C32.765 33.9076 32.0649 32.7486 32.0349 32.2749C31.9549 30.8237 31.3848 29.4128 31.4448 27.9717C31.4648 27.4981 31.5549 26.9337 31.8649 26.5608C32.2849 26.0569 33.175 26.067 33.7451 25.8453C34.7352 25.4724 36.0853 24.8879 36.8854 25.936C37.2154 26.3794 37.4454 27.0546 37.4054 27.6089C36.9154 26.8229 36.1653 26.1476 35.2052 26.5205C34.3251 26.8632 33.095 27.5787 32.805 28.5764C32.4449 29.826 32.805 31.0757 33.075 32.3052C33.285 33.2525 34.0351 34.8448 32.915 35.3184L32.1949 35.4898Z" fill="#2B3021"/>
<path d="M36.0851 29.9873C35.8251 29.1206 34.0049 28.3345 32.9948 29.2214C32.9948 29.2214 32.9648 30.8237 34.3849 30.6524C35.355 30.5416 34.965 29.2617 34.965 29.2617C35.005 29.4028 35.435 29.6043 35.535 29.7555C35.7151 30.0074 35.7851 30.8943 35.485 31.0656C35.485 31.0757 36.3451 30.854 36.0851 29.9873Z" fill="#2B3021"/>
<path d="M21.834 26.8027C22.144 26.7523 22.394 26.2887 22.5541 26.057C22.9041 25.5531 23.3441 25.029 23.9742 24.898C25.0043 24.6965 25.8044 25.5833 26.7744 25.7143C27.0545 25.7546 27.3745 25.7244 27.6245 25.8756C27.2945 26.188 26.9145 26.3593 26.4644 26.3694C26.0244 26.3794 25.5843 26.2686 25.1443 26.2484C24.7643 26.2283 24.3842 26.2585 24.0242 26.3593C23.6042 26.4701 23.2641 26.7826 22.8241 26.8027C22.494 26.8128 22.164 26.7523 21.834 26.8027Z" fill="#2B3021"/>
<path d="M63.1078 2.78728C50.4567 2.78728 40.2057 11.6054 40.2057 22.4793C40.2057 28.4958 43.346 33.8672 48.2764 37.4852C48.0764 40.569 46.7763 44.0962 41.8058 47.7545C49.9166 48.1072 55.4371 43.935 57.8473 41.6473C59.5375 41.99 61.2877 42.1714 63.0978 42.1714C75.749 42.1714 86 33.3533 86 22.4793C86 11.6054 75.759 2.78728 63.1078 2.78728Z" fill="#2B3021"/>
<path d="M49.7565 12.9961H50.5666V14.7396H49.7565C49.5265 14.1147 49.1265 13.8023 48.5664 13.8023C48.0964 13.8023 47.7463 13.9636 47.5063 14.2961C47.2663 14.6287 47.1463 15.0217 47.1463 15.4853C47.1463 15.9691 47.2763 16.352 47.5263 16.6543C47.7763 16.9567 48.1064 17.0978 48.4964 17.0978C48.8164 17.0978 49.0965 16.9869 49.3365 16.7551C49.5765 16.5334 49.7365 16.221 49.8265 15.8179L50.7666 16.2815C50.4066 17.4303 49.6265 18.0048 48.4064 18.0048C47.5463 18.0048 46.8963 17.7629 46.4662 17.2892C46.0262 16.8055 45.8062 16.2008 45.8062 15.4752C45.8062 14.9512 45.9162 14.4977 46.1462 14.1047C46.3762 13.7116 46.6762 13.4194 47.0663 13.2178C47.4463 13.0163 47.8663 12.9256 48.3264 12.9256C48.8964 12.9256 49.3765 13.0767 49.7565 13.3891V12.9961Z" fill="white"/>
<path d="M50.9066 13.8326V12.9961H53.1868V13.8326H52.7168V16.0698C52.7168 16.3722 52.7268 16.5838 52.7568 16.7148C52.7768 16.8458 52.8468 16.9567 52.9468 17.0373C53.0468 17.1179 53.1768 17.1683 53.3368 17.1683C53.4969 17.1683 53.6369 17.128 53.7469 17.0474C53.8569 16.9668 53.9269 16.866 53.9569 16.745C53.9869 16.6241 54.0069 16.3822 54.0069 16.0094V13.8326H53.5469V12.9961H55.447V13.8326H54.867V16.3117C54.867 16.6443 54.847 16.8962 54.817 17.0474C54.787 17.1985 54.707 17.3497 54.577 17.5009C54.4569 17.652 54.2769 17.773 54.0369 17.8637C53.8069 17.9544 53.5369 18.0048 53.2268 18.0048C52.8768 18.0048 52.5768 17.9544 52.3267 17.8536C52.0767 17.7528 51.8967 17.6117 51.7767 17.4404C51.6567 17.2691 51.5767 17.0978 51.5467 16.9264C51.5167 16.7551 51.4967 16.4729 51.4967 16.0698V13.8326H50.9066Z" fill="white"/>
<path d="M60.1075 17.1179V17.9544H57.7572V17.1179H58.3673L58.1373 16.2714H56.9072L56.6571 17.1179H57.2972V17.9544H55.177V17.1179H55.7671L56.6971 13.8426H56.0571V13.0062H59.1774V13.8426H58.5373L59.5374 17.1179H60.1075ZM57.9473 15.5357L57.5472 14.0442L57.1172 15.5357H57.9473Z" fill="white"/>
<path d="M60.1174 17.9544V17.1179H60.7575V13.8426H60.1174V13.0062H62.1276L63.8878 16.09V13.8426H63.2677V13.0062H65.4079V13.8426H64.7379V17.9947H63.6778L61.6176 14.3264V17.128H62.2176V17.9644H60.1174V17.9544Z" fill="white"/>
<path d="M66.3681 17.9544V17.1179H67.0881V13.8426H66.3681V14.9915H65.548V13.0062H69.8784V14.9915H69.0683V13.8426H68.3282V17.1179H69.0483V17.9544H66.3681Z" fill="white"/>
<path d="M72.7386 12.9256C73.5587 12.9256 74.2088 13.1674 74.6888 13.6612C75.1588 14.155 75.3989 14.7597 75.3989 15.4652C75.3989 16.1807 75.1588 16.7753 74.6888 17.2691C74.2188 17.7629 73.5687 18.0048 72.7386 18.0048C71.8885 18.0048 71.2285 17.7528 70.7684 17.2489C70.3084 16.745 70.0784 16.1505 70.0784 15.4652C70.0784 14.7597 70.3184 14.155 70.7884 13.6612C71.2585 13.1674 71.9085 12.9256 72.7386 12.9256ZM72.7386 13.8225C72.3686 13.8225 72.0586 13.9636 71.8085 14.2457C71.5585 14.5279 71.4285 14.9512 71.4285 15.4954C71.4285 15.9791 71.5585 16.3722 71.8085 16.6644C72.0586 16.9567 72.3686 17.0978 72.7486 17.0978C73.1186 17.0978 73.4287 16.9567 73.6787 16.6644C73.9387 16.3822 74.0587 15.9691 74.0587 15.4248C74.0587 14.9411 73.9387 14.5481 73.6887 14.2558C73.4487 13.9736 73.1287 13.8225 72.7386 13.8225Z" fill="white"/>
<path d="M45.6962 24.3336V23.4972H46.2662V20.2219H45.6962V19.3854H49.9066V20.9576H48.9965V20.2219H47.5163V21.3607H48.7164V22.1971H47.5163V23.4972H48.9965V22.7615H49.9066V24.3336H45.6962Z" fill="white"/>
<path d="M50.3165 24.3336V22.6406H51.1266C51.1366 22.953 51.2166 23.1747 51.3566 23.3259C51.5066 23.4669 51.6666 23.5476 51.8566 23.5476C52.0066 23.5476 52.1267 23.4972 52.2267 23.3863C52.3267 23.2855 52.3767 23.1545 52.3767 23.0134C52.3767 22.8623 52.3267 22.7313 52.2267 22.6305C52.1267 22.5297 51.9466 22.4088 51.6866 22.2778C51.1366 22.0057 50.7565 21.7537 50.5665 21.5421C50.3665 21.3305 50.2665 21.0483 50.2665 20.6855C50.2665 20.2521 50.3965 19.9196 50.6565 19.6777C50.9165 19.4358 51.2166 19.325 51.5466 19.325C51.9266 19.325 52.2267 19.4761 52.4267 19.7885V19.3754H53.2368V20.8769H52.4267C52.3967 20.6452 52.3267 20.4638 52.1967 20.3327C52.0667 20.2017 51.9166 20.1413 51.7466 20.1413C51.6166 20.1413 51.4966 20.1816 51.4066 20.2521C51.3166 20.3227 51.2666 20.4234 51.2666 20.5444C51.2666 20.6452 51.3066 20.7459 51.3766 20.8366C51.4566 20.9273 51.6766 21.0583 52.0366 21.2297C52.3867 21.3909 52.6567 21.5421 52.8467 21.6731C53.0367 21.8041 53.1868 21.9754 53.2968 22.1871C53.4068 22.3987 53.4568 22.6406 53.4568 22.9127C53.4568 23.4065 53.3168 23.7693 53.0467 24.0212C52.7767 24.2631 52.4467 24.3941 52.0667 24.3941C51.6466 24.3941 51.3266 24.2329 51.0966 23.9104V24.3336H50.3165Z" fill="white"/>
<path d="M54.5769 24.3336V23.4972H55.297V20.2219H54.5769V21.3708H53.7568V19.3854H58.0872V21.3708H57.2772V20.2219H56.5371V23.4972H57.2572V24.3336H54.5769Z" fill="white"/>
<path d="M62.8378 23.4972V24.3336H60.4876V23.4972H61.0976L60.8676 22.6506H59.6275L59.3775 23.4972H60.0175V24.3336H57.8973V23.4972H58.4874L59.4175 20.2219H58.7774V19.3854H61.8977V20.2219H61.2577L62.2577 23.4972H62.8378ZM60.6776 21.915L60.2776 20.4235L59.8475 21.915H60.6776Z" fill="white"/>
<path d="M64.4679 24.3336V23.4972H65.0379V20.2219H64.4679V19.3854H68.6783V20.9576H67.7682V20.2219H66.2881V21.3607H67.4882V22.1971H66.2881V23.4972H67.7682V22.7615H68.6783V24.3336H64.4679Z" fill="white"/>
<path d="M68.9484 24.3336V23.4972H69.6284V20.2219H68.9484V19.3854H71.5786V20.2219H70.8785V23.4972H72.2887V21.9654H73.2188V24.3336H68.9484Z" fill="white"/>
<path d="M45.6261 30.7129V29.8764H46.3462V26.6011H45.6261V25.7647H47.8863C48.3664 25.7647 48.7464 25.7949 49.0364 25.8554C49.3264 25.9158 49.6065 26.0469 49.8765 26.2585C50.1465 26.4701 50.3565 26.7422 50.5166 27.095C50.6766 27.4477 50.7566 27.8306 50.7566 28.2539C50.7566 28.5965 50.6966 28.9291 50.5866 29.2415C50.4766 29.5539 50.3365 29.8059 50.1665 29.9974C50.0065 30.1888 49.8065 30.34 49.5665 30.4509C49.3364 30.5617 49.1264 30.6323 48.9264 30.6726C48.7364 30.7028 48.4364 30.723 48.0263 30.723H45.6261V30.7129ZM47.5963 29.8764H47.8963C48.2563 29.8764 48.5464 29.826 48.7564 29.7253C48.9664 29.6245 49.1364 29.4532 49.2664 29.2113C49.3965 28.9694 49.4565 28.6469 49.4565 28.2438C49.4565 27.8709 49.3965 27.5485 49.2664 27.2864C49.1364 27.0244 48.9664 26.843 48.7364 26.7422C48.5164 26.6414 48.2363 26.5911 47.8963 26.5911H47.5963V29.8764Z" fill="white"/>
<path d="M53.9269 25.6841C54.7469 25.6841 55.397 25.9259 55.877 26.4197C56.3471 26.9135 56.5871 27.5182 56.5871 28.2237C56.5871 28.9392 56.3471 29.5338 55.877 30.0276C55.407 30.5214 54.7569 30.7633 53.9369 30.7633C53.0868 30.7633 52.4267 30.5113 51.9667 30.0074C51.5066 29.5035 51.2766 28.909 51.2766 28.2237C51.2766 27.5182 51.5066 26.9135 51.9867 26.4197C52.4467 25.9259 53.0968 25.6841 53.9269 25.6841ZM53.9269 26.581C53.5568 26.581 53.2468 26.7221 52.9968 27.0042C52.7367 27.2864 52.6167 27.7097 52.6167 28.2539C52.6167 28.7376 52.7468 29.1307 52.9968 29.4229C53.2468 29.7152 53.5568 29.8563 53.9369 29.8563C54.3069 29.8563 54.6169 29.7152 54.8669 29.4229C55.127 29.1407 55.257 28.7276 55.257 28.1834C55.257 27.6996 55.137 27.3167 54.887 27.0143C54.6369 26.7321 54.3169 26.581 53.9269 26.581Z" fill="white"/>
<path d="M56.9572 30.7129V29.8764H57.6372V26.6011H56.9572V25.7647H59.5774V26.6011H58.8773V29.8764H60.2875V28.3446H61.2176V30.7129H56.9572Z" fill="white"/>
<path d="M66.048 29.8764V30.7129H63.6978V29.8764H64.3078L64.0778 29.0299H62.8377L62.5877 29.8764H63.2277V30.7129H61.1075V29.8764H61.6976L62.6277 26.6011H61.9876V25.7647H65.1079V26.6011H64.4679L65.468 29.8764H66.048ZM63.8878 28.2942L63.4878 26.8027L63.0577 28.2942H63.8878Z" fill="white"/>
<path d="M71.0186 29.8764V30.7129H69.5584L68.4783 28.5462H67.9283V29.8764H68.5283V30.7129H66.0281V29.8764H66.6881V26.6011H66.0281V25.7647H68.9084C69.4484 25.7647 69.8384 25.9058 70.0785 26.1879C70.3185 26.4701 70.4385 26.7926 70.4385 27.1554C70.4385 27.7198 70.1585 28.133 69.6084 28.3849L70.3885 29.8764H71.0186ZM67.9283 27.75H68.3583C68.8883 27.75 69.1484 27.5585 69.1484 27.1655C69.1484 26.974 69.0884 26.8329 68.9684 26.7321C68.8483 26.6414 68.6783 26.5911 68.4683 26.5911H67.9283V27.75Z" fill="white"/>
<path d="M71.4987 30.7129V29.5237H72.6488V30.7129H71.4987Z" fill="white"/>
<path d="M75.539 31.4687V32.2649H73.2488V31.4687H73.8088V28.0523H73.3388V27.2562H74.8689V27.6895C75.159 27.3671 75.489 27.2058 75.859 27.2058C76.2991 27.2058 76.6491 27.3872 76.8991 27.75C77.1491 28.1128 77.2791 28.5361 77.2791 29.0198C77.2791 29.5338 77.1491 29.9571 76.8891 30.2896C76.6291 30.6222 76.2791 30.7935 75.849 30.7935C75.489 30.7935 75.169 30.6524 74.8789 30.3602V31.4788H75.539V31.4687ZM76.1991 28.9997C76.1991 28.6973 76.139 28.4756 76.019 28.3244C75.899 28.1733 75.739 28.1027 75.539 28.1027C75.339 28.1027 75.179 28.1834 75.059 28.3345C74.9389 28.4857 74.8689 28.7175 74.8689 29.0198C74.8689 29.2919 74.9289 29.5136 75.059 29.6749C75.179 29.8462 75.349 29.9268 75.549 29.9268C75.739 29.9268 75.899 29.8563 76.019 29.7051C76.129 29.5439 76.1991 29.3121 76.1991 28.9997Z" fill="white"/>
<path d="M80.2894 29.6749L81.1095 29.947C80.7594 30.5113 80.2194 30.7935 79.4893 30.7935C78.8993 30.7935 78.4492 30.6322 78.1192 30.3098C77.7892 29.9873 77.6292 29.564 77.6292 29.05C77.6292 28.5159 77.7992 28.0725 78.1392 27.7198C78.4792 27.367 78.9093 27.1856 79.4393 27.1856C79.8194 27.1856 80.1494 27.2864 80.4294 27.488C80.7094 27.6895 80.8995 27.9314 81.0095 28.2337C81.1195 28.526 81.1695 28.8586 81.1695 29.2214H78.6892C78.7092 29.5338 78.7993 29.7555 78.9793 29.8865C79.1593 30.0175 79.3393 30.078 79.5393 30.078C79.7793 30.078 80.0294 29.9369 80.2894 29.6749ZM80.0894 28.6066C80.0694 28.4151 79.9894 28.2539 79.8694 28.1128C79.7493 27.9818 79.5893 27.9112 79.3793 27.9112C78.9893 27.9112 78.7593 28.143 78.6993 28.6066H80.0894Z" fill="white"/>
<g clip-path="url(#clip0)">
<path d="M81.5508 5.1613V1.68346H83.0298C83.4008 1.68346 83.6709 1.71453 83.8389 1.77668C84.0073 1.83922 84.1424 1.9501 84.2437 2.11047C84.3449 2.27007 84.396 2.45345 84.396 2.65871C84.396 2.91921 84.3189 3.13483 84.1654 3.30479C84.0127 3.47513 83.7825 3.58179 83.4775 3.62629C83.6298 3.71453 83.7553 3.81237 83.8535 3.91825C83.9525 4.02338 84.0852 4.21252 84.254 4.48261L84.678 5.1613H83.8378L83.3302 4.40473C83.1499 4.13349 83.0263 3.96353 82.9603 3.89293C82.8936 3.82272 82.823 3.77438 82.7486 3.74868C82.6749 3.72182 82.5567 3.70916 82.3948 3.70916H82.2529V5.1613H81.5508ZM82.2529 3.15439H82.7731C83.1092 3.15439 83.3198 3.1402 83.4031 3.11143C83.4867 3.08265 83.5531 3.03431 83.6007 2.96449C83.6482 2.89466 83.6716 2.80834 83.6716 2.70398C83.6716 2.58658 83.6402 2.4922 83.5776 2.42008C83.5159 2.34872 83.4276 2.30229 83.3133 2.28349C83.2565 2.27621 83.0862 2.27199 82.8011 2.27199H82.2529V3.15439Z" fill="#2B3021"/>
<path d="M85.9981 3.55532C85.9981 5.25108 84.6227 6.62649 82.9265 6.62649C81.2308 6.62649 79.8553 5.25146 79.8553 3.55532C79.8553 1.85917 81.2308 0.483765 82.9265 0.483765C84.623 0.483765 85.9981 1.85917 85.9981 3.55532ZM82.9265 6.15037C84.3579 6.15037 85.522 4.98674 85.522 3.55532C85.522 2.1239 84.3579 0.959882 82.9265 0.959882C81.4951 0.959882 80.3315 2.1239 80.3315 3.55532C80.3315 4.98674 81.4951 6.15037 82.9265 6.15037Z" fill="#2B3021"/>
</g>
<defs>
<clipPath id="clip0">
<rect width="6.14272" height="6.14272" fill="white" transform="translate(79.8553 0.483765)"/>
</clipPath>
</defs>
</svg>
