<svg width="43" height="20" viewBox="0 0 43 20" fill="none" xmlns="http://www.w3.org/2000/svg">
<path fill-rule="evenodd" clip-rule="evenodd" d="M42.533 17.831C42.533 18.645 42.254 19.304 41.911 19.304H0.622C0.279 19.3 0 18.644 0 17.831V1.473C0 0.66 0.279 0 0.622 0H41.912C42.256 0 42.534 0.66 42.534 1.473V17.831H42.533Z" fill="black"/>
<path d="M17.7279 16.581H11.4279L8.3689 2.23303H13.4289L14.7389 11.072L16.0689 2.23303H21.8689L23.1989 11.305L24.5389 2.23303H29.5069L26.4969 16.581H20.2869L18.9969 7.29403L17.7279 16.581Z" fill="#F9E333"/>
<path d="M7.65308 16.494H6.8031L3.81006 2.23303H4.6601L7.65308 16.494Z" fill="#F9E333"/>
<path d="M9.96094 16.494H9.11096L6.11792 2.23303H6.96796L9.96094 16.494Z" fill="#F9E333"/>
<path d="M33.6221 2.23303V11.194C33.6494 11.6781 33.5306 12.1593 33.2811 12.575C33.1726 12.7277 33.0295 12.8526 32.8635 12.9394C32.6974 13.0261 32.5132 13.0723 32.3259 13.0742C32.1386 13.076 31.9535 13.0335 31.7858 12.95C31.6181 12.8666 31.4726 12.7446 31.3611 12.594C31.113 12.171 30.9974 11.6834 31.0291 11.194V2.23303H29.9561L27.1641 15.494C27.7021 15.9549 28.3285 16.301 29.0051 16.511C30.0842 16.8193 31.2041 16.9613 32.3261 16.932C34.6488 16.932 36.3611 16.4477 37.4631 15.479C38.0501 14.893 38.5022 14.1859 38.7877 13.4071C39.0732 12.6283 39.1852 11.7966 39.1161 10.97V2.23303H33.6221Z" fill="#F9E333"/>
<path d="M25.5551 2.23303V10.97C25.5223 11.8469 25.6234 12.7237 25.8551 13.57C26.0536 14.1534 26.3745 14.6876 26.7961 15.137L29.5111 2.23703H25.5551V2.23303Z" fill="white"/>
</svg>
