<svg width="61" height="16" viewBox="0 0 61 16" fill="none" xmlns="http://www.w3.org/2000/svg">
<path d="M28.6821 1.63493C29.709 0.878936 30.8947 0.366735 32.149 0.137184C33.4034 -0.0923669 34.6936 -0.0332402 35.9217 0.31008C36.8498 0.548988 37.8837 0.973231 38.0936 1.87384C38.0261 2.61499 37.8656 3.34469 37.6158 4.04573C36.3434 3.13305 34.7613 2.76135 33.2156 3.01191C32.4558 3.1737 31.7461 3.51587 31.1463 4.00954C30.5465 4.50321 30.0743 5.13391 29.7695 5.8484C29.3709 6.59573 29.1293 7.41666 29.0596 8.26075C28.9899 9.10485 29.0935 9.95429 29.3641 10.7569C29.5524 11.2088 29.8424 11.6113 30.2116 11.933C30.5807 12.2546 31.0191 12.4869 31.4925 12.6117C32.2747 12.7908 33.0874 12.7884 33.8685 12.6046C34.6496 12.4209 35.3782 12.0608 35.9985 11.5518C35.7596 12.4799 35.6539 13.4341 35.3353 14.3622C35.0457 15.1311 34.0626 15.396 33.2416 15.5293C32.1602 15.7494 31.0434 15.728 29.9712 15.4667C28.899 15.2054 27.8976 14.7106 27.0387 14.0176C26.3753 13.3158 25.8728 12.4779 25.566 11.5623C25.2592 10.6466 25.1555 9.6751 25.2621 8.7153C25.3001 7.36058 25.6244 6.02925 26.2139 4.8089C26.8034 3.58854 27.6445 2.50684 28.6821 1.63493Z" fill="#818283"/>
<path d="M14.2066 0.63016C15.8088 0.359921 17.4324 0.235854 19.0571 0.25949C20.5575 0.230254 22.027 0.687415 23.246 1.56263C23.5455 1.82374 23.7906 2.14133 23.9673 2.49724C24.1439 2.85316 24.2487 3.2404 24.2756 3.63684C24.3025 4.03328 24.251 4.43113 24.124 4.80764C23.997 5.18416 23.7971 5.53194 23.5356 5.83112C22.8485 6.60668 21.9275 7.13733 20.9119 7.34275C21.7486 7.56023 22.4765 8.07693 22.9578 8.79503C23.4113 9.66095 23.5403 10.6605 23.3215 11.6131C23.1027 12.5658 22.5506 13.4089 21.7647 13.9902C20.3602 14.9629 18.695 15.4896 16.9866 15.5018C15.7128 15.5872 14.4334 15.4709 13.1959 15.1572C12.8889 15.0798 12.6044 14.9316 12.365 14.7244C12.1256 14.5172 11.9381 14.2568 11.8175 13.9641C11.5657 13.1437 11.5657 12.2666 11.8175 11.4462C12.6153 7.81333 13.3841 4.20944 14.2066 0.63016ZM17.2023 2.83101C16.9909 3.86483 16.7245 4.89865 16.5392 5.93247C16.4856 6.22206 16.8838 6.35672 17.1487 6.30314C18.2453 6.43079 19.3502 6.14759 20.2502 5.50823C20.4387 5.35546 20.5874 5.15928 20.6835 4.93648C20.7796 4.71369 20.8203 4.47092 20.8021 4.22896C20.7839 3.987 20.7073 3.75306 20.5789 3.54717C20.4505 3.34128 20.2741 3.16957 20.0649 3.04675C19.1411 2.74984 18.1602 2.67591 17.2023 2.83101ZM15.9296 8.63575C15.64 9.616 15.4793 10.6238 15.2404 11.6315C15.1607 12.0558 14.9218 12.5321 15.294 12.9042C16.4494 13.034 17.6186 12.8604 18.6864 12.4004C18.9702 12.2682 19.2185 12.0707 19.4112 11.824C19.6038 11.5774 19.7352 11.2885 19.7947 10.9813C19.8542 10.674 19.84 10.357 19.7533 10.0563C19.6666 9.75552 19.5099 9.4796 19.296 9.25112C18.266 8.69858 17.0885 8.48334 15.9296 8.63575Z" fill="#818283"/>
<path d="M40.4798 0.70971C41.6262 0.43964 42.802 0.315103 43.9795 0.33904C45.6003 0.200053 47.2304 0.464182 48.7244 1.10789C49.2319 1.36097 49.6692 1.73531 49.9975 2.19774C50.3258 2.66018 50.5351 3.19644 50.6067 3.75905C50.7581 4.99975 50.5076 6.25631 49.892 7.34413C49.2764 8.43194 48.3282 9.29366 47.1867 9.8027C45.503 10.501 43.6687 10.7568 41.8583 10.5455C41.5687 11.7125 41.3544 12.9042 41.0634 14.0712C40.9853 14.4054 40.8185 14.7123 40.5804 14.9595C40.3424 15.2067 40.042 15.3851 39.711 15.4757C38.8886 15.5553 38.0415 15.4757 37.2191 15.5017C38.3586 10.5701 39.3664 5.61384 40.4798 0.70971ZM43.7348 2.93662C43.4162 4.36862 43.0992 5.79918 42.8067 7.20511C42.701 7.4947 42.9399 7.76112 43.2309 7.89433C44.1144 8.02574 45.017 7.89694 45.8285 7.52366C46.512 7.19397 47.0406 6.61153 47.3027 5.89935C47.5648 5.18717 47.5398 4.40102 47.233 3.70692C46.5235 2.67744 44.9062 2.85699 43.7348 2.93662Z" fill="#818283"/>
<path d="M52.2747 3.99647C52.4877 3.41625 52.8155 2.8849 53.2384 2.43413C53.6613 1.98336 54.1707 1.62241 54.7361 1.37283C55.0399 1.28727 55.362 1.2918 55.6633 1.38588C55.9646 1.47996 56.232 1.65953 56.4331 1.90277C57.1005 3.54445 57.0911 5.3835 56.4071 7.0183C55.2412 5.74961 53.8371 4.72282 52.2747 3.99647Z" fill="#818283"/>
<path d="M56.411 1.90289C57.752 2.62169 58.9263 3.61538 59.857 4.81902C60.2391 5.2047 60.5375 5.66506 60.7336 6.1713C60.9296 6.67755 61.0192 7.21879 60.9966 7.76121C60.8389 8.68164 60.4046 9.53219 59.7513 10.1995C58.4671 11.6259 56.9748 12.8501 55.325 13.8309C54.9903 14.0679 54.6111 14.2347 54.2102 14.3213C53.8093 14.4079 53.3951 14.4125 52.9924 14.3348C52.478 14.1858 52.0024 13.9258 51.5994 13.573C51.1964 13.2203 50.8756 12.7834 50.6598 12.2932C53.1365 11.2601 55.166 9.38098 56.3863 6.99091C56.7315 6.18784 56.9116 5.32351 56.9158 4.44941C56.9201 3.5753 56.7484 2.70927 56.411 1.90289Z" fill="#818283"/>
<path d="M1.59143 3.99652C1.80431 3.41603 2.13199 2.8844 2.55491 2.43337C2.97783 1.98234 3.4873 1.62117 4.05291 1.37142C4.3567 1.28586 4.6788 1.2904 4.98006 1.38448C5.28133 1.47856 5.54877 1.65813 5.74988 1.90137C6.41738 3.54302 6.40801 5.38213 5.72382 7.0169C4.55789 5.7487 3.15374 4.7224 1.59143 3.99652Z" fill="#818283"/>
<path d="M5.75262 1.90289C7.09368 2.62166 8.26796 3.61535 9.19869 4.81902C9.58075 5.2047 9.87915 5.66506 10.0752 6.1713C10.2713 6.67755 10.3608 7.21879 10.3382 7.76121C10.1806 8.68164 9.74622 9.53219 9.09299 10.1995C7.80874 11.6259 6.31648 12.8501 4.66667 13.8309C4.33194 14.0679 3.95273 14.2347 3.55186 14.3213C3.151 14.4079 2.73675 14.4125 2.33406 14.3348C1.81948 14.1861 1.34378 13.9264 0.940492 13.5739C0.537208 13.2214 0.216165 12.7847 0 12.2947C2.47676 11.2615 4.50618 9.38243 5.72656 6.99236C6.39759 5.36398 6.40694 3.53806 5.75262 1.90289Z" fill="#818283"/>
</svg>
