<svg width="15" height="15" viewBox="0 0 15 15" fill="none" xmlns="http://www.w3.org/2000/svg">
<path d="M14.193 13.4882H0.676424C0.304589 13.4882 0 13.7882 0 14.1632C0 14.5342 0.304589 14.8382 0.676424 14.8382H14.193C14.5688 14.8382 14.8695 14.5342 14.8695 14.1632C14.8655 13.7882 14.5649 13.4882 14.193 13.4882Z" fill="black"/>
<path d="M1.51898 11.7316C1.14319 11.7316 0.84256 12.0355 0.84256 12.4066C0.84256 12.7816 1.14319 13.0816 1.51898 13.0816H13.3426C13.7184 13.0816 14.019 12.7776 14.019 12.4066C14.019 12.0355 13.7144 11.7316 13.3426 11.7316H13.1725V5.66447H13.3426C13.5285 5.66447 13.6828 5.51447 13.6828 5.325C13.6828 5.13947 13.5324 4.98947 13.3426 4.98947H1.51898C1.33307 4.98947 1.18275 5.13947 1.18275 5.325C1.18275 5.51052 1.33307 5.66447 1.51898 5.66447H1.68908V11.7355H1.51898V11.7316ZM11.8275 5.66447V11.7355H9.80221V5.66447H11.8275ZM8.44936 5.66447V11.7355H6.42405V5.66447H8.44936ZM3.04193 5.66447H5.06724V11.7355H3.04193V5.66447Z" fill="black"/>
<path d="M0.677135 4.38553H14.1977C14.5735 4.38553 14.8741 4.08158 14.8741 3.71053C14.8741 3.41447 14.6843 3.16184 14.4153 3.07105L7.71036 0.0592105C7.53236 -0.0197368 7.33457 -0.0197368 7.15657 0.0592105L0.400236 3.09474C0.107514 3.225 -0.0507137 3.54079 0.0165332 3.85263C0.08378 4.16053 0.356723 4.38553 0.677135 4.38553Z" fill="black"/>
</svg>
