<svg width="39" height="39" viewBox="0 0 39 39" fill="none" xmlns="http://www.w3.org/2000/svg">
<path d="M19.5 1C23.1589 1 26.7357 2.08501 29.778 4.11781C32.8203 6.15062 35.1915 9.03992 36.5918 12.4204C37.992 15.8008 38.3583 19.5205 37.6445 23.1092C36.9307 26.6978 35.1687 29.9942 32.5815 32.5815C29.9942 35.1687 26.6978 36.9307 23.1092 37.6445C19.5205 38.3583 15.8008 37.992 12.4204 36.5918C9.03992 35.1915 6.15062 32.8203 4.11781 29.778C2.08501 26.7357 1 23.1589 1 19.5C1 14.5935 2.9491 9.88794 6.41852 6.41852C9.88794 2.9491 14.5935 1 19.5 1V1Z" stroke="#262103" stroke-width="2"/>
<path fill-rule="evenodd" clip-rule="evenodd" d="M11.2125 14.875C11.2125 12.8523 12.8523 11.2125 14.875 11.2125H24.125C26.1478 11.2125 27.7875 12.8523 27.7875 14.875V24.125C27.7875 26.1477 26.1478 27.7875 24.125 27.7875H14.875C12.8523 27.7875 11.2125 26.1477 11.2125 24.125V14.875ZM19.1642 14.6493C18.0716 14.6493 17.0036 14.9733 16.0952 15.5803C15.1867 16.1873 14.4787 17.05 14.0606 18.0594C13.6425 19.0688 13.5331 20.1795 13.7462 21.2511C13.9594 22.3227 14.4855 23.307 15.2581 24.0795C16.0306 24.8521 17.0149 25.3782 18.0865 25.5913C19.1581 25.8045 20.2688 25.6951 21.2782 25.277C22.2876 24.8589 23.1503 24.1508 23.7573 23.2424C24.3643 22.334 24.6883 21.266 24.6883 20.1734C24.6883 18.7083 24.1063 17.3032 23.0703 16.2673C22.0344 15.2313 20.6293 14.6493 19.1642 14.6493ZM19.1642 23.6218C18.4809 23.6227 17.8126 23.4208 17.2441 23.0418C16.6755 22.6627 16.2322 22.1235 15.9703 21.4923C15.7084 20.8612 15.6396 20.1665 15.7727 19.4962C15.9058 18.826 16.2347 18.2103 16.7179 17.7271C17.2011 17.2439 17.8168 16.915 18.4871 16.7819C19.1573 16.6488 19.852 16.7175 20.4831 16.9795C21.1143 17.2414 21.6535 17.6847 22.0326 18.2533C22.4117 18.8218 22.6135 19.4901 22.6126 20.1734C22.6102 21.0872 22.2461 21.9629 21.5999 22.6091C20.9537 23.2552 20.078 23.6193 19.1642 23.6218ZM25.8418 14.2349C25.8418 14.6426 25.5113 14.973 25.1036 14.973C24.696 14.973 24.3655 14.6426 24.3655 14.2349C24.3655 13.8272 24.696 13.4967 25.1036 13.4967C25.5113 13.4967 25.8418 13.8272 25.8418 14.2349Z" fill="#262103"/>
</svg>
