<svg width="24" height="24" viewBox="0 0 24 24" fill="none" xmlns="http://www.w3.org/2000/svg">
<path d="M4.82042 11.83C4.15281 10.5965 3.83217 9.20503 3.89264 7.80374C3.97266 5.77893 4.81717 3.85971 6.256 2.43282C7.69482 1.00592 9.62101 0.177417 11.6464 0.114258L24 0.147034L19.201 4.90695L11.5468 4.89056C9.76427 5.00713 8.08868 5.78216 6.84561 7.06507C5.60253 8.34799 4.88072 10.0472 4.82042 11.8325V11.83ZM9.54252 8.42016C10.0054 7.23837 10.7917 6.21086 11.8115 5.45529C10.7482 5.47989 9.70644 5.76078 8.77483 6.27409C7.84323 6.7874 7.04928 7.51798 6.46042 8.40377L9.54252 8.42016ZM12.0271 6.04146C11.2605 6.70696 10.6255 7.5104 10.1552 8.41007L13.8663 8.43655C13.4092 7.52966 12.7853 6.71709 12.0271 6.04146ZM6.14654 9.02397C5.69868 9.84698 5.43299 10.7567 5.36751 11.6913L8.82399 11.714C8.82979 10.8039 8.99226 9.90163 9.30427 9.04666L6.14654 9.02397ZM9.92825 9.04036C9.62401 9.90007 9.4399 10.7977 9.38116 11.7077L14.6327 11.7241C14.5777 10.815 14.3992 9.91765 14.102 9.05675L9.92825 9.04036ZM17.5106 8.43655C16.9507 7.5434 16.1777 6.80331 15.2611 6.28274C14.3445 5.76216 13.3129 5.4774 12.2591 5.45403C13.233 6.2465 14.0006 7.26287 14.4966 8.41638L17.5106 8.43655ZM14.7272 9.04918C15.0378 9.90359 15.1894 10.8076 15.1747 11.7166L18.6375 11.7329C18.6034 10.796 18.344 9.881 17.8812 9.06557L14.7272 9.04918ZM6.44404 15.4277C7.01079 16.3332 7.79674 17.0813 8.7292 17.6026C9.66165 18.1239 10.7105 18.4016 11.7788 18.4102C10.7732 17.6369 9.99491 16.6065 9.52613 15.4277H6.44404ZM11.9905 17.8631C12.7491 17.1682 13.3775 16.3435 13.8461 15.4277L10.135 15.4113C10.5894 16.3406 11.221 17.1722 11.9943 17.8593L11.9905 17.8631ZM9.30679 14.8982C9.01029 14.0391 8.84829 13.1394 8.82651 12.2309L5.36373 12.2145C5.43054 13.146 5.68797 14.0539 6.12007 14.8818L9.30679 14.8982ZM14.078 14.9146C14.3769 14.0522 14.56 13.154 14.6226 12.2435L9.37108 12.2271C9.43896 13.1345 9.61718 14.0302 9.90178 14.8945L14.078 14.9146ZM14.4751 15.4453C13.966 16.5935 13.1965 17.6073 12.2275 18.4064C13.2858 18.4037 14.3257 18.1297 15.248 17.6107C16.1702 17.0916 16.944 16.3448 17.4955 15.4415L14.4751 15.4453ZM17.8547 14.9146C18.3155 14.1043 18.5821 13.1982 18.6338 12.2674L15.171 12.251C15.162 13.1594 15.0053 14.0603 14.7071 14.9184L17.8547 14.9146ZM19.1796 11.9498C19.1568 13.7583 18.4507 15.4912 17.203 16.8006C15.9554 18.1101 14.2585 18.899 12.4532 19.009L4.81538 18.9926L0 23.6894L12.3536 23.7222C14.3764 23.6696 16.3034 22.8493 17.7434 21.4278C19.1835 20.0062 20.0286 18.09 20.1074 16.068C20.1759 14.666 19.8548 13.2724 19.1796 12.0418V11.9498Z" fill="#818283"/>
</svg>
