<svg width="38" height="38" viewBox="0 0 38 38" fill="none" xmlns="http://www.w3.org/2000/svg">
<path d="M19 1C22.5601 1 26.0402 2.05568 29.0003 4.03355C31.9603 6.01141 34.2674 8.82263 35.6298 12.1117C36.9922 15.4008 37.3487 19.02 36.6541 22.5116C35.9596 26.0033 34.2453 29.2106 31.7279 31.7279C29.2106 34.2453 26.0033 35.9596 22.5116 36.6541C19.02 37.3487 15.4008 36.9922 12.1117 35.6298C8.82263 34.2674 6.01141 31.9603 4.03355 29.0003C2.05568 26.0402 1 22.5601 1 19C1 14.2261 2.89642 9.64773 6.27208 6.27208C9.64773 2.89642 14.2261 1 19 1V1Z" stroke="#262103" stroke-width="2"/>
<path d="M21.1942 13.3912H23.5117V9.9613H20.7766V9.9766C17.47 10.0999 16.7905 11.9566 16.7266 13.9015V15.6169H14.4883V18.9694H16.7437V27.9613H20.1277V18.9694H22.9087L23.4487 15.6169H20.143V14.5819C20.1291 14.4339 20.1458 14.2845 20.1918 14.1432C20.2379 14.0018 20.3124 13.8714 20.4108 13.7599C20.5092 13.6484 20.6294 13.5583 20.764 13.495C20.8986 13.4318 21.0447 13.3967 21.1933 13.3921L21.1942 13.3912Z" fill="#262103" stroke="#262103"/>
</svg>
