<svg width="23" height="15" viewBox="0 0 23 15" fill="none" xmlns="http://www.w3.org/2000/svg">
<path d="M18.4118 4.70426C18.4118 3.17389 17.1882 1.9353 15.6765 1.9353C14.1647 1.94126 12.9412 3.17984 12.9412 4.70426C12.9412 6.23463 14.1647 7.47322 15.6765 7.47322C17.1882 7.47322 18.4118 6.23463 18.4118 4.70426ZM15.5235 6.59787C15.4471 6.59787 15.4118 6.55618 15.4118 6.47877V6.30013C15.4118 6.16913 15.4059 6.16317 15.2824 6.14531C15.1235 6.12149 14.9647 6.08576 14.8177 6.0143C14.7059 5.95476 14.6883 5.93094 14.7235 5.80589C14.7471 5.71657 14.7706 5.62724 14.8 5.53197C14.8353 5.42478 14.8588 5.41287 14.953 5.46647C15.1118 5.54983 15.2882 5.59747 15.4647 5.62129C15.5824 5.6332 15.6941 5.62724 15.8059 5.57961C16.0059 5.49029 16.0353 5.25805 15.8647 5.11514C15.8059 5.0675 15.7412 5.03177 15.6706 5.002C15.4941 4.92458 15.3059 4.86504 15.1412 4.76381C14.8706 4.60303 14.7 4.37079 14.7177 4.04328C14.7412 3.66813 14.9471 3.4359 15.2941 3.30489C15.4353 3.2513 15.4353 3.25726 15.4353 3.10243V2.94761C15.4412 2.83447 15.4588 2.8166 15.5647 2.8166H15.6706C15.9059 2.8166 15.9059 2.8166 15.9059 3.05479C15.9059 3.22153 15.9059 3.22153 16.0706 3.2513C16.2 3.26917 16.3177 3.31085 16.4353 3.35849C16.5 3.38826 16.5235 3.4359 16.5059 3.5014C16.4765 3.60859 16.4471 3.70386 16.4177 3.81105C16.3824 3.90632 16.3588 3.91823 16.2647 3.87655C16.0824 3.78723 15.8883 3.74555 15.6883 3.76341C15.6353 3.76936 15.5824 3.77532 15.5353 3.79914C15.3588 3.87655 15.3353 4.07306 15.4765 4.19215C15.553 4.2517 15.6353 4.29934 15.7235 4.33507C15.8765 4.40057 16.0353 4.46607 16.1824 4.54348C16.653 4.80549 16.7824 5.40096 16.4471 5.81184C16.3294 5.96071 16.1765 6.06194 15.9882 6.10958C15.9059 6.1334 15.8765 6.16913 15.8765 6.25845C15.8824 6.34181 15.8765 6.41923 15.8765 6.50259C15.8765 6.57405 15.8412 6.61573 15.7706 6.61573C15.7 6.60382 15.6118 6.60382 15.5235 6.59787Z" fill="black"/>
<path d="M12.4588 4.84717C12.4588 5.26996 12.1176 5.61533 11.7 5.61533C11.2823 5.61533 10.9412 5.26996 10.9412 4.84717C10.9412 4.42439 11.2823 4.07901 11.7 4.07901C12.1176 4.07901 12.4588 4.41843 12.4588 4.84717Z" fill="black"/>
<path d="M20.4118 4.84717C20.4118 5.26996 20.0706 5.61533 19.653 5.61533C19.2353 5.61533 18.8941 5.26996 18.8941 4.84717C18.8941 4.42439 19.2353 4.07901 19.653 4.07901C20.0765 4.07901 20.4118 4.41843 20.4118 4.84717Z" fill="black"/>
<path d="M21.7177 0.190552H9.80593C9.11769 0.190552 8.55887 0.756252 8.55887 1.45296V5.66296C8.74122 5.65105 8.92357 5.65105 9.11181 5.65105C9.28828 5.65105 9.45299 5.65701 9.62357 5.66296V2.82255C9.72357 2.84637 9.82357 2.85828 9.93534 2.85828C10.6295 2.85828 11.2 2.28662 11.2 1.57801C11.2 1.47082 11.1883 1.36364 11.1648 1.26241H20.4412C20.4295 1.33982 20.4177 1.41723 20.4177 1.49464C20.4177 2.1973 20.9824 2.77491 21.6824 2.77491C21.7589 2.77491 21.8353 2.763 21.9059 2.75705V6.63954C21.8353 6.62763 21.7589 6.62168 21.6824 6.62168C20.9883 6.62168 20.4177 7.19333 20.4177 7.90195C20.4177 7.98531 20.4295 8.05677 20.4412 8.13418H13.7942V9.21795H21.7118C22.4 9.21795 22.9589 8.65224 22.9589 7.95554V1.45296C22.9647 0.756252 22.4059 0.190552 21.7177 0.190552Z" fill="black"/>
<path d="M1.27059 6.35967C1.95882 6.62168 2.86471 6.76459 3.82353 6.76459C4.32941 6.76459 4.82353 6.72291 5.27647 6.64549C5.52353 6.45494 5.84706 6.2763 6.25294 6.12148C6.66471 5.96665 7.13529 5.84756 7.64706 5.7761V1.72092C7.64706 1.34577 7.42353 0.809845 6.37647 0.410877C5.69412 0.142914 4.78824 0 3.82353 0C2.85882 0 1.95882 0.142914 1.27059 0.404923C0.223529 0.797936 0 1.33386 0 1.71497V10.0516C0 10.4268 0.223529 10.9627 1.27059 11.3617C1.95882 11.6237 2.86471 11.7666 3.82353 11.7666C4.02941 11.7666 4.23529 11.7606 4.43529 11.7487V10.8972C4.23529 10.9091 4.02941 10.921 3.82353 10.921C2.96471 10.921 2.15882 10.796 1.56471 10.5756C0.976471 10.3493 0.841177 10.129 0.841177 10.0695V9.53354C0.964706 9.59905 1.11176 9.66455 1.27059 9.7241C1.95882 9.9861 2.86471 10.129 3.82353 10.129C4.02941 10.129 4.23529 10.1231 4.43529 10.1112V9.22985C4.23529 9.24176 4.02941 9.25367 3.82353 9.25367C2.96471 9.25367 2.15882 9.12862 1.56471 8.9083C0.976471 8.68202 0.841177 8.46169 0.841177 8.40214V7.86622C0.964706 7.93172 1.11176 7.99722 1.27059 8.05677C1.95882 8.31878 2.86471 8.46169 3.82353 8.46169C4.02941 8.46169 4.23529 8.45574 4.43529 8.44383V8.24136C4.43529 8.05081 4.46471 7.80071 4.57647 7.53871C4.32941 7.56252 4.08235 7.57443 3.82353 7.57443C2.96471 7.57443 2.15882 7.44938 1.56471 7.22906C0.976471 7.00278 0.841177 6.78245 0.841177 6.72291V6.18698C0.970588 6.22866 1.11176 6.30012 1.27059 6.35967ZM1.56471 1.20286C2.16471 0.976578 2.96471 0.857483 3.82353 0.857483C4.68235 0.857483 5.48824 0.982533 6.08235 1.20286C6.65294 1.41723 6.79412 1.6316 6.8 1.70306V1.71497C6.78824 1.78642 6.64706 2.00079 6.08235 2.21516C5.48824 2.44144 4.68235 2.56649 3.82353 2.56649C2.96471 2.56649 2.15882 2.44144 1.56471 2.22112C0.976471 1.99484 0.841177 1.77451 0.841177 1.71497C0.841177 1.65542 0.976471 1.42318 1.56471 1.20286ZM0.841177 2.82255C0.964706 2.88805 1.11176 2.95355 1.27059 3.0131C1.95882 3.27511 2.86471 3.41802 3.82353 3.41802C4.78235 3.41802 5.69412 3.27511 6.37647 3.0131C6.53529 2.95355 6.67647 2.88805 6.80588 2.82255V3.35848C6.79412 3.42993 6.65294 3.6443 6.08824 3.85867C5.48824 4.08495 4.68824 4.20405 3.82941 4.20405C2.97059 4.20405 2.16471 4.079 1.57059 3.85867C0.982353 3.63239 0.847059 3.41207 0.847059 3.35252L0.841177 2.82255ZM0.841177 4.49583C0.964706 4.56133 1.11176 4.62684 1.27059 4.68638C1.95882 4.94839 2.86471 5.09131 3.82353 5.09131C4.78235 5.09131 5.69412 4.94839 6.37647 4.68638C6.53529 4.62684 6.67647 4.56133 6.80588 4.49583V5.03176C6.79412 5.10322 6.65294 5.31759 6.08824 5.53196C5.48824 5.75824 4.68824 5.87733 3.82941 5.87733C2.97059 5.87733 2.16471 5.75228 1.57059 5.53196C0.982353 5.30568 0.847059 5.08535 0.847059 5.0258L0.841177 4.49583Z" fill="black"/>
<path d="M11.6647 6.91942C10.9764 6.65741 10.0706 6.5145 9.11174 6.5145C8.15291 6.5145 7.24115 6.65741 6.5588 6.91942C5.51174 7.31243 5.28821 7.84836 5.28821 8.22946V13.2314C5.28821 13.6066 5.51174 14.1425 6.5588 14.5415C7.24703 14.8035 8.15291 14.9464 9.11174 14.9464C10.0706 14.9464 10.9823 14.8035 11.6647 14.5415C12.7117 14.1485 12.9353 13.6126 12.9353 13.2314V8.22946C12.9411 7.84836 12.7176 7.31839 11.6647 6.91942ZM6.85291 7.72331C7.45291 7.49703 8.25291 7.37793 9.11174 7.37793C9.97056 7.37793 10.7764 7.50298 11.3706 7.72331C11.9411 7.93768 12.0882 8.15205 12.0882 8.22351V8.23542C12.0764 8.30687 11.9353 8.52124 11.3706 8.73562C10.7706 8.9619 9.97056 9.08099 9.11174 9.08099C8.25291 9.08099 7.44703 8.95594 6.85291 8.73562C6.26468 8.50933 6.12938 8.28901 6.12938 8.22946C6.12938 8.17587 6.2588 7.94363 6.85291 7.72331ZM11.3764 13.7257C10.7764 13.952 9.97644 14.0711 9.11762 14.0711C8.2588 14.0711 7.45291 13.946 6.8588 13.7257C6.27056 13.4994 6.13527 13.2791 6.13527 13.2195V12.6836C6.2588 12.7491 6.40585 12.8146 6.56468 12.8742C7.25291 13.1362 8.1588 13.2791 9.11762 13.2791C10.0764 13.2791 10.9882 13.1362 11.6706 12.8742C11.8294 12.8146 11.9706 12.7491 12.1 12.6836V13.2195C12.0941 13.2791 11.9647 13.4994 11.3764 13.7257ZM12.0941 11.5463C12.0823 11.6237 11.9411 11.838 11.3764 12.0524C10.7764 12.2787 9.97644 12.3978 9.11762 12.3978C8.2588 12.3978 7.45291 12.2727 6.8588 12.0524C6.27056 11.8261 6.13527 11.6058 6.13527 11.5463V11.0103C6.2588 11.0758 6.40585 11.1413 6.56468 11.2009C7.25291 11.4629 8.1588 11.6058 9.11762 11.6058C10.0764 11.6058 10.9882 11.4629 11.6706 11.2009C11.8294 11.1413 11.9706 11.0758 12.1 11.0103L12.0941 11.5463ZM12.0941 9.87297C12.0823 9.95038 11.9411 10.1648 11.3764 10.3791C10.7764 10.6054 9.97644 10.7245 9.11762 10.7245C8.2588 10.7245 7.45291 10.5995 6.8588 10.3791C6.27056 10.1528 6.13527 9.93252 6.13527 9.87297V9.33704C6.2588 9.40255 6.40585 9.46805 6.56468 9.5276C7.25291 9.78961 8.1588 9.93252 9.11762 9.93252C10.0764 9.93252 10.9882 9.78961 11.6706 9.5276C11.8294 9.46805 11.9706 9.40255 12.1 9.33704L12.0941 9.87297Z" fill="black"/>
</svg>
