<svg width="86" height="52" viewBox="0 0 86 52" fill="none" xmlns="http://www.w3.org/2000/svg">
<g clip-path="url(#clip0)">
<path d="M33.64 49.21C35.23 48.72 36.52 50.22 38.08 50.16C39.57 50.1 40.75 48.81 41.15 47.45C41.43 46.52 41.19 45.51 41.26 44.55C41.34 43.35 41.69 43.26 42.4 42.45C43.96 40.68 43.7 38.61 42.87 36.5C41.81 33.81 39.83 31.06 39.49 28.79C39.49 28.79 39.22 26.04 39.15 24.72C39.08 23.4 38.72 21.55 37.99 20.21C37.99 20.21 37.82 18.59 37.36 17.85C36.9 17.12 36.58 16.36 35.96 15.51C35.34 14.65 34.78 14.19 34.32 13.75C33.88 13.32 33.39 12.86 33.36 12.83C28.84 8.54999 22.28 7.71999 16.86 10.79C15.57 11.52 14.28 12.13 13.07 13.02C11.61 14.09 10.66 15.57 9.59 17C8.84 18 8.37 19.09 8.18 20.32C7.98 21.56 8.23 22.96 7.69 24.13C6.59 26.51 4.26 27.65 3.42 30.29C2.56 33.04 2.66 36.04 1.27 38.63C-0.290001 41.53 -0.620001 44.74 1.45 47.47C2.58 48.96 6.93 53.31 9.13 51.11C11.31 48.93 13.94 48.92 14.81 47.72C15.68 46.52 15.67 43.94 15.67 43.94" fill="#2B3021"/>
<path d="M31.83 12.06C30.6 11.46 29.2 11.45 27.89 11.07C24.9 10.19 22.1 10.49 19.33 11.85C17.59 12.7 16.29 14.14 16.05 16.11C15.73 18.83 16.58 21.54 16.47 24.26C16.4 25.88 15.44 26.66 14.56 27.9C13.78 29 13.42 31.31 13.97 32.55C14.13 32.91 14.6 33.36 14.16 33.73C13.54 34.24 13.37 33.07 12.64 33.64C12.09 34.07 11.99 34.83 12.17 35.46C12.3 35.9 12.56 36.32 12.86 36.66C12.93 36.74 13.73 37.36 13.73 37.36L13.6 40.48C13.6 40.48 13.73 43.26 18.56 47.48C23.39 51.7 21.83 50.82 26.93 51.57C26.93 51.57 29.43 51.65 29.73 51.25C30.04 50.86 31.39 50.05 31.57 49.65C31.75 49.25 32.01 49.62 32.23 49.31C32.45 49 32.58 48.38 32.58 48.38L33.24 46.67C33.24 46.67 34.12 45.44 34.73 44.61C34.73 44.61 36.58 42.02 36.97 41.31C37.36 40.61 38.29 35.73 38.29 35.07C38.29 34.41 38.33 32.26 38.38 31.64C38.42 31.02 38.2 30.59 38.12 29.75C38.03 28.91 37.68 28.78 37.72 28.3C37.76 27.82 37.85 24.21 37.85 23.07C37.85 21.93 37.23 19.77 37.06 18.85C36.88 17.93 35.52 15.77 35.04 15.2C34.18 14.19 33.4 13.03 32.27 12.3C32.13 12.22 31.98 12.14 31.83 12.06Z" fill="#DAD9CB"/>
<path d="M33.38 38.41C32.95 38.27 32.57 37.97 32.12 37.89C31.74 37.82 31.36 37.93 30.98 37.94C30.46 37.95 29.93 37.94 29.41 37.88C29.09 37.84 28.77 37.78 28.45 37.78C28.13 37.78 27.82 37.89 27.51 37.9C26.84 37.92 26.28 37.64 25.6 37.78C25.06 37.89 24.6 37.73 24.36 37.21C24.29 37.06 25.36 37.1 25.43 37.12C25.87 37.21 26.28 37.39 26.73 37.42C27.22 37.46 27.67 37.68 28.17 37.55C28.5 37.46 28.79 37.27 29.12 37.19C29.48 37.1 29.84 37.19 30.2 37.28C30.46 37.34 30.7 37.51 30.97 37.5C31.23 37.49 31.45 37.33 31.68 37.23C32.07 37.06 32.37 37.37 32.73 37.46C32.52 37.02 32.36 36.68 32.45 36.18C32.52 35.76 32.75 35.19 32.39 34.83C32.1 34.53 31.6 34.61 31.25 34.42C31.28 35.06 31.49 36.25 31.04 36.79C30.81 37.07 30.4 36.83 30.25 36.6C30.03 36.26 30.3 35.84 30.43 35.51C30.71 34.76 30.73 34.12 29.99 33.67C29.59 33.43 29.16 33.57 28.73 33.59C28.3 33.61 27.97 33.45 27.63 33.19C27.22 32.88 27.04 32.49 27.05 31.97C27.05 31.97 28.43 33.01 29.4 32.97C30.37 32.93 31.2 33.03 31.75 32.7C31.75 32.7 32.56 32.35 32.78 31.87C33 31.39 32.38 30.2 32.38 30.2C32.38 30.2 31.98 29.28 31.98 28.79C31.98 28.31 32.07 26.69 31.67 25.77C31.67 25.77 32.29 23.14 32.07 23.45C32.07 23.45 33.43 23.17 33.91 22.86C34.39 22.55 34.96 22.33 35.27 22.42C35.24 22.41 35.28 20.83 35.28 20.65C35.3 19.29 35.48 17.96 35.16 16.62C34.87 15.39 34.24 14.27 33.42 13.32C34.08 14.11 34.56 14.64 35.05 15.21C35.53 15.78 36.9 17.93 37.07 18.86C37.25 19.78 37.86 21.94 37.86 23.08C37.86 24.22 37.77 27.83 37.73 28.31C37.69 28.79 38.04 28.93 38.13 29.76C38.22 30.59 38.44 31.03 38.39 31.65C38.35 32.26 38.3 34.42 38.3 35.08C38.3 35.74 37.38 40.62 36.98 41.32C36.26 42.61 35.37 43.79 34.64 45.08C33.93 46.33 33.25 47.61 32.38 48.75C31.89 49.39 31.35 49.99 30.72 50.5C28.45 52.35 25.44 52.01 22.85 50.91C22.17 50.62 21.88 50.41 21.63 50.15C21.63 49.98 21.44 49.44 22.39 47.59C23.03 46.34 23.23 45.17 22.93 44.11C22.76 43.51 22.43 42.95 21.92 42.43C20.99 41.47 21.96 41.48 23.17 42.69C24.2 43.73 25.18 44.89 26.73 45.05C27.98 45.18 29.2 44.74 30.44 44.73C31.36 44.72 32.35 44.72 33.21 44.35C33.67 44.15 34.05 43.79 34.22 43.31C34.46 42.65 34.85 41.11 34.77 40.42C34.72 39.96 34.48 39.59 34.33 39.16C34.25 38.93 34.25 38.47 33.92 38.47" fill="#75756D"/>
<path d="M20.17 26.6C20.73 26.66 21.18 26.54 21.6 26.15C22.1 25.69 22.34 24.96 22.91 24.59C23.7 24.08 24.9 24.12 25.76 24.45C26.44 24.71 26.85 25.72 26.95 26.39C26.99 26.69 27.02 26.89 27.3 27.05C27.41 26.62 27.62 26.19 27.63 25.74C27.67 24.77 26.87 24.01 25.95 23.87C25.42 23.79 24.89 23.78 24.37 23.85C23.86 23.92 23.32 24.02 22.88 24.3C22.11 24.78 21.7 25.58 21.1 26.23C20.87 26.47 20.5 26.52 20.17 26.6Z" fill="#2B3021"/>
<path d="M22.2 26.63C22.2 26.63 22.58 26.78 22.96 26.48C22.96 26.48 23.08 27.15 24.07 27.15C25.06 27.15 25.11 26.02 24.82 25.73C24.82 25.73 25.52 25.67 25.81 26.14C26.1 26.61 26.21 27.25 26.99 27.32C26.99 27.32 27.11 27.24 26.96 27.15C26.65 26.96 26.53 26.56 26.41 26.23C26.1 25.35 25 25.2 24.19 25.2C23.09 25.2 22.56 26.3 22.43 26.39C22.31 26.48 22.17 26.59 22.17 26.59" fill="#2B3021"/>
<path d="M32.19 32.45C32.19 32.45 32.82 32.12 32.79 31.5C32.76 30.88 32.06 29.73 32.03 29.26C31.95 27.82 31.38 26.42 31.44 24.99C31.46 24.52 31.55 23.96 31.86 23.59C32.28 23.09 33.17 23.1 33.74 22.88C34.73 22.51 36.08 21.93 36.88 22.97C37.21 23.41 37.44 24.08 37.4 24.63C36.91 23.85 36.16 23.18 35.2 23.55C34.32 23.89 33.09 24.6 32.8 25.59C32.44 26.83 32.8 28.07 33.07 29.29C33.28 30.23 34.03 31.81 32.91 32.28L32.19 32.45Z" fill="#2B3021"/>
<path d="M36.08 26.99C35.82 26.13 34 25.35 32.99 26.23C32.99 26.23 32.96 27.82 34.38 27.65C35.35 27.54 34.96 26.27 34.96 26.27C35 26.41 35.43 26.61 35.53 26.76C35.71 27.01 35.78 27.89 35.48 28.06C35.48 28.07 36.34 27.85 36.08 26.99Z" fill="#2B3021"/>
<path d="M21.83 23.83C22.14 23.78 22.39 23.32 22.55 23.09C22.9 22.59 23.34 22.07 23.97 21.94C25 21.74 25.8 22.62 26.77 22.75C27.05 22.79 27.37 22.76 27.62 22.91C27.29 23.22 26.91 23.39 26.46 23.4C26.02 23.41 25.58 23.3 25.14 23.28C24.76 23.26 24.38 23.29 24.02 23.39C23.6 23.5 23.26 23.81 22.82 23.83C22.49 23.84 22.16 23.78 21.83 23.83Z" fill="#2B3021"/>
<path d="M63.0999 0C50.4499 0 40.2 8.75 40.2 19.54C40.2 25.51 43.34 30.84 48.27 34.43C48.07 37.49 46.7699 40.99 41.7999 44.62C49.9099 44.97 55.43 40.83 57.84 38.56C59.53 38.9 61.28 39.08 63.09 39.08C75.74 39.08 85.9899 30.33 85.9899 19.54C85.9899 8.75 75.7499 0 63.0999 0Z" fill="#2B3021"/>
<path d="M49.75 10.13H50.5601V11.86H49.75C49.52 11.24 49.1201 10.93 48.5601 10.93C48.0901 10.93 47.74 11.09 47.5 11.42C47.26 11.75 47.14 12.14 47.14 12.6C47.14 13.08 47.2701 13.46 47.5201 13.76C47.7701 14.06 48.1001 14.2 48.4901 14.2C48.8101 14.2 49.0901 14.09 49.3301 13.86C49.5701 13.64 49.73 13.33 49.82 12.93L50.76 13.39C50.4 14.53 49.6201 15.1 48.4001 15.1C47.5401 15.1 46.89 14.86 46.46 14.39C46.02 13.91 45.8 13.31 45.8 12.59C45.8 12.07 45.91 11.62 46.14 11.23C46.37 10.84 46.6701 10.55 47.0601 10.35C47.4401 10.15 47.86 10.06 48.32 10.06C48.89 10.06 49.37 10.21 49.75 10.52V10.13Z" fill="#DAD9CB"/>
<path d="M50.9 10.96V10.13H53.18V10.96H52.71V13.18C52.71 13.48 52.72 13.69 52.75 13.82C52.77 13.95 52.84 14.06 52.94 14.14C53.04 14.22 53.17 14.27 53.33 14.27C53.49 14.27 53.63 14.23 53.74 14.15C53.85 14.07 53.92 13.97 53.95 13.85C53.98 13.73 54 13.49 54 13.12V10.96H53.54V10.13H55.44V10.96H54.86V13.42C54.86 13.75 54.84 14 54.81 14.15C54.78 14.3 54.7 14.45 54.57 14.6C54.45 14.75 54.27 14.87 54.03 14.96C53.8 15.05 53.53 15.1 53.22 15.1C52.87 15.1 52.57 15.05 52.32 14.95C52.07 14.85 51.89 14.71 51.77 14.54C51.65 14.37 51.57 14.2 51.54 14.03C51.51 13.86 51.49 13.58 51.49 13.18V10.96H50.9Z" fill="#DAD9CB"/>
<path d="M60.1 14.22V15.05H57.75V14.22H58.36L58.13 13.38H56.9L56.65 14.22H57.29V15.05H55.17V14.22H55.76L56.69 10.97H56.05V10.14H59.17V10.97H58.53L59.53 14.22H60.1ZM57.94 12.65L57.54 11.17L57.11 12.65H57.94Z" fill="#DAD9CB"/>
<path d="M60.11 15.05V14.22H60.75V10.97H60.11V10.14H62.12L63.88 13.2V10.97H63.26V10.14H65.4V10.97H64.73V15.09H63.67L61.61 11.45V14.23H62.21V15.06H60.11V15.05Z" fill="#DAD9CB"/>
<path d="M66.36 15.05V14.22H67.08V10.97H66.36V12.11H65.54V10.14H69.87V12.11H69.06V10.97H68.32V14.22H69.04V15.05H66.36Z" fill="#DAD9CB"/>
<path d="M72.73 10.06C73.55 10.06 74.2 10.3 74.68 10.79C75.15 11.28 75.39 11.88 75.39 12.58C75.39 13.29 75.15 13.88 74.68 14.37C74.21 14.86 73.56 15.1 72.73 15.1C71.88 15.1 71.22 14.85 70.76 14.35C70.3 13.85 70.07 13.26 70.07 12.58C70.07 11.88 70.31 11.28 70.78 10.79C71.25 10.3 71.9 10.06 72.73 10.06ZM72.73 10.95C72.36 10.95 72.05 11.09 71.8 11.37C71.55 11.65 71.42 12.07 71.42 12.61C71.42 13.09 71.55 13.48 71.8 13.77C72.05 14.06 72.36 14.2 72.74 14.2C73.11 14.2 73.42 14.06 73.67 13.77C73.93 13.49 74.05 13.08 74.05 12.54C74.05 12.06 73.93 11.67 73.68 11.38C73.44 11.1 73.12 10.95 72.73 10.95Z" fill="#DAD9CB"/>
<path d="M45.6899 21.38V20.55H46.2599V17.3H45.6899V16.47H49.8999V18.03H48.9899V17.3H47.5099V18.43H48.7099V19.26H47.5099V20.55H48.9899V19.82H49.8999V21.38H45.6899Z" fill="#DAD9CB"/>
<path d="M50.31 21.38V19.7H51.12C51.13 20.01 51.21 20.23 51.35 20.38C51.5 20.52 51.66 20.6 51.85 20.6C52 20.6 52.12 20.55 52.22 20.44C52.32 20.34 52.37 20.21 52.37 20.07C52.37 19.92 52.32 19.79 52.22 19.69C52.12 19.59 51.94 19.47 51.68 19.34C51.13 19.07 50.75 18.82 50.56 18.61C50.36 18.4 50.26 18.12 50.26 17.76C50.26 17.33 50.39 17 50.65 16.76C50.91 16.52 51.21 16.41 51.54 16.41C51.92 16.41 52.22 16.56 52.42 16.87V16.46H53.23V17.95H52.42C52.39 17.72 52.32 17.54 52.19 17.41C52.06 17.28 51.91 17.22 51.74 17.22C51.61 17.22 51.49 17.26 51.4 17.33C51.31 17.4 51.26 17.5 51.26 17.62C51.26 17.72 51.3 17.82 51.37 17.91C51.45 18 51.67 18.13 52.03 18.3C52.38 18.46 52.65 18.61 52.84 18.74C53.03 18.87 53.18 19.04 53.29 19.25C53.4 19.46 53.45 19.7 53.45 19.97C53.45 20.46 53.31 20.82 53.04 21.07C52.77 21.31 52.44 21.44 52.06 21.44C51.64 21.44 51.32 21.28 51.09 20.96V21.38H50.31Z" fill="#DAD9CB"/>
<path d="M54.57 21.38V20.55H55.29V17.3H54.57V18.44H53.75V16.47H58.08V18.44H57.27V17.3H56.53V20.55H57.25V21.38H54.57Z" fill="#DAD9CB"/>
<path d="M62.83 20.55V21.38H60.48V20.55H61.09L60.86 19.71H59.62L59.37 20.55H60.01V21.38H57.89V20.55H58.48L59.41 17.3H58.77V16.47H61.89V17.3H61.25L62.25 20.55H62.83ZM60.67 18.98L60.27 17.5L59.84 18.98H60.67Z" fill="#DAD9CB"/>
<path d="M64.46 21.38V20.55H65.03V17.3H64.46V16.47H68.67V18.03H67.76V17.3H66.28V18.43H67.48V19.26H66.28V20.55H67.76V19.82H68.67V21.38H64.46Z" fill="#DAD9CB"/>
<path d="M68.9399 21.38V20.55H69.6199V17.3H68.9399V16.47H71.5699V17.3H70.8699V20.55H72.2799V19.03H73.2099V21.38H68.9399Z" fill="#DAD9CB"/>
<path d="M45.62 27.71V26.88H46.34V23.63H45.62V22.8H47.88C48.36 22.8 48.74 22.83 49.03 22.89C49.32 22.95 49.6 23.08 49.87 23.29C50.14 23.5 50.35 23.77 50.51 24.12C50.67 24.47 50.75 24.85 50.75 25.27C50.75 25.61 50.69 25.94 50.58 26.25C50.47 26.56 50.33 26.81 50.16 27C50 27.19 49.8 27.34 49.56 27.45C49.33 27.56 49.12 27.63 48.92 27.67C48.73 27.7 48.43 27.72 48.02 27.72H45.62V27.71ZM47.59 26.88H47.89C48.25 26.88 48.54 26.83 48.75 26.73C48.96 26.63 49.13 26.46 49.26 26.22C49.39 25.98 49.45 25.66 49.45 25.26C49.45 24.89 49.39 24.57 49.26 24.31C49.13 24.05 48.96 23.87 48.73 23.77C48.51 23.67 48.23 23.62 47.89 23.62H47.59V26.88Z" fill="#DAD9CB"/>
<path d="M53.92 22.72C54.74 22.72 55.39 22.96 55.87 23.45C56.34 23.94 56.58 24.54 56.58 25.24C56.58 25.95 56.34 26.54 55.87 27.03C55.4 27.52 54.75 27.76 53.93 27.76C53.08 27.76 52.42 27.51 51.96 27.01C51.5 26.51 51.27 25.92 51.27 25.24C51.27 24.54 51.5 23.94 51.98 23.45C52.44 22.96 53.09 22.72 53.92 22.72ZM53.92 23.61C53.55 23.61 53.24 23.75 52.99 24.03C52.73 24.31 52.61 24.73 52.61 25.27C52.61 25.75 52.74 26.14 52.99 26.43C53.24 26.72 53.55 26.86 53.93 26.86C54.3 26.86 54.61 26.72 54.86 26.43C55.12 26.15 55.25 25.74 55.25 25.2C55.25 24.72 55.13 24.34 54.88 24.04C54.63 23.76 54.31 23.61 53.92 23.61Z" fill="#DAD9CB"/>
<path d="M56.95 27.71V26.88H57.63V23.63H56.95V22.8H59.57V23.63H58.8699V26.88H60.2799V25.36H61.2099V27.71H56.95Z" fill="#DAD9CB"/>
<path d="M66.04 26.88V27.71H63.69V26.88H64.3L64.07 26.04H62.83L62.58 26.88H63.22V27.71H61.1V26.88H61.69L62.62 23.63H61.98V22.8H65.1V23.63H64.46L65.46 26.88H66.04ZM63.88 25.31L63.48 23.83L63.05 25.31H63.88Z" fill="#DAD9CB"/>
<path d="M71.01 26.88V27.71H69.55L68.47 25.56H67.92V26.88H68.52V27.71H66.02V26.88H66.68V23.63H66.02V22.8H68.9C69.44 22.8 69.83 22.94 70.07 23.22C70.31 23.5 70.43 23.82 70.43 24.18C70.43 24.74 70.15 25.15 69.6 25.4L70.38 26.88H71.01ZM67.92 24.77H68.35C68.88 24.77 69.14 24.58 69.14 24.19C69.14 24 69.08 23.86 68.96 23.76C68.84 23.67 68.67 23.62 68.46 23.62H67.92V24.77Z" fill="#DAD9CB"/>
<path d="M71.49 27.71V26.53H72.64V27.71H71.49Z" fill="#DAD9CB"/>
<path d="M75.53 28.46V29.25H73.24V28.46H73.8V25.07H73.33V24.28H74.86V24.71C75.15 24.39 75.48 24.23 75.85 24.23C76.29 24.23 76.64 24.41 76.89 24.77C77.14 25.13 77.27 25.55 77.27 26.03C77.27 26.54 77.14 26.96 76.88 27.29C76.62 27.62 76.27 27.79 75.84 27.79C75.48 27.79 75.16 27.65 74.87 27.36V28.47H75.53V28.46ZM76.19 26.01C76.19 25.71 76.13 25.49 76.01 25.34C75.89 25.19 75.73 25.12 75.53 25.12C75.33 25.12 75.17 25.2 75.05 25.35C74.93 25.5 74.86 25.73 74.86 26.03C74.86 26.3 74.92 26.52 75.05 26.68C75.17 26.85 75.34 26.93 75.54 26.93C75.73 26.93 75.89 26.86 76.01 26.71C76.12 26.55 76.19 26.32 76.19 26.01Z" fill="#DAD9CB"/>
<path d="M80.28 26.68L81.1 26.95C80.75 27.51 80.21 27.79 79.48 27.79C78.89 27.79 78.44 27.63 78.11 27.31C77.78 26.99 77.62 26.57 77.62 26.06C77.62 25.53 77.79 25.09 78.13 24.74C78.47 24.39 78.9 24.21 79.43 24.21C79.81 24.21 80.14 24.31 80.42 24.51C80.7 24.71 80.89 24.95 81 25.25C81.11 25.54 81.16 25.87 81.16 26.23H78.68C78.7 26.54 78.79 26.76 78.97 26.89C79.15 27.02 79.33 27.08 79.53 27.08C79.77 27.08 80.02 26.94 80.28 26.68ZM80.08 25.62C80.06 25.43 79.98 25.27 79.86 25.13C79.74 25 79.58 24.93 79.37 24.93C78.98 24.93 78.75 25.16 78.69 25.62H80.08Z" fill="#DAD9CB"/>
</g>
<defs>
<clipPath id="clip0">
<rect width="85.99" height="51.81" fill="white"/>
</clipPath>
</defs>
</svg>
