<svg width="126" height="35" viewBox="0 0 126 35" fill="none" xmlns="http://www.w3.org/2000/svg">
<path d="M48.8652 19.248H45.5254V25H43.6406V10.7812H48.3477C49.9492 10.7812 51.1797 11.1458 52.0391 11.875C52.9049 12.6042 53.3379 13.6654 53.3379 15.0586C53.3379 15.944 53.097 16.7155 52.6152 17.373C52.14 18.0306 51.4759 18.5221 50.623 18.8477L53.9629 24.8828V25H51.9512L48.8652 19.248ZM45.5254 17.7148H48.4062C49.3372 17.7148 50.0762 17.474 50.623 16.9922C51.1764 16.5104 51.4531 15.8659 51.4531 15.0586C51.4531 14.1797 51.1895 13.5059 50.6621 13.0371C50.1413 12.5684 49.3861 12.3307 48.3965 12.3242H45.5254V17.7148ZM60.0762 25.1953C58.6439 25.1953 57.4785 24.7266 56.5801 23.7891C55.6816 22.8451 55.2324 21.5853 55.2324 20.0098V19.6777C55.2324 18.6296 55.431 17.6953 55.8281 16.875C56.2318 16.0482 56.7917 15.4036 57.5078 14.9414C58.2305 14.4727 59.0117 14.2383 59.8516 14.2383C61.2253 14.2383 62.293 14.6908 63.0547 15.5957C63.8164 16.5007 64.1973 17.7962 64.1973 19.4824V20.2344H57.0391C57.0651 21.276 57.3678 22.1191 57.9473 22.7637C58.5332 23.4017 59.2754 23.7207 60.1738 23.7207C60.8118 23.7207 61.3522 23.5905 61.7949 23.3301C62.2376 23.0697 62.625 22.7246 62.957 22.2949L64.0605 23.1543C63.1751 24.515 61.847 25.1953 60.0762 25.1953ZM59.8516 15.7227C59.1224 15.7227 58.5104 15.9896 58.0156 16.5234C57.5208 17.0508 57.2148 17.793 57.0977 18.75H62.3906V18.6133C62.3385 17.6953 62.0911 16.9857 61.6484 16.4844C61.2057 15.9766 60.6068 15.7227 59.8516 15.7227ZM69.8418 18.291L72.1855 14.4336H74.2949L70.8379 19.6582L74.4023 25H72.3125L69.8711 21.0449L67.4297 25H65.3301L68.8945 19.6582L65.4375 14.4336H67.5273L69.8418 18.291ZM78.6699 11.875V14.4336H80.6426V15.8301H78.6699V22.3828C78.6699 22.806 78.7578 23.125 78.9336 23.3398C79.1094 23.5482 79.4089 23.6523 79.832 23.6523C80.0404 23.6523 80.3268 23.6133 80.6914 23.5352V25C80.2161 25.1302 79.7539 25.1953 79.3047 25.1953C78.4974 25.1953 77.8887 24.9512 77.4785 24.4629C77.0684 23.9746 76.8633 23.2812 76.8633 22.3828V15.8301H74.9395V14.4336H76.8633V11.875H78.6699ZM84.7246 25H82.918V14.4336H84.7246V25ZM82.7715 11.6309C82.7715 11.3379 82.8594 11.0905 83.0352 10.8887C83.2174 10.6868 83.4844 10.5859 83.8359 10.5859C84.1875 10.5859 84.4544 10.6868 84.6367 10.8887C84.819 11.0905 84.9102 11.3379 84.9102 11.6309C84.9102 11.9238 84.819 12.168 84.6367 12.3633C84.4544 12.5586 84.1875 12.6562 83.8359 12.6562C83.4844 12.6562 83.2174 12.5586 83.0352 12.3633C82.8594 12.168 82.7715 11.9238 82.7715 11.6309ZM92.0098 25.1953C90.5775 25.1953 89.4121 24.7266 88.5137 23.7891C87.6152 22.8451 87.166 21.5853 87.166 20.0098V19.6777C87.166 18.6296 87.3646 17.6953 87.7617 16.875C88.1654 16.0482 88.7253 15.4036 89.4414 14.9414C90.1641 14.4727 90.9453 14.2383 91.7852 14.2383C93.1589 14.2383 94.2266 14.6908 94.9883 15.5957C95.75 16.5007 96.1309 17.7962 96.1309 19.4824V20.2344H88.9727C88.9987 21.276 89.3014 22.1191 89.8809 22.7637C90.4668 23.4017 91.209 23.7207 92.1074 23.7207C92.7454 23.7207 93.2858 23.5905 93.7285 23.3301C94.1712 23.0697 94.5586 22.7246 94.8906 22.2949L95.9941 23.1543C95.1087 24.515 93.7806 25.1953 92.0098 25.1953ZM91.7852 15.7227C91.056 15.7227 90.444 15.9896 89.9492 16.5234C89.4544 17.0508 89.1484 17.793 89.0312 18.75H94.3242V18.6133C94.2721 17.6953 94.0247 16.9857 93.582 16.4844C93.1393 15.9766 92.5404 15.7227 91.7852 15.7227Z" fill="#414547"/>
<path d="M10.8853 15.1696C10.8853 15.5347 10.9271 15.8906 11.0069 16.2315H2.43923C2.30743 15.1529 2.32029 14.1071 2.32029 14.1071H11.0064C10.9271 14.4485 10.8853 14.8044 10.8853 15.1696Z" fill="#FF6E00"/>
<path d="M28.6796 14.1075C28.6796 14.1075 28.6988 15.03 28.5606 16.232H19.9913C20.0712 15.8911 20.1129 15.5352 20.1129 15.17C20.1129 14.8049 20.0712 14.449 19.9913 14.1081H28.6796V14.1075Z" fill="#FF6E00"/>
<path d="M12.9694 11.2907C12.3147 11.7231 11.7757 12.3182 11.4109 13.0193L10.2065 11.8496C9.11629 10.7914 7.68155 10.2082 6.16592 10.2082H2.323V7.87537H6.16646C8.28641 7.87537 10.2939 8.69122 11.8186 10.1722L12.9694 11.2907Z" fill="#00C8FF"/>
<path d="M27.5573 20.5182C27.3205 21.1833 27.0456 21.8408 26.737 22.4849C26.6786 22.6072 26.6186 22.7289 26.557 22.85H24.8228C22.7023 22.85 20.6954 22.0353 19.1696 20.5543L17.7777 19.2026C18.4608 18.8122 19.0356 18.2511 19.4428 17.5774L20.7822 18.8774C21.8724 19.9356 23.3072 20.5188 24.8228 20.5188H27.5573V20.5182Z" fill="#00C8FF"/>
<path d="M30.9974 13.85V1.43982L28.0803 0.981544C19.744 -0.327597 11.2562 -0.327597 2.91991 0.982083L0.00276357 1.43982V13.8495C-0.108136 20.6316 3.28529 27.1703 7.85255 30.7277C7.85255 30.7277 11.4533 33.7838 15.5009 34.9998C20.0365 33.5237 23.1476 30.7277 23.1476 30.7277C27.7149 27.1703 31.1083 20.6316 30.9974 13.85ZM2.32255 13.8882L2.32309 3.38819L3.03724 3.27725C11.2963 1.99235 19.7028 1.99235 27.9619 3.27725L28.6771 3.38873V7.87567H24.809C22.6885 7.87567 20.6805 8.69153 19.1558 10.1725L18.013 11.2823C17.2898 10.8084 16.4267 10.5322 15.4987 10.5322C12.9507 10.5322 10.8854 12.6082 10.8854 15.1694C10.8854 16.045 11.127 16.8636 11.5465 17.5626L10.1927 18.8771C9.10245 19.9353 7.66771 20.5185 6.66319 20.5185H3.44441C2.6724 18.351 2.28666 16.0929 2.32255 13.8882ZM26.7371 22.4841C25.5022 25.0566 23.7225 27.3291 21.7263 28.8844C21.7263 28.8844 19.0422 31.2183 15.4821 32.5388C12.2371 31.3637 9.27389 28.8844 9.27389 28.8844C7.37305 27.4035 5.66937 25.2709 4.44465 22.8497H6.15262C8.27257 22.8497 10.28 22.035 11.8048 20.554L13.2063 19.1932C13.8819 19.5831 14.6641 19.8071 15.4987 19.8071C18.0468 19.8071 20.1121 17.7311 20.1121 15.1699C20.1121 14.388 19.9187 13.6513 19.5785 13.0051L20.7684 11.8499C21.8575 10.7918 23.2923 10.2085 24.809 10.2085H28.6771V13.8888C28.7248 16.7699 28.0535 19.7425 26.7371 22.4841Z" fill="#000096"/>
<path d="M15.4959 17.9181C17.0061 17.9181 18.2304 16.6875 18.2304 15.1695C18.2304 13.6515 17.0061 12.4209 15.4959 12.4209C13.9857 12.4209 12.7615 13.6515 12.7615 15.1695C12.7615 16.6875 13.9857 17.9181 15.4959 17.9181Z" fill="#FF6E00"/>
</svg>
