<svg width="172" height="41" viewBox="0 0 172 41" fill="none" xmlns="http://www.w3.org/2000/svg">
<path d="M172 0H0V40.4706H172V0Z" fill="black"/>
<path d="M53.4434 24.5979L53.8884 26.1868L53.6764 26.2897C53.1791 26.5181 52.6949 26.6712 51.9489 26.6712C50.3182 26.6712 49.3079 25.7074 49.3079 24.1561L49.3053 19.4872H47.6301V17.8833H49.3053V15.5815L51.3155 15.0644V17.8833H53.4382V19.4872H51.3155L51.3181 23.9101C51.3181 24.4749 51.7107 24.8639 52.3179 24.8991C52.6556 24.9192 52.9906 24.8238 53.2864 24.6782C53.2812 24.6782 53.4434 24.5979 53.4434 24.5979ZM102.924 17.8833V26.5784H104.934V17.8833H102.924ZM115.731 22.2308C115.731 24.7635 113.747 26.6738 111.114 26.6738C108.47 26.6738 106.478 24.7635 106.478 22.2308C106.478 19.6981 108.47 17.7879 111.114 17.7879C113.747 17.7854 115.731 19.6956 115.731 22.2308ZM113.726 22.2308C113.726 20.7021 112.627 19.5927 111.111 19.5927C109.585 19.5927 108.478 20.7021 108.478 22.2308C108.478 23.7595 109.585 24.869 111.111 24.869C112.627 24.869 113.726 23.7595 113.726 22.2308ZM89.4334 22.0024C89.4334 22.0024 89.6167 24.7108 86.5281 24.7108C83.4395 24.7108 83.6253 21.9873 83.6253 21.9873V15.0091H81.5025V21.9221C81.5025 24.8137 83.4761 26.6738 86.5281 26.6738C89.58 26.6738 91.5536 24.8137 91.5536 21.9371V15.0091H89.4308V22.0024H89.4334ZM103.929 13.7968C103.086 13.7968 102.403 14.4519 102.403 15.2602C102.403 15.6292 102.547 15.968 102.782 16.2241H105.075C105.311 15.9655 105.455 15.6292 105.455 15.2602C105.455 14.4519 104.772 13.7968 103.929 13.7968ZM68.9205 17.8054C68.3158 17.8807 67.6824 18.0765 67.117 18.5108V17.8833H65.1068V26.5784H67.117V21.292C67.117 21.1138 67.1484 20.9381 67.2191 20.7724C67.3919 20.3758 67.7243 19.9591 68.2111 19.7583C68.5383 19.6228 68.8498 19.5776 69.1168 19.5776C69.4073 19.5776 69.8339 19.6228 70.1323 19.7709V17.9134C70.1323 17.9134 69.5251 17.7301 68.9205 17.8054ZM28.1903 15.0091L25.8895 23.2399L23.1333 15.0091H20.9713L18.2125 23.2399L15.9118 15.0091H13.7969L17.0294 26.5759H19.1443L22.0523 17.9962L24.9603 26.5759H27.0752L30.3078 15.0091H28.1903V15.0091ZM34.6894 26.6738C32.0458 26.6662 30.067 24.7686 30.0617 22.2333C30.0617 21.6736 30.1612 21.1113 30.3654 20.5867C30.6768 19.7935 31.2291 19.0931 31.9489 18.5986C32.7342 18.0615 33.6974 17.7879 34.658 17.7879C35.9301 17.7879 36.9587 18.2121 37.6995 18.9727C38.2072 19.4973 38.5501 20.1625 38.7491 20.8477C38.927 21.4627 38.9454 22.0802 38.9454 22.7153H32.0458L32.085 22.9035C32.3389 24.0707 33.3807 24.8539 34.6894 24.8564C35.8201 24.8539 36.5609 24.3444 36.9509 23.9678L38.3277 25.1978C37.4927 26.1115 36.1316 26.6712 34.6894 26.6738ZM36.8802 21.3196C36.7912 20.7599 36.5111 20.2428 36.0452 19.9114C35.5401 19.5525 35.048 19.4847 34.514 19.4847C33.7733 19.4847 33.1006 19.8211 32.6347 20.3407C32.263 20.7523 32.0955 21.3171 32.0955 21.3171H36.8802V21.3196ZM59.3065 26.6738C56.6629 26.6662 54.6841 24.7686 54.6789 22.2333C54.6789 21.6736 54.7783 21.1113 54.9825 20.5867C55.294 19.7935 55.8463 19.0931 56.5661 18.5986C57.3513 18.0615 58.3145 17.7879 59.2751 17.7879C60.5472 17.7879 61.5759 18.2121 62.3166 18.9727C62.8244 19.4973 63.1673 20.1625 63.3662 20.8477C63.5442 21.4627 63.5625 22.0802 63.5625 22.7153H56.6629L56.7022 22.9035C56.9561 24.0707 57.9978 24.8539 59.3065 24.8564C60.4373 24.8539 61.178 24.3444 61.568 23.9678L62.9448 25.1978C62.1098 26.1115 60.7488 26.6712 59.3065 26.6738ZM61.4973 21.3196C61.4084 20.7599 61.1283 20.2428 60.6624 19.9114C60.1572 19.5525 59.6651 19.4847 59.1312 19.4847C58.3904 19.4847 57.7177 19.8211 57.2518 20.3407C56.8802 20.7523 56.7126 21.3171 56.7126 21.3171H61.4973V21.3196ZM43.8897 21.2569C43.0155 21.0586 42.3978 20.8452 42.3873 20.3507C42.3742 19.688 42.9815 19.4872 44.0337 19.4872C44.4682 19.4872 45.8476 19.4847 45.8476 19.4847V17.8833L44.052 17.8858C42.4737 17.8858 40.4897 18.2121 40.4897 20.4712C40.508 21.4853 41.2278 22.271 42.5679 22.6751C42.8768 22.768 43.1909 22.8383 43.4945 22.9086C44.4263 23.1219 45.2299 23.3378 45.2403 24.003C45.2508 24.6054 44.4132 24.9669 43.7118 24.9794C42.4763 24.9794 41.6597 24.2967 41.4032 24.0482L40.0918 25.2204C40.0918 25.2204 41.2383 26.6712 43.7903 26.6712C45.4628 26.6712 47.172 25.6321 47.1432 23.9352C47.1092 22.2534 45.4812 21.6209 43.8897 21.2569ZM97.6156 17.7879C96.9036 17.7879 96.0713 17.9033 95.3436 18.4129V17.8833H93.3334V26.5784H95.3436V21.3272C95.3436 20.5515 95.9928 19.6228 97.2675 19.6228C98.3851 19.6228 99.1389 20.3507 99.1389 21.4351V26.5809H101.149V21.3096C101.149 19.1559 99.7096 17.7879 97.6156 17.7879ZM76.1943 17.7879C75.4824 17.7879 74.6501 17.9033 73.9224 18.4129V17.8833H71.9122V26.5784H73.9224V21.3272C73.9224 20.5515 74.5715 19.6228 75.8462 19.6228C76.9639 19.6228 77.7177 20.3507 77.7177 21.4351V26.5809H79.7279V21.3096C79.7279 19.1559 78.2883 17.7879 76.1943 17.7879ZM121.557 17.7879C120.845 17.7879 120.013 17.9033 119.285 18.4129V17.8833H117.275V26.5784H119.285V21.3272C119.285 20.5515 119.935 19.6228 121.209 19.6228C122.327 19.6228 123.081 20.3507 123.081 21.4351V26.5809H125.091V21.3096C125.091 19.1559 123.654 17.7879 121.557 17.7879Z" fill="#FFDD00"/>
<path d="M130.566 26.8229L127.236 14.6851H128.086L131.415 26.8229H130.566Z" fill="white"/>
<path d="M148.329 14.6851L145.031 26.8229H142.637L140.139 18.7758L137.641 26.8229H135.263L131.934 14.6851H134.527L136.565 22.366L138.948 14.6851H141.346L143.771 22.424L145.764 14.6851H148.329ZM155.947 14.6851V22.1606V22.179C155.947 22.1896 156 23.2063 155.345 23.9044C154.919 24.3574 154.28 24.5866 153.444 24.5866C152.607 24.5866 151.968 24.3574 151.542 23.9044C150.888 23.2063 150.94 22.1896 150.94 22.179V14.6851H149.862L148.329 20.3378V22.0947C148.329 23.5909 148.813 24.8579 149.728 25.7614C150.643 26.6622 151.926 27.139 153.444 27.139C154.959 27.139 156.245 26.6622 157.16 25.7614C158.075 24.8605 158.559 23.5909 158.559 22.0947V14.6851H155.947Z" fill="#FFDD00"/>
<path d="M132.914 26.8229L129.585 14.6851H130.434L133.764 26.8229H132.914Z" fill="white"/>
</svg>
