<svg width="110" height="39" viewBox="0 0 110 39" fill="none" xmlns="http://www.w3.org/2000/svg">
<path d="M40.5343 11.7411C39.6813 9.60907 38.0406 6.92844 34.1117 5.19227C30.2202 3.33765 24.9184 2.94802 20.2361 4.17924C15.5196 5.33253 11.4164 8.10355 9.05655 10.7904C6.58465 13.4461 5.85616 16.0208 5.2771 16.0145C5.41097 16.4821 5.08408 13.7516 7.26022 10.3821C9.26202 7.02507 13.77 3.03218 19.5263 1.22432C25.2079 -0.683293 32.1442 -0.412113 37.3588 2.39319C42.6077 4.98343 46.0945 9.59348 46.0665 12.7572C46.0852 15.0233 44.4476 15.7839 42.8132 14.9828C42.2684 14.6804 41.3313 13.6238 40.5343 11.7411Z" fill="url(#paint0_linear)"/>
<path d="M5.53236 27.2576C6.38538 29.3896 8.02604 32.0702 11.9549 33.8064C15.8464 35.661 21.1483 36.0506 25.8305 34.8194C30.5502 33.6661 34.6534 30.8951 37.0101 28.2051C39.482 25.5494 40.2105 22.9748 40.7896 22.981C40.6557 22.5135 40.9826 25.244 38.8064 28.6135C36.8046 31.9705 32.2967 35.9634 26.5404 37.7712C20.8556 39.6819 13.9225 39.4108 8.70784 36.6023C3.46207 34.0152 -0.0278515 29.4021 0.000167481 26.2383C-0.0185118 23.9722 1.61904 23.2117 3.25348 24.0128C3.79829 24.3151 4.73537 25.3749 5.53236 27.2576Z" fill="url(#paint1_linear)"/>
<path d="M36.7112 6.74768H34.9678C34.5226 6.74768 34.0961 6.92223 33.7817 7.23705L28.0876 12.9038C26.9077 14.0789 24.9246 13.0097 25.2546 11.3764L25.7807 8.76438C25.9924 7.72019 25.1954 6.74768 24.1338 6.74768H23.0504H20.8151H7.79876C7.02357 6.74768 6.348 7.27757 6.16432 8.03189L5.78451 9.59351C5.52611 10.6533 6.32932 11.6757 7.41895 11.6757H8.80122C9.88773 11.6757 10.6878 12.6887 10.4388 13.7485L6.74961 29.3179C6.50055 30.3746 7.30065 31.3907 8.38716 31.3907H10.5259C11.3105 31.3907 11.9923 30.8484 12.1666 30.0816L16.0488 12.9879C16.2231 12.2211 16.9049 11.6788 17.6895 11.6788C18.7604 11.6788 19.5574 12.6669 19.3332 13.7142L16.0021 29.3585C15.7779 30.4058 16.578 31.3939 17.6459 31.3939H19.8064C20.6034 31.3939 21.2946 30.8328 21.4533 30.0473L22.5087 24.9042C22.8107 23.4361 24.7316 23.0652 25.5566 24.312L29.747 30.6395C30.0583 31.1102 30.5844 31.3939 31.1479 31.3939H34.7717C36.1259 31.3939 36.926 29.8728 36.1571 28.7538L29.8466 19.5866C29.3858 18.9165 29.4699 18.0125 30.0458 17.4359L37.8942 9.62468C38.9621 8.56801 38.2118 6.74768 36.7112 6.74768Z" fill="#33B6FF"/>
<path d="M42.9251 28.2425C42.9594 27.884 42.5609 27.6565 42.2651 27.8622C41.0136 28.735 39.8991 29.2025 38.3362 29.2025C35.6713 29.2025 34.591 27.5038 35.4285 25.0257C36.624 21.4911 39.018 20.3752 41.2782 19.7362C43.5042 19.0972 45.5838 18.9008 46.1286 17.2301C46.4088 16.3667 46.1317 15.6155 45.2009 15.6155C44.3572 15.6155 43.8435 15.8929 43.4762 16.3355C42.5515 17.4483 41.1381 18.0374 39.6905 18.0374H38.5666C38.2802 18.0374 38.0716 17.7507 38.1712 17.4795C38.769 15.8306 39.7559 14.6648 41.0354 13.8887C42.4519 13.0253 44.1642 12.6637 46.0165 12.6637C50.5618 12.6637 51.7853 14.0009 50.6926 17.4265L47.6323 26.977C47.4891 27.4165 47.4486 27.8591 47.4486 28.2861C47.4486 28.5168 47.2587 28.7038 47.0315 28.7038H43.3361C43.0963 28.7007 42.9033 28.4887 42.9251 28.2425ZM44.5782 21.9867C44.6872 21.65 44.3572 21.3383 44.0303 21.4661C43.3018 21.7467 42.6729 21.9648 42.1406 22.2703C41.4245 22.6599 40.7428 23.2179 40.391 24.2745C40.0672 25.2502 40.4563 25.9453 41.574 25.9453C42.9594 25.9453 43.7003 24.58 44.0583 23.5795L44.5782 21.9867Z" fill="#33B6FF"/>
<path d="M56.7292 13.1095C57.6693 13.1095 58.3387 14.0197 58.0616 14.9205H58.1208C59.3131 13.4991 60.9943 12.7479 62.2645 12.6638C63.765 12.5796 64.9325 13.415 65.0601 14.7241H65.1193C66.377 13.3308 67.7935 12.6638 69.0949 12.6638C71.2648 12.6638 72.8743 13.8046 72.261 15.9211L68.824 27.6971C68.6497 28.2925 68.1049 28.7008 67.4853 28.7008H65.6983C64.7644 28.7008 64.095 27.8 64.3628 26.9054L67.1304 17.6261C67.1429 17.5824 67.1553 17.5419 67.1616 17.4983C67.2985 16.8032 67.1678 16.2296 66.3054 16.2826C65.4835 16.3107 64.9138 16.7564 64.671 17.5637L61.6107 27.7096C61.4332 28.2987 60.8915 28.7008 60.2751 28.7008H58.4975C57.5604 28.7008 56.8879 27.7906 57.165 26.8929L59.9918 17.7102C60.0229 17.6074 60.0447 17.5014 60.051 17.3923C60.0914 16.7938 60.0416 16.2826 59.3256 16.2826C58.3947 16.2826 57.8779 16.7284 57.5604 17.5637L54.3973 27.722C54.2168 28.3049 53.6751 28.7039 53.0649 28.7039H51.2935C50.3502 28.7039 49.6777 27.7844 49.9641 26.8867L54.0238 14.0851C54.2074 13.5054 54.746 13.1126 55.3531 13.1126H56.7292V13.1095Z" fill="#33B6FF"/>
<path d="M79.7857 14.3874H79.8449C80.9439 13.0502 82.4413 12.6606 83.7738 12.6606C86.8123 12.6606 86.9275 15.5563 86.2612 18.0063L84.7918 23.4081C84.0789 26.0232 82.597 29.0156 79.2191 29.1932C79.1382 29.1963 79.0541 29.1963 78.9732 29.1932C77.5318 29.0997 76.3332 28.3236 75.9845 26.9147H75.9253L75.8537 27.1672C75.5985 28.0711 74.7735 28.6945 73.8333 28.6945C72.4354 28.6945 71.4267 27.3542 71.8159 26.0076L76.6165 9.33165C76.8749 8.43083 77.6999 7.81055 78.6338 7.81055H78.8549C80.2465 7.81055 81.2521 9.14151 80.8785 10.4818L79.7857 14.3874ZM81.3953 18.8448C81.6506 17.9252 82.0989 16.3106 80.7602 16.3106C79.5087 16.3106 78.9016 17.5356 78.4782 19.038L77.4415 22.713C77.0648 24.0502 76.9185 25.6087 78.0735 25.5806C79.5772 25.5806 79.9912 23.8818 80.2714 22.8782L81.3953 18.8448Z" fill="#33B6FF"/>
<path d="M91.4104 9.21319C91.6283 8.3903 92.3724 7.81677 93.2254 7.81677H93.929C95.1587 7.81677 96.0553 8.97942 95.7471 10.1701C95.5323 10.9992 94.7851 11.5759 93.929 11.5759H93.2254C91.9926 11.5759 91.0928 10.407 91.4104 9.21319ZM86.8277 26.3349L90.0001 14.4996C90.2211 13.6799 90.9652 13.1063 91.812 13.1063H92.5467C93.7764 13.1063 94.673 14.2721 94.3617 15.4628L91.261 27.2981C91.043 28.1241 90.299 28.7007 89.4459 28.7007H88.6396C87.4037 28.7007 86.5071 27.5287 86.8277 26.3349Z" fill="#33B6FF"/>
<path d="M96.6467 18.0094C97.6772 14.0009 100.482 12.6637 104.044 12.6637C108.097 12.6637 109.623 14.5027 108.779 18.0094L107.25 24.3431C107.247 24.3525 107.244 24.3649 107.241 24.3743C106.145 27.8996 103.49 29.2025 99.9124 29.2025C96.5377 29.2025 94.0876 27.9214 95.0091 24.3587L96.6467 18.0094ZM99.6198 24.6112C99.6167 24.6268 99.6136 24.6424 99.6105 24.6579C99.4828 25.5338 99.7506 25.9983 100.713 25.9983C101.678 25.9983 102.179 25.5338 102.487 24.6579C102.493 24.6424 102.496 24.6268 102.5 24.6112L104.218 17.6727C104.467 16.6691 104.318 15.8617 103.24 15.8617C102.163 15.8617 101.612 16.6691 101.36 17.6727L99.6198 24.6112Z" fill="#33B6FF"/>
<path d="M36.7112 6.74768H34.9678C34.5226 6.74768 34.0961 6.92223 33.7817 7.23705L28.0876 12.9038C26.9077 14.0789 24.9246 13.0097 25.2546 11.3764L25.7807 8.76438C25.9924 7.72019 25.1954 6.74768 24.1338 6.74768H23.0504H20.8151H7.79876C7.02357 6.74768 6.348 7.27757 6.16432 8.03189L5.78451 9.59351C5.52611 10.6533 6.32932 11.6757 7.41895 11.6757H8.80122C9.88773 11.6757 10.6878 12.6887 10.4388 13.7485L6.74961 29.3179C6.50055 30.3746 7.30065 31.3907 8.38716 31.3907H10.5259C11.3105 31.3907 11.9923 30.8484 12.1666 30.0816L16.0488 12.9879C16.2231 12.2211 16.9049 11.6788 17.6895 11.6788C18.7604 11.6788 19.5574 12.6669 19.3332 13.7142L16.0021 29.3585C15.7779 30.4058 16.578 31.3939 17.6459 31.3939H19.8064C20.6034 31.3939 21.2946 30.8328 21.4533 30.0473L22.5087 24.9042C22.8107 23.4361 24.7316 23.0652 25.5566 24.312L29.747 30.6395C30.0583 31.1102 30.5844 31.3939 31.1479 31.3939H34.7717C36.1259 31.3939 36.926 29.8728 36.1571 28.7538L29.8466 19.5866C29.3858 18.9165 29.4699 18.0125 30.0458 17.4359L37.8942 9.62468C38.9621 8.56801 38.2118 6.74768 36.7112 6.74768Z" fill="url(#paint2_linear)"/>
<path d="M42.9251 28.2425C42.9594 27.884 42.5609 27.6565 42.2651 27.8622C41.0136 28.735 39.8991 29.2025 38.3362 29.2025C35.6713 29.2025 34.591 27.5038 35.4285 25.0257C36.624 21.4911 39.018 20.3752 41.2782 19.7362C43.5042 19.0972 45.5838 18.9008 46.1286 17.2301C46.4088 16.3667 46.1317 15.6155 45.2009 15.6155C44.3572 15.6155 43.8435 15.8929 43.4762 16.3355C42.5515 17.4483 41.1381 18.0374 39.6905 18.0374H38.5666C38.2802 18.0374 38.0716 17.7507 38.1712 17.4795C38.769 15.8306 39.7559 14.6648 41.0354 13.8887C42.4519 13.0253 44.1642 12.6637 46.0165 12.6637C50.5618 12.6637 51.7853 14.0009 50.6926 17.4265L47.6323 26.977C47.4891 27.4165 47.4486 27.8591 47.4486 28.2861C47.4486 28.5168 47.2587 28.7038 47.0315 28.7038H43.3361C43.0963 28.7007 42.9033 28.4887 42.9251 28.2425ZM44.5782 21.9867C44.6872 21.65 44.3572 21.3383 44.0303 21.4661C43.3018 21.7467 42.6729 21.9648 42.1406 22.2703C41.4245 22.6599 40.7428 23.2179 40.391 24.2745C40.0672 25.2502 40.4563 25.9453 41.574 25.9453C42.9594 25.9453 43.7003 24.58 44.0583 23.5795L44.5782 21.9867Z" fill="url(#paint3_linear)"/>
<path d="M56.7292 13.1095C57.6693 13.1095 58.3387 14.0197 58.0616 14.9205H58.1208C59.3131 13.4991 60.9943 12.7479 62.2645 12.6638C63.765 12.5796 64.9325 13.415 65.0601 14.7241H65.1193C66.377 13.3308 67.7935 12.6638 69.0949 12.6638C71.2648 12.6638 72.8743 13.8046 72.261 15.9211L68.824 27.6971C68.6497 28.2925 68.1049 28.7008 67.4853 28.7008H65.6983C64.7644 28.7008 64.095 27.8 64.3628 26.9054L67.1304 17.6261C67.1429 17.5824 67.1553 17.5419 67.1616 17.4983C67.2985 16.8032 67.1678 16.2296 66.3054 16.2826C65.4835 16.3107 64.9138 16.7564 64.671 17.5637L61.6107 27.7096C61.4332 28.2987 60.8915 28.7008 60.2751 28.7008H58.4975C57.5604 28.7008 56.8879 27.7906 57.165 26.8929L59.9918 17.7102C60.0229 17.6074 60.0447 17.5014 60.051 17.3923C60.0914 16.7938 60.0416 16.2826 59.3256 16.2826C58.3947 16.2826 57.8779 16.7284 57.5604 17.5637L54.3973 27.722C54.2168 28.3049 53.6751 28.7039 53.0649 28.7039H51.2935C50.3502 28.7039 49.6777 27.7844 49.9641 26.8867L54.0238 14.0851C54.2074 13.5054 54.746 13.1126 55.3531 13.1126H56.7292V13.1095Z" fill="url(#paint4_linear)"/>
<path d="M79.7857 14.3874H79.8449C80.9439 13.0502 82.4413 12.6606 83.7738 12.6606C86.8123 12.6606 86.9275 15.5563 86.2612 18.0063L84.7918 23.4081C84.0789 26.0232 82.597 29.0156 79.2191 29.1932C79.1382 29.1963 79.0541 29.1963 78.9732 29.1932C77.5318 29.0997 76.3332 28.3236 75.9845 26.9147H75.9253L75.8537 27.1672C75.5985 28.0711 74.7735 28.6945 73.8333 28.6945C72.4354 28.6945 71.4267 27.3542 71.8159 26.0076L76.6165 9.33165C76.8749 8.43083 77.6999 7.81055 78.6338 7.81055H78.8549C80.2465 7.81055 81.2521 9.14151 80.8785 10.4818L79.7857 14.3874ZM81.3953 18.8448C81.6506 17.9252 82.0989 16.3106 80.7602 16.3106C79.5087 16.3106 78.9016 17.5356 78.4782 19.038L77.4415 22.713C77.0648 24.0502 76.9185 25.6087 78.0735 25.5806C79.5772 25.5806 79.9912 23.8818 80.2714 22.8782L81.3953 18.8448Z" fill="url(#paint5_linear)"/>
<path d="M91.4104 9.21319C91.6283 8.3903 92.3724 7.81677 93.2254 7.81677H93.929C95.1587 7.81677 96.0553 8.97942 95.7471 10.1701C95.5323 10.9992 94.7851 11.5759 93.929 11.5759H93.2254C91.9926 11.5759 91.0928 10.407 91.4104 9.21319ZM86.8277 26.3349L90.0001 14.4996C90.2211 13.6799 90.9652 13.1063 91.812 13.1063H92.5467C93.7764 13.1063 94.673 14.2721 94.3617 15.4628L91.261 27.2981C91.043 28.1241 90.299 28.7007 89.4459 28.7007H88.6396C87.4037 28.7007 86.5071 27.5287 86.8277 26.3349Z" fill="url(#paint6_linear)"/>
<path d="M96.6467 18.0094C97.6772 14.0009 100.482 12.6637 104.044 12.6637C108.097 12.6637 109.623 14.5027 108.779 18.0094L107.25 24.3431C107.247 24.3525 107.244 24.3649 107.241 24.3743C106.145 27.8996 103.49 29.2025 99.9124 29.2025C96.5377 29.2025 94.0876 27.9214 95.0091 24.3587L96.6467 18.0094ZM99.6198 24.6112C99.6167 24.6268 99.6136 24.6424 99.6105 24.6579C99.4828 25.5338 99.7506 25.9983 100.713 25.9983C101.678 25.9983 102.179 25.5338 102.487 24.6579C102.493 24.6424 102.496 24.6268 102.5 24.6112L104.218 17.6727C104.467 16.6691 104.318 15.8617 103.24 15.8617C102.163 15.8617 101.612 16.6691 101.36 17.6727L99.6198 24.6112Z" fill="url(#paint7_linear)"/>
<defs>
<linearGradient id="paint0_linear" x1="5.27757" y1="8.03386" x2="46.0661" y2="8.03386" gradientUnits="userSpaceOnUse">
<stop stop-color="#33B6FF" stop-opacity="0"/>
<stop offset="0.9933" stop-color="#33B6FF"/>
</linearGradient>
<linearGradient id="paint1_linear" x1="40.7887" y1="30.9636" x2="0.000165321" y2="30.9636" gradientUnits="userSpaceOnUse">
<stop stop-color="#33B6FF" stop-opacity="0"/>
<stop offset="0.9933" stop-color="#33B6FF"/>
</linearGradient>
<linearGradient id="paint2_linear" x1="22.0658" y1="25.5867" x2="22.0658" y2="-33.4329" gradientUnits="userSpaceOnUse">
<stop stop-color="white" stop-opacity="0"/>
<stop offset="1" stop-color="white"/>
</linearGradient>
<linearGradient id="paint3_linear" x1="43.1126" y1="25.5866" x2="43.1126" y2="-33.4329" gradientUnits="userSpaceOnUse">
<stop stop-color="white" stop-opacity="0"/>
<stop offset="1" stop-color="white"/>
</linearGradient>
<linearGradient id="paint4_linear" x1="61.1476" y1="25.5867" x2="61.1476" y2="-33.4328" gradientUnits="userSpaceOnUse">
<stop stop-color="white" stop-opacity="0"/>
<stop offset="1" stop-color="white"/>
</linearGradient>
<linearGradient id="paint5_linear" x1="79.1641" y1="25.5867" x2="79.1641" y2="-33.4329" gradientUnits="userSpaceOnUse">
<stop stop-color="white" stop-opacity="0"/>
<stop offset="1" stop-color="white"/>
</linearGradient>
<linearGradient id="paint6_linear" x1="91.2829" y1="25.5866" x2="91.2829" y2="-33.4329" gradientUnits="userSpaceOnUse">
<stop stop-color="white" stop-opacity="0"/>
<stop offset="1" stop-color="white"/>
</linearGradient>
<linearGradient id="paint7_linear" x1="101.906" y1="25.5866" x2="101.906" y2="-33.4329" gradientUnits="userSpaceOnUse">
<stop stop-color="white" stop-opacity="0"/>
<stop offset="1" stop-color="white"/>
</linearGradient>
</defs>
</svg>
