<svg width="49" height="15" viewBox="0 0 49 15" fill="none" xmlns="http://www.w3.org/2000/svg">
<rect width="49" height="15" fill="white"/>
<path fill-rule="evenodd" clip-rule="evenodd" d="M42.554 0.0338745C43.7593 0.0338745 43.9738 0.317689 44.3887 1.55375L49 14.9752H44.8857L43.8902 11.7556H38.3686L37.3732 14.9752H34.9815L39.6465 0.0338745H42.554ZM43.2087 9.56569H39.0154L41.0852 2.74174L43.2071 9.56569H43.2087Z" fill="#0A62C9"/>
<path fill-rule="evenodd" clip-rule="evenodd" d="M19.2592 15H12.8653V0.0338353H19.4912C20.0905 -0.0564327 20.7036 0.0379613 21.2462 0.30405C21.7889 0.570138 22.2343 0.994867 22.5215 1.51989C22.8087 2.04491 22.9234 2.64446 22.85 3.23619C22.7766 3.82791 22.5186 4.38278 22.1115 4.82456L21.3779 5.91019C26.5698 8.56377 24.8928 15 19.2592 15ZM18.4988 6.62515L19.7609 4.76407C20.0103 4.45483 20.1485 4.07306 20.1537 3.67844C20.1346 3.2308 19.9399 2.80782 19.6105 2.49817C19.2811 2.18852 18.8426 2.01624 18.3868 2.01743H16.4559V13.0164H17.5302C17.9649 13.0554 18.4029 12.9983 18.8123 12.8493C19.2216 12.7002 19.5917 12.463 19.8957 12.155C20.1996 11.847 20.4295 11.4761 20.5686 11.0693C20.7077 10.6626 20.7525 10.2304 20.6996 9.80449C20.8027 9.10029 20.6329 8.38371 20.2238 7.79683C19.8147 7.20995 19.1962 6.79562 18.491 6.63601L18.4988 6.62515Z" fill="#0A62C9"/>
<path fill-rule="evenodd" clip-rule="evenodd" d="M6.39398 15H0V0.0338405H6.62588C7.22552 -0.0572292 7.83913 0.0365795 8.38232 0.302364C8.92551 0.568149 9.37159 0.992853 9.65921 1.51806C9.94683 2.04327 10.0619 2.64319 9.98848 3.23529C9.91509 3.8274 9.6569 4.38261 9.24942 4.82456L8.51584 5.91019C13.7045 8.56378 12.0007 15 6.39398 15ZM5.63358 6.62515L6.89565 4.76408C7.14506 4.45484 7.28321 4.07306 7.28847 3.67845C7.26932 3.2308 7.07464 2.80783 6.74525 2.49817C6.41585 2.18852 5.97732 2.01624 5.52157 2.01744H3.5906V13.0164H4.66494C5.09962 13.0554 5.53767 12.9983 5.94698 12.8493C6.35629 12.7002 6.72648 12.463 7.03039 12.155C7.33431 11.847 7.56426 11.4761 7.70336 11.0693C7.84247 10.6626 7.88722 10.2304 7.83432 9.80449C7.93226 9.10102 7.76035 8.38689 7.35207 7.80118C6.9438 7.21548 6.32839 6.80012 5.62569 6.63601L5.63358 6.62515Z" fill="#0A62C9"/>
<path fill-rule="evenodd" clip-rule="evenodd" d="M34.3789 0.0338745H36.7831L32.145 15H28.5102L23.5314 0.0602398L26.2038 0.0338745C27.2513 0.0338745 27.5132 0.291323 28.0638 1.99111L30.946 11.3942L34.3789 0.0338745Z" fill="#0A62C9"/>
</svg>
