<svg width="58" height="15" viewBox="0 0 58 15" fill="none" xmlns="http://www.w3.org/2000/svg">
<rect width="58" height="15" fill="white"/>
<path d="M27.2714 1.56404C28.2479 0.840825 29.3752 0.350834 30.5679 0.131236C31.7606 -0.0883619 32.9873 -0.0317989 34.155 0.296635C35.0375 0.525184 36.0205 0.931032 36.2201 1.79259C36.1559 2.50161 36.0033 3.19967 35.7658 3.87031C34.5559 2.99721 33.0517 2.64162 31.582 2.88132C30.8595 3.03609 30.1847 3.36342 29.6145 3.83569C29.0442 4.30796 28.5952 4.9113 28.3054 5.59482C27.9264 6.30974 27.6967 7.09508 27.6304 7.90257C27.5641 8.71007 27.6626 9.52267 27.9199 10.2905C28.099 10.7228 28.3747 11.1078 28.7257 11.4155C29.0767 11.7233 29.4935 11.9455 29.9437 12.0648C30.6873 12.2362 31.4601 12.2339 32.2028 12.0581C32.9454 11.8824 33.6382 11.5378 34.228 11.0509C34.0008 11.9388 33.9003 12.8516 33.5975 13.7395C33.3221 14.475 32.3873 14.7285 31.6067 14.8559C30.5785 15.0665 29.5167 15.046 28.4972 14.7961C27.4777 14.5461 26.5256 14.0727 25.7089 13.4098C25.0781 12.7384 24.6003 11.9369 24.3086 11.0609C24.0169 10.185 23.9183 9.25559 24.0196 8.33741C24.0557 7.04143 24.3642 5.76782 24.9246 4.60038C25.4851 3.43295 26.2849 2.39814 27.2714 1.56404Z" fill="#072D9D"/>
<path d="M13.5079 0.602857C15.0314 0.344335 16.575 0.225647 18.1199 0.248259C19.5465 0.22029 20.9437 0.657629 22.1027 1.49489C22.3875 1.74468 22.6206 2.04851 22.7885 2.38898C22.9565 2.72946 23.0562 3.09992 23.0817 3.47917C23.1073 3.85842 23.0583 4.23902 22.9376 4.59921C22.8168 4.95939 22.6267 5.2921 22.3781 5.5783C21.7248 6.32024 20.8491 6.82788 19.8835 7.0244C20.679 7.23244 21.3711 7.72674 21.8288 8.4137C22.2599 9.24208 22.3826 10.1982 22.1745 11.1096C21.9665 12.021 21.4415 12.8275 20.6943 13.3836C19.3588 14.3141 17.7756 14.818 16.1512 14.8297C14.94 14.9114 13.7236 14.8001 12.5469 14.5C12.2551 14.426 11.9845 14.2842 11.7569 14.086C11.5293 13.8878 11.351 13.6387 11.2363 13.3587C10.9969 12.5738 10.9969 11.7348 11.2363 10.9499C11.9949 7.47457 12.7259 4.02694 13.5079 0.602857ZM16.3563 2.70828C16.1553 3.69727 15.902 4.68627 15.7258 5.67526C15.6748 5.95229 16.0534 6.08111 16.3054 6.02986C17.348 6.15197 18.3986 5.88105 19.2543 5.26941C19.4335 5.12327 19.5749 4.93559 19.6663 4.72246C19.7577 4.50933 19.7964 4.27708 19.7791 4.04561C19.7617 3.81414 19.6889 3.59035 19.5668 3.39338C19.4448 3.19642 19.2771 3.03216 19.0781 2.91467C18.1997 2.63063 17.267 2.55991 16.3563 2.70828ZM15.1462 8.26133C14.8708 9.19908 14.718 10.1631 14.4909 11.1272C14.4151 11.533 14.188 11.9888 14.5418 12.3447C15.6404 12.4689 16.7521 12.3028 17.7674 11.8627C18.0372 11.7363 18.2733 11.5473 18.4565 11.3114C18.6397 11.0754 18.7647 10.7991 18.8212 10.5051C18.8778 10.2112 18.8643 9.90794 18.7819 9.62024C18.6994 9.33254 18.5504 9.06859 18.347 8.85002C17.3677 8.32143 16.2481 8.11552 15.1462 8.26133Z" fill="#072D9D"/>
<path d="M38.489 0.678891C39.579 0.420531 40.697 0.301394 41.8166 0.324293C43.3577 0.191332 44.9076 0.444009 46.3281 1.05981C46.8107 1.30191 47.2264 1.66002 47.5386 2.1024C47.8508 2.54479 48.0497 3.0578 48.1178 3.59601C48.2618 4.78292 48.0236 5.98499 47.4383 7.02564C46.853 8.06629 45.9514 8.89065 44.866 9.37761C43.2652 10.0457 41.5211 10.2903 39.7997 10.0882C39.5243 11.2046 39.3206 12.3446 39.0439 13.461C38.9696 13.7807 38.811 14.0743 38.5847 14.3108C38.3584 14.5473 38.0727 14.7179 37.758 14.8046C36.976 14.8808 36.1706 14.8046 35.3887 14.8295C36.4721 10.1117 37.4303 5.37038 38.489 0.678891ZM41.5839 2.80925C41.281 4.17916 40.9795 5.54768 40.7014 6.89266C40.6009 7.16969 40.8281 7.42455 41.1048 7.55199C41.9449 7.6777 42.8031 7.55449 43.5746 7.19739C44.2245 6.882 44.7272 6.32481 44.9763 5.64351C45.2255 4.96221 45.2017 4.21014 44.9101 3.54614C44.2355 2.5613 42.6977 2.73306 41.5839 2.80925Z" fill="#072D9D"/>
<path d="M49.7037 3.82318C49.9063 3.26812 50.2179 2.75981 50.62 2.32858C51.0221 1.89736 51.5065 1.55206 52.0441 1.3133C52.333 1.23145 52.6392 1.23579 52.9257 1.32579C53.2121 1.41579 53.4664 1.58757 53.6577 1.82026C54.2922 3.39076 54.2833 5.15007 53.6329 6.71398C52.5244 5.50031 51.1893 4.51803 49.7037 3.82318Z" fill="#072D9D"/>
<path d="M53.6367 1.82037C54.9117 2.50801 56.0283 3.45861 56.9133 4.61006C57.2765 4.97902 57.5602 5.41941 57.7467 5.90371C57.9331 6.388 58.0182 6.90578 57.9967 7.42468C57.8469 8.3052 57.4339 9.11887 56.8128 9.75726C55.5917 11.1218 54.1728 12.293 52.6041 13.2312C52.2859 13.4579 51.9253 13.6175 51.5441 13.7003C51.163 13.7831 50.7691 13.7875 50.3862 13.7132C49.8971 13.5707 49.445 13.3219 49.0617 12.9845C48.6785 12.647 48.3736 12.2291 48.1683 11.7602C50.5233 10.7718 52.4529 8.97422 53.6133 6.68778C53.9415 5.91952 54.1127 5.09268 54.1167 4.25647C54.1207 3.42026 53.9575 2.59179 53.6367 1.82037Z" fill="#F57D31"/>
<path d="M1.51318 3.82323C1.71559 3.26791 2.02716 2.75933 2.42928 2.32786C2.8314 1.89638 3.31581 1.55087 3.8536 1.31196C4.14245 1.2301 4.44872 1.23444 4.73516 1.32444C5.02161 1.41444 5.2759 1.58623 5.46712 1.81892C6.10179 3.38939 6.09289 5.14876 5.44234 6.71264C4.33375 5.49944 2.99866 4.51764 1.51318 3.82323Z" fill="#072D9D"/>
<path d="M5.4697 1.82037C6.74481 2.50797 7.86134 3.45858 8.74629 4.61006C9.10957 4.97902 9.39329 5.41941 9.57972 5.90371C9.76614 6.388 9.85127 6.90578 9.82977 7.42468C9.6799 8.3052 9.2669 9.11887 8.64579 9.75726C7.4247 11.1218 6.00583 12.293 4.43716 13.2312C4.11889 13.4579 3.75834 13.6175 3.37718 13.7003C2.99603 13.7831 2.60216 13.7875 2.21927 13.7132C1.73 13.571 1.27769 13.3226 0.894238 12.9853C0.510788 12.6481 0.205534 12.2304 0 11.7616C2.35495 10.7732 4.28456 8.9756 5.44492 6.68916C6.08295 5.13139 6.09184 3.38464 5.4697 1.82037Z" fill="#F57D31"/>
</svg>
