<svg width="81" height="22" viewBox="0 0 81 22" fill="none" xmlns="http://www.w3.org/2000/svg">
<rect width="81" height="22" fill="white"/>
<path fill-rule="evenodd" clip-rule="evenodd" d="M0 0H19.6559V22H0V0Z" fill="#009045"/>
<path fill-rule="evenodd" clip-rule="evenodd" d="M3.45767 17.5253H14.8656C15.2925 17.5205 15.7006 17.3465 16.0025 17.0405C16.3044 16.7345 16.4761 16.3209 16.4808 15.8881V4.47473H5.07295C4.64602 4.47952 4.2379 4.65355 3.936 4.95955C3.63409 5.26556 3.4624 5.67921 3.45767 6.11194V17.5253ZM6.5479 15.4369L13.3169 14.2438V7.08096L6.5479 8.27817V15.441V15.4369Z" fill="#2F4591"/>
<path fill-rule="evenodd" clip-rule="evenodd" d="M54.88 9.77103C55.1725 9.79218 55.4576 9.87356 55.7181 10.0102C55.9785 10.1468 56.2087 10.3358 56.3947 10.5656C56.5806 10.7955 56.7184 11.0613 56.7995 11.347C56.8807 11.6326 56.9036 11.932 56.8667 12.2268C56.9043 12.5221 56.882 12.8221 56.8012 13.1083C56.7204 13.3945 56.5827 13.661 56.3967 13.8914C56.2107 14.1218 55.9802 14.3113 55.7194 14.4482C55.4586 14.5852 55.1729 14.6667 54.88 14.6878C54.6025 14.706 54.3254 14.6464 54.0791 14.5155C53.8328 14.3847 53.6268 14.1876 53.4838 13.9459C53.152 13.4963 52.995 12.9387 53.0426 12.3793C52.999 11.7598 53.1262 11.1401 53.4101 10.5896C53.5707 10.3416 53.7888 10.1373 54.0454 9.99456C54.3021 9.85184 54.5893 9.77509 54.882 9.77103H54.88ZM53.0406 6.26433V9.47122C53.4315 9.03662 53.9394 8.72752 54.5017 8.58206C55.0639 8.43659 55.6558 8.46112 56.2045 8.65261C57.6027 9.02508 58.4114 10.3676 58.4851 12.234C58.5209 12.7276 58.4563 13.2235 58.2952 13.6907C58.1341 14.158 57.8801 14.5868 57.5488 14.9504C57.2175 15.314 56.816 15.6048 56.3692 15.8046C55.9225 16.0045 55.44 16.1091 54.9516 16.1121C54.4754 16.1352 53.9998 16.0559 53.556 15.8794C53.1122 15.7029 52.7103 15.4333 52.3765 15.0882C52.0428 14.7431 51.7849 14.3303 51.6198 13.8771C51.4546 13.4238 51.3859 12.9402 51.4182 12.4581V6.26433H53.0406ZM49.9503 8.2781H50.4652V9.99308H49.9503C49.5992 10.0038 49.2621 10.1351 48.9943 10.3655C48.7553 10.6298 48.624 10.9761 48.6268 11.3346V16.0334H46.9338V11.3356C46.9595 10.5298 47.2735 9.76092 47.8172 9.17243C48.0951 8.8852 48.4274 8.65784 48.7941 8.50399C49.1608 8.35013 49.5545 8.27295 49.9513 8.27708L49.9503 8.2781ZM43.4024 13.0506H40.9734C40.9734 13.1253 41.0471 13.2 41.0471 13.2747C41.1857 13.6241 41.4172 13.9276 41.716 14.1515C42.0147 14.3753 42.3689 14.5107 42.7391 14.5425C42.843 14.5313 42.9475 14.5578 43.0339 14.6172H43.3287C43.9462 14.6328 44.5564 14.4787 45.0944 14.171C45.1313 14.5429 45.1313 14.9176 45.0944 15.2895C44.947 16.0354 43.6962 16.0354 43.255 16.0354H42.8138C42.663 16.0471 42.5116 16.0215 42.3727 15.9607C41.4902 15.7804 40.7035 15.2787 40.1612 14.5503C39.619 13.822 39.3588 12.9175 39.4298 12.0079C39.4314 11.2509 39.6662 10.5132 40.1015 9.89811C40.5368 9.28298 41.1509 8.82105 41.8578 8.57689C42.3865 8.41114 42.9483 8.38582 43.4894 8.50336C44.0305 8.62089 44.5328 8.87735 44.948 9.24815C45.0916 9.37801 45.2155 9.5287 45.3155 9.69531C45.4558 9.84115 45.5572 10.0207 45.6103 10.2172C45.7454 10.5225 45.8205 10.8517 45.8314 11.1862C45.8341 11.5447 45.7028 11.8909 45.4639 12.1552C45.2526 12.3937 45.0039 12.5952 44.7279 12.7518C44.3248 12.9806 43.8643 13.0845 43.4034 13.0506H43.4024ZM40.9745 11.7828H43.4761C44.0647 11.7828 44.6532 11.484 44.3595 10.739C44.3595 10.6643 44.2858 10.5896 44.2121 10.5149L43.991 10.2908C43.7826 10.0573 43.5115 9.89058 43.2109 9.81114C42.9103 9.73169 42.5933 9.74301 42.299 9.84368C42.1516 9.91838 42.0779 9.91838 42.0042 9.99308C41.9305 10.0678 41.7831 10.1425 41.7094 10.2172C41.4829 10.4094 41.2999 10.6488 41.1729 10.9191C41.0459 11.1895 40.9778 11.4844 40.9734 11.7838L40.9745 11.7828ZM36.6334 6.33903V8.3528H39.3592L39.2814 8.95243C39.2077 9.54899 38.914 9.69838 38.2517 9.69838H36.5597V13.2798V13.7269C36.6334 14.3235 37.0009 14.4729 37.5157 14.4729C38.1135 14.5509 38.7211 14.4738 39.2814 14.2488C39.3551 14.8454 39.2814 15.666 38.914 15.8154C38.4412 15.9791 37.9375 16.0302 37.442 15.9648C37.2187 15.9769 36.995 15.9517 36.7798 15.8901C36.3153 15.7725 35.886 15.5421 35.529 15.2188C35.1153 14.6336 34.908 13.9243 34.9404 13.2051V6.33903H36.6334ZM30.0118 8.2781H30.6003C30.9966 8.27783 31.3889 8.35673 31.755 8.51029C32.1211 8.66385 32.4538 8.88905 32.7339 9.17302C33.0141 9.45699 33.2363 9.79415 33.3878 10.1652C33.5393 10.5363 33.6171 10.934 33.6169 11.3356V16.0334H32.0016V11.3356C32.0106 11.1569 31.9825 10.9783 31.9191 10.8113C31.8557 10.6442 31.7585 10.4926 31.6336 10.3661C31.5088 10.2395 31.3592 10.141 31.1944 10.0767C31.0296 10.0125 30.8534 9.98397 30.6771 9.99308H30.0885C29.7374 10.0038 29.4003 10.1351 29.1325 10.3655C28.8935 10.6299 28.7623 10.9761 28.765 11.3346V16.0334H27.0679V11.3356C27.0936 10.5298 27.4076 9.76092 27.9513 9.17243C28.2103 8.88083 28.5287 8.64975 28.8844 8.49515C29.2402 8.34056 29.6248 8.26615 30.0118 8.27708V8.2781ZM23.904 6.18964H25.596V15.9587H23.904V6.18964ZM69.3013 8.2781H69.8899C70.6849 8.30412 71.4435 8.62235 72.0241 9.17345C72.5799 9.75396 72.8959 10.5278 72.9074 11.3366V16.0334H71.2144V11.3356C71.2234 11.1569 71.1953 10.9783 71.1319 10.8113C71.0685 10.6442 70.9713 10.4926 70.8465 10.3661C70.7216 10.2395 70.572 10.141 70.4072 10.0767C70.2425 10.0125 70.0662 9.98397 69.8899 9.99308H69.3013C69.125 9.98397 68.9488 10.0125 68.784 10.0767C68.6193 10.141 68.4696 10.2395 68.3448 10.3661C68.22 10.4926 68.1227 10.6442 68.0593 10.8113C67.9959 10.9783 67.9678 11.1569 67.9768 11.3356V16.0334H66.2848V11.3356C66.3105 10.5298 66.6245 9.76092 67.1682 9.17243C67.4417 8.8793 67.7731 8.64802 68.1409 8.49373C68.5087 8.33943 68.9045 8.26561 69.3023 8.27708L69.3013 8.2781ZM74.231 6.18964H75.923V15.9587H74.231V6.18964ZM80.6325 8.57587H78.9395L75.923 12.0805L79.308 15.9587H81L77.6119 12.0815L80.6285 8.57689L80.6325 8.57587ZM63.7095 12.6034H62.606C62.1297 12.5796 61.6536 12.6559 61.2078 12.8275C61.0556 12.8915 60.9218 12.9934 60.8189 13.1238C60.716 13.2542 60.6473 13.4089 60.6192 13.5735V13.6481C60.597 13.7757 60.6005 13.9064 60.6294 14.0325C60.6583 14.1587 60.7122 14.2775 60.7876 14.382C60.8631 14.4865 60.9586 14.5744 61.0685 14.6405C61.1783 14.7066 61.3002 14.7495 61.4269 14.7666C61.9524 14.8633 62.4948 14.7847 62.9725 14.5425C63.1366 14.4367 63.2748 14.2945 63.3768 14.1266C63.4787 13.9587 63.5417 13.7696 63.5611 13.5735C63.6929 13.2691 63.7437 12.9349 63.7084 12.6044L63.7095 12.6034ZM61.649 8.3528C62.5175 8.22036 63.4043 8.40533 64.1506 8.87466C64.4464 9.07514 64.6769 9.36002 64.8129 9.69326C64.9925 10.0897 65.0686 10.5263 65.034 10.9611V13.1979C65.0835 13.7337 64.9687 14.2718 64.7053 14.739C64.4418 15.2062 64.0426 15.5796 63.5621 15.8082C63.1589 15.9597 62.7387 16.0601 62.3112 16.107C60.3981 16.1817 58.9999 15.2117 59.1473 13.422C59.221 12.1542 60.3244 11.6323 61.5753 11.4829C62.1638 11.4082 63.1905 11.5576 63.5621 11.4829C63.5539 11.0811 63.5045 10.6813 63.4147 10.2898C63.3687 10.1511 63.2916 10.025 63.1895 9.92149C63.0874 9.81798 62.963 9.73987 62.8261 9.69326C62.3247 9.54444 61.7986 9.50071 61.28 9.56475C60.7614 9.62879 60.2611 9.79925 59.8096 10.0657V9.39447C59.7943 9.2901 59.7994 9.18369 59.8247 9.08133C59.85 8.97897 59.8949 8.88267 59.957 8.79792C60.4658 8.48456 61.054 8.3291 61.649 8.35075V8.3528Z" fill="#2F4591"/>
</svg>
