<svg width="24" height="23" viewBox="0 0 24 23" fill="none" xmlns="http://www.w3.org/2000/svg">
<rect width="24" height="23" fill="white"/>
<path d="M4.82042 11.414C4.15281 10.2123 3.83217 8.85666 3.89264 7.49146C3.97266 5.5188 4.81717 3.649 6.256 2.25885C7.69482 0.868702 9.62101 0.0615327 11.6464 0L24 0.031932L19.201 4.66927L11.5468 4.6533C9.76427 4.76687 8.08868 5.52194 6.84561 6.77181C5.60253 8.02169 4.88072 9.67712 4.82042 11.4165V11.414ZM9.54252 8.092C10.0054 6.94065 10.7917 5.93959 11.8115 5.20349C10.7482 5.22745 9.70644 5.50111 8.77483 6.0012C7.84323 6.5013 7.04928 7.21306 6.46042 8.07604L9.54252 8.092ZM12.0271 5.77456C11.2605 6.42293 10.6255 7.20567 10.1552 8.08218L13.8663 8.10797C13.4092 7.22443 12.7853 6.43279 12.0271 5.77456ZM6.14654 8.68027C5.69868 9.48208 5.43299 10.3683 5.36751 11.2789L8.82399 11.301C8.82979 10.4144 8.99226 9.53532 9.30427 8.70237L6.14654 8.68027ZM9.92825 8.69623C9.624 9.5338 9.4399 10.4083 9.38116 11.2949L14.6327 11.3109C14.5777 10.4252 14.3992 9.55093 14.102 8.7122L9.92825 8.69623ZM17.5106 8.10797C16.9507 7.23783 16.1777 6.51679 15.2611 6.00962C14.3445 5.50245 13.3129 5.22503 12.2591 5.20226C13.233 5.97432 14.0006 6.96452 14.4966 8.08832L17.5106 8.10797ZM14.7272 8.70483C15.0378 9.53723 15.1894 10.4179 15.1747 11.3035L18.6375 11.3195C18.6034 10.4066 18.344 9.51522 17.8812 8.72079L14.7272 8.70483ZM6.44404 14.9191C7.01079 15.8013 7.79674 16.5301 8.72919 17.0379C9.66165 17.5458 10.7105 17.8164 11.7788 17.8248C10.7732 17.0713 9.99491 16.0675 9.52613 14.9191H6.44404ZM11.9905 17.2918C12.7491 16.6148 13.3775 15.8113 13.8461 14.9191L10.135 14.9031C10.5894 15.8085 11.221 16.6186 11.9943 17.2881L11.9905 17.2918ZM9.30679 14.4032C9.01029 13.5663 8.84829 12.6897 8.82651 11.8046L5.36373 11.7886C5.43054 12.6962 5.68797 13.5806 6.12007 14.3873L9.30679 14.4032ZM14.078 14.4192C14.3769 13.579 14.56 12.704 14.6226 11.8169L9.37108 11.8009C9.43896 12.6849 9.61718 13.5576 9.90178 14.3996L14.078 14.4192ZM14.4751 14.9362C13.966 16.0548 13.1965 17.0425 12.2275 17.8211C13.2858 17.8184 14.3257 17.5515 15.248 17.0458C16.1702 16.5401 16.944 15.8126 17.4955 14.9326L14.4751 14.9362ZM17.8547 14.4192C18.3155 13.6297 18.5821 12.747 18.6338 11.8402L15.171 11.8242C15.162 12.7092 15.0053 13.5869 14.7071 14.4229L17.8547 14.4192ZM19.1796 11.5307C19.1568 13.2926 18.4507 14.981 17.203 16.2567C15.9554 17.5324 14.2585 18.3009 12.4532 18.4081L4.81538 18.3921L0 22.9681L12.3536 23C14.3764 22.9488 16.3034 22.1496 17.7434 20.7646C19.1835 19.3797 20.0286 17.5128 20.1074 15.5429C20.1759 14.177 19.8548 12.8193 19.1796 11.6204V11.5307Z" fill="#FC2B1E"/>
</svg>
