<?xml version="1.0" standalone="no"?>
<!DOCTYPE svg PUBLIC "-//W3C//DTD SVG 20010904//EN"
 "http://www.w3.org/TR/2001/REC-SVG-20010904/DTD/svg10.dtd">
<svg version="1.0" xmlns="http://www.w3.org/2000/svg"
 width="260.000000pt" height="260.000000pt" viewBox="0 0 260.000000 260.000000"
 preserveAspectRatio="xMidYMid meet">
<metadata>
Created by potrace 1.11, written by Peter Selinger 2001-2013
</metadata>
<g transform="translate(0.000000,260.000000) scale(0.100000,-0.100000)"
fill="#000000" stroke="none">
<path d="M1265 2428 c-75 -16 -190 -59 -250 -93 -33 -19 -69 -39 -81 -44 -40
-18 -129 -79 -167 -115 -53 -51 -156 -192 -183 -251 -25 -55 -30 -79 -39 -200
-7 -106 -33 -154 -150 -280 -63 -69 -107 -157 -121 -242 -3 -19 -8 -45 -10
-57 -3 -11 -7 -39 -10 -61 -12 -82 -43 -184 -78 -256 -104 -217 -84 -377 65
-530 78 -80 133 -123 191 -149 87 -38 122 -33 196 30 26 21 83 55 127 75 44
20 95 44 113 53 37 19 69 71 78 129 7 40 12 68 13 68 1 0 43 -40 94 -90 197
-190 250 -231 338 -262 84 -29 199 -38 270 -21 43 11 111 56 177 117 19 17 38
28 44 25 5 -3 33 -7 61 -8 29 -2 88 -15 132 -31 95 -34 137 -30 191 17 58 52
75 96 77 208 3 102 4 106 59 166 34 37 66 117 63 159 -6 98 -33 172 -128 355
-80 153 -91 194 -102 360 -11 155 -15 179 -56 302 -16 48 -29 95 -29 105 0 29
-97 184 -148 237 -138 143 -281 235 -422 271 -72 19 -252 27 -315 13z"/>
</g>
</svg>
